<mxfile host="Electron" modified="2024-04-23T02:59:37.002Z" agent="Mozilla/5.0 (Macintosh; Intel Mac OS X 10_15_7) AppleWebKit/537.36 (KHTML, like Gecko) draw.io/24.1.0 Chrome/120.0.6099.109 Electron/28.1.0 Safari/537.36" etag="nuT6fKHfUVwe6yPA4_wp" version="24.1.0" type="device">
  <diagram id="oWoGghkhaE1kPeKnOkuo" name="Page1">
    <mxGraphModel dx="2390" dy="985" grid="0" gridSize="10" guides="1" tooltips="1" connect="1" arrows="1" fold="1" page="0" pageScale="1" pageWidth="850" pageHeight="1100" background="none" math="0" shadow="0">
      <root>
        <mxCell id="0" />
        <mxCell id="1" parent="0" />
        <mxCell id="L8tGwODf9pzZJjYV8ij8-65" value="" style="rounded=1;whiteSpace=wrap;html=1;strokeColor=#0070F2;fillColor=#EBF8FF;arcSize=32;absoluteArcSize=1;imageWidth=64;imageHeight=64;strokeWidth=1.5;" parent="1" vertex="1">
          <mxGeometry x="236" y="157" width="349" height="537" as="geometry" />
        </mxCell>
        <mxCell id="L8tGwODf9pzZJjYV8ij8-64" value="" style="rounded=1;whiteSpace=wrap;html=1;strokeColor=#6c7075;strokeWidth=1.5;arcSize=8;fillColor=none;perimeterSpacing=0;" parent="1" vertex="1">
          <mxGeometry x="-209.5" y="307.14" width="179.5" height="308" as="geometry" />
        </mxCell>
        <mxCell id="L8tGwODf9pzZJjYV8ij8-42" value="&lt;p style=&quot;margin-top: 0pt; margin-bottom: 0pt; margin-left: 0in; direction: ltr; unicode-bidi: embed; word-break: normal;&quot;&gt;&lt;br&gt;&lt;/p&gt;" style="rounded=1;whiteSpace=wrap;html=1;strokeColor=#ec1313;strokeWidth=6;fillColor=none;align=left;verticalAlign=top;fontSize=11;fontFamily=Arial;container=1;recursiveResize=0;collapsible=0;fontColor=#595959;dashed=1;arcSize=4;" parent="1" vertex="1">
          <mxGeometry x="-170" y="740" width="380" height="360" as="geometry" />
        </mxCell>
        <mxCell id="L8tGwODf9pzZJjYV8ij8-43" style="edgeStyle=none;rounded=0;orthogonalLoop=1;jettySize=auto;html=1;entryX=0;entryY=0.5;entryDx=0;entryDy=0;dashed=1;startArrow=classic;startFill=1;endArrow=classic;endFill=1;strokeColor=#C0399F;strokeWidth=1;fontSize=16;opacity=20;" parent="L8tGwODf9pzZJjYV8ij8-42" edge="1">
          <mxGeometry relative="1" as="geometry">
            <mxPoint x="377" y="77" as="sourcePoint" />
            <mxPoint x="377" y="77" as="targetPoint" />
          </mxGeometry>
        </mxCell>
        <mxCell id="L8tGwODf9pzZJjYV8ij8-107" value="" style="group" parent="L8tGwODf9pzZJjYV8ij8-42" vertex="1" connectable="0">
          <mxGeometry x="203" y="30" width="146" height="149" as="geometry" />
        </mxCell>
        <mxCell id="L8tGwODf9pzZJjYV8ij8-104" value="" style="rounded=1;whiteSpace=wrap;html=1;strokeColor=#0070F2;fillColor=#EBF8FF;arcSize=32;absoluteArcSize=1;imageWidth=64;imageHeight=64;strokeWidth=1.5;" parent="L8tGwODf9pzZJjYV8ij8-107" vertex="1">
          <mxGeometry width="146" height="143" as="geometry" />
        </mxCell>
        <mxCell id="L8tGwODf9pzZJjYV8ij8-33" value="&lt;font color=&quot;#1d2d3e&quot; size=&quot;1&quot; face=&quot;arial&quot; style=&quot;&quot;&gt;&lt;b style=&quot;font-size: 14px;&quot;&gt;Multi-Region Manager (MRM)&lt;/b&gt;&lt;/font&gt;" style="text;html=1;align=center;verticalAlign=top;resizable=1;points=[[0,0.5,0,0,0],[0.21,1,0,0,0],[0.5,1,0,0,0],[0.85,1,0,0,0],[1,0.5,0,0,0]];autosize=0;strokeColor=none;fillColor=none;fontSize=12;fontColor=default;fontFamily=Helvetica;fixedWidth=1;imageWidth=24;whiteSpace=wrap;labelBackgroundColor=none;" parent="L8tGwODf9pzZJjYV8ij8-107" vertex="1">
          <mxGeometry x="12" y="99" width="122" height="46" as="geometry" />
        </mxCell>
        <mxCell id="L8tGwODf9pzZJjYV8ij8-34" value="" style="image;aspect=fixed;html=1;points=[];align=center;fontSize=12;image=img/lib/azure2/general/Code.svg;" parent="L8tGwODf9pzZJjYV8ij8-107" vertex="1">
          <mxGeometry x="46.370000000000005" y="60" width="44.31" height="36" as="geometry" />
        </mxCell>
        <mxCell id="L8tGwODf9pzZJjYV8ij8-106" value="" style="shape=image;verticalLabelPosition=bottom;labelBackgroundColor=default;verticalAlign=top;aspect=fixed;imageAspect=0;image=data:image/svg+xml,PHN2ZyB4bWxuczp4bGluaz0iaHR0cDovL3d3dy53My5vcmcvMTk5OS94bGluayIgeG1sbnM9Imh0dHA6Ly93d3cudzMub3JnLzIwMDAvc3ZnIiB2aWV3Qm94PSIwIDAgMTQ0Ljc0NyAzOS44MzIiIGlkPSJhIj48ZGVmcz48bGluZWFyR3JhZGllbnQgZ3JhZGllbnRVbml0cz0idXNlclNwYWNlT25Vc2UiIHkyPSIzOS44MzIiIHgyPSI0MC4yNTgiIHkxPSIwIiB4MT0iNDAuMjU4IiBpZD0iYiI+PHN0b3Agc3RvcC1jb2xvcj0iIzAwYjhmMSIgb2Zmc2V0PSIwIi8+PHN0b3Agc3RvcC1jb2xvcj0iIzAwYjVlZiIgb2Zmc2V0PSIuMDE2Ii8+PHN0b3Agc3RvcC1jb2xvcj0iIzBkOTBkOCIgb2Zmc2V0PSIuMzA4Ii8+PHN0b3Agc3RvcC1jb2xvcj0iIzE2NzVjOCIgb2Zmc2V0PSIuNTc4Ii8+PHN0b3Agc3RvcC1jb2xvcj0iIzFjNjRiZSIgb2Zmc2V0PSIuODE3Ii8+PHN0b3Agc3RvcC1jb2xvcj0iIzFlNWZiYiIgb2Zmc2V0PSIxIi8+PC9saW5lYXJHcmFkaWVudD48L2RlZnM+PHBvbHlsaW5lIGZpbGwtcnVsZT0iZXZlbm9kZCIgZmlsbD0idXJsKCNiKSIgcG9pbnRzPSIwIDM5LjgzMiA0MC42OTIgMzkuODMyIDgwLjUxNyAwIDAgMCAwIDM5LjgzMiIvPjxwYXRoIGZpbGwtcnVsZT0iZXZlbm9kZCIgZmlsbD0iI2ZmZiIgZD0ibTQ3Ljc4Miw3LjQ4OWwtNy45MjUtLjAwNXYxOC44NDVsLTYuOTI0LTE4Ljg0NWgtNi44NjVsLTUuOTEyLDE1Ljc1OWMtLjYzLTMuOTczLTQuNzQtNS4zNDUtNy45NzQtNi4zNzQtMi4xMzUtLjY4Ni00LjQwMS0xLjY5NC00LjM4LTIuODA5LjAxNy0uOTE1LDEuMjE1LTEuNzY1LDMuNTg5LTEuNjM3LDEuNTk1LjA4NCwzLjAwMS4yMTMsNS44LDEuNTYzbDIuNzUzLTQuNzk1Yy0yLjU1NS0xLjMtNi4wODYtMi4xMjEtOC45NzgtMi4xMjRoLS4wMTdjLTMuMzc0LDAtNi4xODUsMS4wOTMtNy45MjgsMi44OTQtMS4yMTQsMS4yNTgtMS44NjksMi44NTYtMS44OTYsNC42MjMtLjA0NCwyLjQzMi44NDgsNC4xNTcsMi43MjEsNS41MzMsMS41ODMsMS4xNiwzLjYwNiwxLjkxMiw1LjM5LDIuNDY1LDIuMjAxLjY4MSwzLjk5NiwxLjI3NCwzLjk3NSwyLjUzOS0uMDE2LjQ1OS0uMTkxLjg4OC0uNTIxLDEuMjM2LS41NDguNTY2LTEuMzkxLjc3OS0yLjU1NS43OTktMi4yNDQuMDQ4LTMuOTEtLjMwMy02LjU2Mi0xLjg3bC0yLjQ0OCw0Ljg2MWMyLjY0NCwxLjUwNiw1Ljc3NiwyLjM4OCw4Ljk3MiwyLjM4OGwuNDExLS4wMDZjMi43ODItLjA1LDUuMDI2LS44NDIsNi44Mi0yLjI4Ni4xMDMtLjA4MS4xOTYtLjE2Ni4yOTEtLjI1bC0uNzk1LDIuMTIzaDcuMmwxLjIwOC0zLjY3NGMxLjI2NS40MzMsMi43MDQuNjcxLDQuMjMyLjY3MSwxLjQ4NywwLDIuODg5LS4yMjksNC4xMzEtLjYzNWwxLjE2NCwzLjYzN2gxMS43NDJ2LTcuNjA3aDIuNTYxYzYuMTg4LDAsOS44NTEtMy4xNTQsOS44NTEtOC40MzYsMC01Ljg4NS0zLjU1Ny04LjU4NS0xMS4xMzItOC41ODVabS0xOC4zMTcsMTYuMTI0Yy0uOTI1LDAtMS43OTItLjE2LTIuNTM5LS40NDNsMi41MTItNy45MjZoLjA0OGwyLjQ2OCw3Ljk0OGMtLjc0Mi4yNjMtMS41ODkuNDIxLTIuNDg4LjQyMVptMTguNzgzLTQuNTUzaC0xLjc0NnYtNi4zODZoMS43NDZjMi4zMjgsMCw0LjE4NS43NzMsNC4xODUsMy4xNTEsMCwyLjQ2MS0xLjg1NywzLjIzNi00LjE4NSwzLjIzNiIvPjxwYXRoIGZpbGw9IiMwMDJhODYiIGQ9Im04MC4yMTcsNy40MDFoMTAuMDYzYzUuNTk1LDAsOC42NzQsMS45MTcsOC42NzQsNi4xNTgsMCwyLjkwMy0xLjUxMyw1LjAxNC00LjMxMSw1LjcsMy4yOS40NTgsNS4yNzgsMi41ODYsNS4yNzgsNS44OTQsMCw1LjAxNC00LjA2NCw3LjAzNy05LjE4NCw3LjAzN2gtMTAuNTIxVjcuNDAxWm0xMy45NjksNi44MjZjMC0yLjE2NC0xLjQ5Ni0yLjk3My00LjI0LTIuOTczaC01LjA0OXY2LjI5OGg0Ljg5MWMzLjIwMiwwLDQuMzk4LTEuMTYxLDQuMzk4LTMuMzI1Wm0xLjAyMSwxMC41MjFjMC0yLjM1Ny0xLjc3Ny0zLjQ2Ni00LjgzOS0zLjQ2NmgtNS40NzF2Ny4wNTVoNS41MDZjMi44MTUsMCw0LjgwNC0uNzc0LDQuODA0LTMuNTg5WiIvPjxwYXRoIGZpbGw9IiMwMDJhODYiIGQ9Im0xMDkuMDUxLDExLjVoLTcuNTgzdi00LjA5OWgxOS44NDZ2NC4wOTloLTcuNTY1djIwLjY5aC00LjY5N1YxMS41WiIvPjxwYXRoIGZpbGw9IiMwMDJhODYiIGQ9Im0xMjUuMTQ4LDcuNDAxaDEwLjUwNGM2LjE5MiwwLDkuMDk2LDMuMTg1LDkuMDk2LDcuODk5LDAsNC4zOTgtMi44MzMsOC4xNDYtOC44NSw4LjE0NmgtNi4wN3Y4Ljc0NGgtNC42OFY3LjQwMVptMTQuOTAyLDcuOTUyYzAtMi41NTEtMS42ODktMy45MjMtNC45NDQtMy45MjNoLTUuMjc4djguMDRoNS40MTljMy4yNzIsMCw0LjgwNC0xLjU4Myw0LjgwNC00LjExN1oiLz48L3N2Zz4=;strokeWidth=1.5;" parent="L8tGwODf9pzZJjYV8ij8-107" vertex="1">
          <mxGeometry x="28.370000000000005" y="13" width="83.38" height="23" as="geometry" />
        </mxCell>
        <mxCell id="L8tGwODf9pzZJjYV8ij8-108" value="" style="group" parent="L8tGwODf9pzZJjYV8ij8-42" vertex="1" connectable="0">
          <mxGeometry x="203" y="194" width="146" height="149" as="geometry" />
        </mxCell>
        <mxCell id="L8tGwODf9pzZJjYV8ij8-109" value="" style="rounded=1;whiteSpace=wrap;html=1;strokeColor=#0070F2;fillColor=#EBF8FF;arcSize=32;absoluteArcSize=1;imageWidth=64;imageHeight=64;strokeWidth=1.5;" parent="L8tGwODf9pzZJjYV8ij8-108" vertex="1">
          <mxGeometry width="146" height="143" as="geometry" />
        </mxCell>
        <mxCell id="L8tGwODf9pzZJjYV8ij8-110" value="&lt;b style=&quot;color: rgb(29, 45, 62); font-family: arial; font-size: 14px;&quot;&gt;Multi-Region Manager (MRM)&lt;/b&gt;" style="text;html=1;align=center;verticalAlign=top;resizable=1;points=[[0,0.5,0,0,0],[0.21,1,0,0,0],[0.5,1,0,0,0],[0.85,1,0,0,0],[1,0.5,0,0,0]];autosize=0;strokeColor=none;fillColor=none;fontSize=12;fontColor=default;fontFamily=Helvetica;fixedWidth=1;imageWidth=24;whiteSpace=wrap;labelBackgroundColor=none;" parent="L8tGwODf9pzZJjYV8ij8-108" vertex="1">
          <mxGeometry x="12" y="98" width="122" height="46" as="geometry" />
        </mxCell>
        <mxCell id="L8tGwODf9pzZJjYV8ij8-111" value="" style="image;aspect=fixed;html=1;points=[];align=center;fontSize=12;image=img/lib/azure2/general/Code.svg;" parent="L8tGwODf9pzZJjYV8ij8-108" vertex="1">
          <mxGeometry x="46.370000000000005" y="60" width="44.31" height="36" as="geometry" />
        </mxCell>
        <mxCell id="L8tGwODf9pzZJjYV8ij8-112" value="" style="shape=image;verticalLabelPosition=bottom;labelBackgroundColor=default;verticalAlign=top;aspect=fixed;imageAspect=0;image=data:image/svg+xml,PHN2ZyB4bWxuczp4bGluaz0iaHR0cDovL3d3dy53My5vcmcvMTk5OS94bGluayIgeG1sbnM9Imh0dHA6Ly93d3cudzMub3JnLzIwMDAvc3ZnIiB2aWV3Qm94PSIwIDAgMTQ0Ljc0NyAzOS44MzIiIGlkPSJhIj48ZGVmcz48bGluZWFyR3JhZGllbnQgZ3JhZGllbnRVbml0cz0idXNlclNwYWNlT25Vc2UiIHkyPSIzOS44MzIiIHgyPSI0MC4yNTgiIHkxPSIwIiB4MT0iNDAuMjU4IiBpZD0iYiI+PHN0b3Agc3RvcC1jb2xvcj0iIzAwYjhmMSIgb2Zmc2V0PSIwIi8+PHN0b3Agc3RvcC1jb2xvcj0iIzAwYjVlZiIgb2Zmc2V0PSIuMDE2Ii8+PHN0b3Agc3RvcC1jb2xvcj0iIzBkOTBkOCIgb2Zmc2V0PSIuMzA4Ii8+PHN0b3Agc3RvcC1jb2xvcj0iIzE2NzVjOCIgb2Zmc2V0PSIuNTc4Ii8+PHN0b3Agc3RvcC1jb2xvcj0iIzFjNjRiZSIgb2Zmc2V0PSIuODE3Ii8+PHN0b3Agc3RvcC1jb2xvcj0iIzFlNWZiYiIgb2Zmc2V0PSIxIi8+PC9saW5lYXJHcmFkaWVudD48L2RlZnM+PHBvbHlsaW5lIGZpbGwtcnVsZT0iZXZlbm9kZCIgZmlsbD0idXJsKCNiKSIgcG9pbnRzPSIwIDM5LjgzMiA0MC42OTIgMzkuODMyIDgwLjUxNyAwIDAgMCAwIDM5LjgzMiIvPjxwYXRoIGZpbGwtcnVsZT0iZXZlbm9kZCIgZmlsbD0iI2ZmZiIgZD0ibTQ3Ljc4Miw3LjQ4OWwtNy45MjUtLjAwNXYxOC44NDVsLTYuOTI0LTE4Ljg0NWgtNi44NjVsLTUuOTEyLDE1Ljc1OWMtLjYzLTMuOTczLTQuNzQtNS4zNDUtNy45NzQtNi4zNzQtMi4xMzUtLjY4Ni00LjQwMS0xLjY5NC00LjM4LTIuODA5LjAxNy0uOTE1LDEuMjE1LTEuNzY1LDMuNTg5LTEuNjM3LDEuNTk1LjA4NCwzLjAwMS4yMTMsNS44LDEuNTYzbDIuNzUzLTQuNzk1Yy0yLjU1NS0xLjMtNi4wODYtMi4xMjEtOC45NzgtMi4xMjRoLS4wMTdjLTMuMzc0LDAtNi4xODUsMS4wOTMtNy45MjgsMi44OTQtMS4yMTQsMS4yNTgtMS44NjksMi44NTYtMS44OTYsNC42MjMtLjA0NCwyLjQzMi44NDgsNC4xNTcsMi43MjEsNS41MzMsMS41ODMsMS4xNiwzLjYwNiwxLjkxMiw1LjM5LDIuNDY1LDIuMjAxLjY4MSwzLjk5NiwxLjI3NCwzLjk3NSwyLjUzOS0uMDE2LjQ1OS0uMTkxLjg4OC0uNTIxLDEuMjM2LS41NDguNTY2LTEuMzkxLjc3OS0yLjU1NS43OTktMi4yNDQuMDQ4LTMuOTEtLjMwMy02LjU2Mi0xLjg3bC0yLjQ0OCw0Ljg2MWMyLjY0NCwxLjUwNiw1Ljc3NiwyLjM4OCw4Ljk3MiwyLjM4OGwuNDExLS4wMDZjMi43ODItLjA1LDUuMDI2LS44NDIsNi44Mi0yLjI4Ni4xMDMtLjA4MS4xOTYtLjE2Ni4yOTEtLjI1bC0uNzk1LDIuMTIzaDcuMmwxLjIwOC0zLjY3NGMxLjI2NS40MzMsMi43MDQuNjcxLDQuMjMyLjY3MSwxLjQ4NywwLDIuODg5LS4yMjksNC4xMzEtLjYzNWwxLjE2NCwzLjYzN2gxMS43NDJ2LTcuNjA3aDIuNTYxYzYuMTg4LDAsOS44NTEtMy4xNTQsOS44NTEtOC40MzYsMC01Ljg4NS0zLjU1Ny04LjU4NS0xMS4xMzItOC41ODVabS0xOC4zMTcsMTYuMTI0Yy0uOTI1LDAtMS43OTItLjE2LTIuNTM5LS40NDNsMi41MTItNy45MjZoLjA0OGwyLjQ2OCw3Ljk0OGMtLjc0Mi4yNjMtMS41ODkuNDIxLTIuNDg4LjQyMVptMTguNzgzLTQuNTUzaC0xLjc0NnYtNi4zODZoMS43NDZjMi4zMjgsMCw0LjE4NS43NzMsNC4xODUsMy4xNTEsMCwyLjQ2MS0xLjg1NywzLjIzNi00LjE4NSwzLjIzNiIvPjxwYXRoIGZpbGw9IiMwMDJhODYiIGQ9Im04MC4yMTcsNy40MDFoMTAuMDYzYzUuNTk1LDAsOC42NzQsMS45MTcsOC42NzQsNi4xNTgsMCwyLjkwMy0xLjUxMyw1LjAxNC00LjMxMSw1LjcsMy4yOS40NTgsNS4yNzgsMi41ODYsNS4yNzgsNS44OTQsMCw1LjAxNC00LjA2NCw3LjAzNy05LjE4NCw3LjAzN2gtMTAuNTIxVjcuNDAxWm0xMy45NjksNi44MjZjMC0yLjE2NC0xLjQ5Ni0yLjk3My00LjI0LTIuOTczaC01LjA0OXY2LjI5OGg0Ljg5MWMzLjIwMiwwLDQuMzk4LTEuMTYxLDQuMzk4LTMuMzI1Wm0xLjAyMSwxMC41MjFjMC0yLjM1Ny0xLjc3Ny0zLjQ2Ni00LjgzOS0zLjQ2NmgtNS40NzF2Ny4wNTVoNS41MDZjMi44MTUsMCw0LjgwNC0uNzc0LDQuODA0LTMuNTg5WiIvPjxwYXRoIGZpbGw9IiMwMDJhODYiIGQ9Im0xMDkuMDUxLDExLjVoLTcuNTgzdi00LjA5OWgxOS44NDZ2NC4wOTloLTcuNTY1djIwLjY5aC00LjY5N1YxMS41WiIvPjxwYXRoIGZpbGw9IiMwMDJhODYiIGQ9Im0xMjUuMTQ4LDcuNDAxaDEwLjUwNGM2LjE5MiwwLDkuMDk2LDMuMTg1LDkuMDk2LDcuODk5LDAsNC4zOTgtMi44MzMsOC4xNDYtOC44NSw4LjE0NmgtNi4wN3Y4Ljc0NGgtNC42OFY3LjQwMVptMTQuOTAyLDcuOTUyYzAtMi41NTEtMS42ODktMy45MjMtNC45NDQtMy45MjNoLTUuMjc4djguMDRoNS40MTljMy4yNzIsMCw0LjgwNC0xLjU4Myw0LjgwNC00LjExN1oiLz48L3N2Zz4=;strokeWidth=1.5;" parent="L8tGwODf9pzZJjYV8ij8-108" vertex="1">
          <mxGeometry x="28.370000000000005" y="13" width="83.38" height="23" as="geometry" />
        </mxCell>
        <mxCell id="FVwxtAoVsvsOTZbEhbbp-115" style="edgeStyle=orthogonalEdgeStyle;rounded=0;orthogonalLoop=1;jettySize=auto;html=1;exitX=0.5;exitY=1;exitDx=0;exitDy=0;" parent="1" edge="1">
          <mxGeometry relative="1" as="geometry">
            <mxPoint x="415" y="691" as="sourcePoint" />
            <mxPoint x="415" y="691" as="targetPoint" />
          </mxGeometry>
        </mxCell>
        <mxCell id="FVwxtAoVsvsOTZbEhbbp-172" value="Network" style="endArrow=none;html=1;fontColor=#7F7F7F;labelBackgroundColor=none;strokeWidth=4;sketch=0;shadow=0;anchorPointDirection=1;editable=1;orthogonalLoop=0;comic=0;noJump=0;backgroundOutline=0;metaEdit=0;fixDash=0;fontStyle=1;jumpStyle=gap;strokeColor=#7F7F7F;endSize=3;startSize=3;jumpSize=3;rounded=0;fontFamily=Arial;fontSize=11;" parent="1" edge="1">
          <mxGeometry x="1" y="30" width="50" height="50" relative="1" as="geometry">
            <mxPoint x="190" y="740" as="sourcePoint" />
            <mxPoint x="190.42000000000007" y="130" as="targetPoint" />
            <mxPoint as="offset" />
            <Array as="points">
              <mxPoint x="190" y="390" />
            </Array>
          </mxGeometry>
        </mxCell>
        <mxCell id="VYM2PKjQV5y2c5IDeU8M-24" value="" style="shape=image;verticalLabelPosition=bottom;verticalAlign=top;imageAspect=0;aspect=fixed;image=data:image/png,iVBORw0KGgoAAAANSUhEUgAAAQwAAABZCAYAAADLuBpjAAAAAXNSR0IArs4c6QAAAHhlWElmTU0AKgAAAAgABAEaAAUAAAABAAAAPgEbAAUAAAABAAAARgEoAAMAAAABAAIAAIdpAAQAAAABAAAATgAAAAAAAACWAAAAAQAAAJYAAAABAAOgAQADAAAAAQABAACgAgAEAAAAAQAAAQygAwAEAAAAAQAAAFkAAAAAvk4j2QAAAAlwSFlzAAAXEgAAFxIBZ5/SUgAALM5JREFUeAHtnQecVcW9x8/dTl2agIq4gKJoYiOC5mlEDSpGDdYYSyxRsTwf9lhiJFGjMUqsqCRGnsbow2iMJcaIEWOJSp4FOxZYUHpd6pa7931/c8+cPffuuW132eXJzH5mz5T//Oc///P//6eeuZ7nnOOA44DjgOOA44DjgOOA44DjgOOA44DjgOOA44DjgOOA44DjgOOA44DjgOOA44DjgOOA44DjgOOA44DjgOOA44DjgOOA44DjgOOA44DjgOPApsmB2KZJlqPKccBxIBcHEolE7JJLLhlWVFT0Q2D3Jr4Fzzriiwnf9utf//rvuXAUml+ST4HEsV7xgg1blRfVxnMamH7lxQnhXOTDpsdz1RcFb9Kemr+eyhP8xW7/zCub+4VX0rW3l1izzAtoCscVVl3h/Ki6c8HZfFu2C/WtLfNqJ+zvNdi01j4nTJhQsmrVqtLKysoEz6A9wktanPy61tRh8fv4DF9sPeCvJb8xjB8h7NLY2Di0pKSkF8I3e4899qg+7rjj4mEYF+5YDlx44YW9LrvssiuLi4vHl5WVlcTjcY93Zojq0qWLt3r16g+JdIzBWF8/aHif8qIzG0sTPbBchiojdVBkpdvGN/h8rPRN0fq0uB9NanOovE238N398sVFRd6GRGLtqiOHXO79+fPFE6Z7lTVF3tndy7wRXo1X373UluRZ43k23rgqmR7EfQKLLMF+sVxwNl/lGsFR19kr8tZ791P8rz6KVj2mTp1aPGPGjO+Wlpaesm7duloEwOBDUb0Ybs2aNdUkTMCnKLUByvMfwnNOeXn5yAYc+EwpjIHQC//NJLyHNxy6+OKL+1D3L6HjFLLLeN+Loe+KY4899r8fffRRZzTy5PnGBLviiit6YyAeRmZG19XVeciNZCWosra2VnGrSkF6WwTyGmHEvdg2ZZ43FiL6NCSShDWRlyQjPW6Ja4v0xkSspqKh4VrhrKv1OhWVe6NKSr2D67P0u5Z/vp2AgUmKbDygLy09HS4cFyh6LFyvEWwTgzFt2rSirl27fqNTp07H19fXBy8eRfXkUdwaevxnbr755jcszYU8L7jggi0xANeAq3dYqBSWUZLgkfee4hqJrF27dix1noltMT0WQtmX+m4aMGDAP3l+VkjdDnbjcIB3M5F3NHrDhmT3rHfHezLvU6OMiooKD0NSvjFqz8tgFBfFREe8AW1rQIjb0xUl+9WG8uKYqbisHD1q9BrjTAga22xSkH+LVC99cYt7+ww1wV8ahZeRCDuUuhNpmqO2yGAgSCciXL1ljMLOGg/wBxUuW7asGMM1WIZEtMjJcKg8aVsRdQbDcKXj/tF57M27O8a+T71HfJz3NA2q7iV9PvIygvBiUUk4Nm7cuBJGmJ2YuuxG0iiej9xwww2zlF+oy8tgFIr0aw2faci0kRrNCKAUhf3upZde2p9FrIWFVHPWWWeVIjAnWeXPVbZ3797xmpqaWTIY8pT1mLrIeCxGKOflKu/y24UD3+fdVGjNQk4GA/c88RN/85vfLFcEZzoXGQvkZkTPnj1P5B1q2jsMw0KwUcalRQaDAbZzmzoHEIoBCMShhdLZvXv3wzA2Q61w5SrPlIQBZOJJ/ESEchVlGwl/jr+AaVN1rvIuv104sCMKb6yEjAV+Le/3uZCxCIj4+c9/zhJg0SVMUc4HbpjkgLI1PFu8FuUMRsDeTTOAsuolV/Liv3fvvfeGl3jzIfhkygdzWQlYLifBYxHtSnqj4ZQdyZrGd1h1/x+MSVtPw3KR4vIjOMA7qQgnIxdrea9fhtPCYfIaNa2Ulyy11rkpSaEcbD3Pc9bIS9YKdx0vuNICIxi7zpo1ayTxV2xatie7HXsyQhhJZ2I6BXBq9WUFzy1yCc4dd9xRC+zn2fC7vI7hAO8vXQITpGUcMfCu0+E13WyWlm9rnMHIl1MWLncnbSELfurdouTqCZbgnyN8pkaP/jsfCMID8HkZDOCOxfdRWQREOGQAXmHk8GNtxWVywMUYypayAGpaypZsrKqqqkHTlUxlwunsyvRgUa0ftPegVzO9ISOkdcAsBtf8yZMnp6y+sl1b3L9//xQ5ZC2l3o5oyC/beuuttwJnJxb0ajk3Mp88u3sfrtojvYjRUX8USNuOXfFl0MGufGK16r/llluWphTII8JZh27g2VpnUoTPV87V7FAshc6F1JkXX84///zyzp0796PKnvgu8KZEtLEFugqci2699daVUeTY96E86lInEsOngBI3e/Gqw2YsXLhQQOKrgacOm6URa7HWt1gINZ0J7UiAW+8lFXFQoinQhKUprVlo3VFDjqTmu9kl6dfuuyRJCpcXJxqHd3pizpwJL3r9Y43e74uKvTENmeW+WRvaKqEUFYhv8C645iDvtrbAqRfH+sD5vLxbpMgIkTUYx4P/EV70Frxgs/hIfBqCe/r111+fdQFy/PjxA1GwPwG/p8piJDyU7UZw1VLPNdqOkwD5hmTMTTfd9BxxIywcCBoM/PWU7Y4gxoGpIO955sG3SWBJj3Ss3n8DOE2B9oHG/gB1I8xuvFmYWw8dq4h/gn+U9v4RXI34ovXr148B5DzS4/iE6kMxf8k28nRwHkB8PHh35FmmtpCn9ZSnVF645aQotPcYYL4P/3YgqSeotLtUQpoUQfP8JeCZQfhB2vs6z6yO94JtqjwVIG0zDwRXd8KaEjaCZx3xlfhPUPzrJk6c+A7pkcqmMxPA6F0eDC2DKVtJuU7EiwjLAKzFL4S+V4D7/W233fYJeYHDAA+jbZeS0A+4erxOdGqr2zhw1OLfxWt3JGx4DT2kDSdvK/GOp2SrHjrUfhkoaZdGKApfDl/m88zqwhVkBXSZPgcixaLNuVPBS53Fy30c5R2ngzj+C98dxR9ObVkNBmVGIwTbqwx4pGRSmAcwFj/KRSnK3p1yh6AkPSiToEwMQ6aeOXK9C8XqzOLqZcCfDYx69hIE346KbHWaWvUHt5R5OKOX53gu+eCDDzR6qaLsGMqpTALlUI94D6v7R0P7FGjRSMEIO3DiQ0+VE2IZHEYUexD8De39Nnkx6k7pgUkTqI5MVwEj5TkJ3L+l3A133XXXMmWmOwzQrhjIW6l/nwzt6Une1vidadPj0PEuPkUyfNqOoPx1wO3As1i04dJ5o7YNBs9I/I+ZSt7QrVs3GWczcqFsT/L3h8Yq2iIWJbtQn2jiGlXsyTO9GTahyOeBrVc7Z/ukAS8ifm1aWmQ0UggiIV1ikgMpr6vtmWJfPCcwYyj+ZCmfhEwvHeHpzfNAet4umWr+yU9+UoliHUy+TuWaEQtlXmTI+xFP9WxZHQZJ+RQ1B8eM8plIRKnLL7+cHbuedyHo16AQ/aC1xC9naIZeY7D0tG2AhmJGCAE20sPoY6ofXLuT+Dt8V+BNWVtA8DbMgqx2jl6ivftQToph6FVdtm7BWprAW4TvjhG8mIXcu+Bj0FNbnExBhjF1uJc2jbLtUZ7FZ59KE17qDOhRmhzKXgZt5wD7MH5nH08gORaH6JQTHmCKwdUbQ3UzZe+QwTGZyXxb1j5tlnlSXunpXuWLhDvCpcPG4GEkYHrZgKj0DBfvWA4g1Bpmv4MQTcdwGKESRQjb/jwGZaJOykbenuF8hH8yAtimo0kZLeq6EoE8FWEP6NMogPqk5F9B6+v46XidJF1Pe5SeVebAJcE9F7geaoPaTnmDU+UJF+uIOqOEfQk/AFxn/yh0AEf6ItL/jX+N8Gf4RtEkJwViGiS8PyD/p5oSmgz+waPO5P8I+JF2nUftIa51hmd5F1MAe4z428TrRQ8upT3g0DRrLDA3AV/hG2BjuH1c88h7Ey/ezMWbPCEC3tN0EbizMRrXKA3XCMwG6qvluZZ4+gKnpnEmj+e6NL+WeLM1FtI24JUXwIuH+biUxuZTYLOHycsOt55LCEgRwqctscmETS8rxSS8M0K9lxYL02uR8JN/IOlVKLNRNp4fcHrzeZ3iTIePiktB83EI2xjqOk+wUkI5X4G+pM4zEPp9gDkCfwyKcBBpB0D/FMo0olAZjRf56v16SbnAO5uyF/L8HmVPRIn/AL5F5557blfSJgHX0+eJVbrl1HMl6fuhADqDMpbngcCOxb+JDSYr6aQg4Dqf4f8BNo1RnRYlDwXWJPk0LCf+fcj6IfWfTfgU0rXuMob4kzzrdtppJ9FsHAo/EJq1XtQZWgxvfL7Mo+xplPkO6YeLN8CNIu0MfLXqsk5tIn6OjOJee+01g/xjKaMp117AvEFZQ6BYhSFcQf6V5I/guS/4jQeHplP7AfsPv35jUCmzGrhx+H0EqzLAjQV+nq0/2zPji8tWyOVtfA5Y4UYgXuBlzuI51BckCeHhAwcOfAIqtLYQuB49emhRTesXJk1CSJn/xvBswFfQawWwrQno+xTqOBP8nWzPpB6cut6BtqNYsJwdgX8haa8zZfo2bdOuSUbn4/pfcI9li/fLEODDhBOMbi4QP2zvjVLIkC6i7gupWzDpbi5rAzPJn4JBHKVyhK0CXQSw1lTUw/cA1wCeprzoQJlewuD+C/7ZBV91xWLkIoz2y3xjU8yXvKYAMBpdnISCDtJIQU4GGBxzqO9IpkEzgUkiN7neEh73sdCs9ytjOlh0yUNDL/LOAPfLPPVxoHG0vcaG9aSMFjG/YMHyw3C6wtRVwlrNCvFHOIHVMw7uj9gxeicdPp+4G2Hkw6UwTNCXhBM3Xpj5vlbjH5Hwyslo8MIPxA8O1wqMPvgZjnCOEIyEBIXTUPrxMFyusFXCLHAxaBkmGiys6iKuXZBTMhiLAN2vfvWr1/D+t8RBchCQUINLK/9npRkLwWj7TzJ7NO0MD4WIxh/j6HyUsTC4UZBq8N4I3Erbm4t+aP/ORRddNFRA5OvtBm+YuNKGMDoLzsMYZP4/pkZ1HHTTmRnT4y9evFijihPwBsJXUIV/FmEsDIz+gUNG4bfQJVzGwUsNOUYwyhjiJwUP4Q07n+5wUjicCkwO5Vus9y0uGKbIhTceB1CQOgTiSYaPRtAljPTQXVDa74fn3wi9Vu6PpEczXwpqGEr8cXo600PPmTOnTYhkB6FMSgZ+LdIZnOpFEfDJGLf3W1uJcOFeQPnfisLFPR66MEY9sVEEKQ/xRfg/RcGH01BIraW8AqxJBoeG/hXwcqQSSF+DX2rzZVCA34WFyN8zCtg3jCsqDNz2wOt7DZPtG/l/g+dV3mN4ZBFV/FHoWab2yIk26ND28DeigDsqzRmMQjmfnN4WWqpV8CjRFwjP0xJACZLfg/0Aw2EWBoUcQRtK3hg7usDACPaR22+/3Qylq6qq8qLBV9iMsBzy0bacjo0bGCkXCoHtaHwWpWg1d4QP3K9lIoB8GQydsQhAqHsxPAmG7UFGWoDpwjJgZ+GDHCkofkcl0HZtL2rXJcj3eX0YvH6aHZRnmdqMpZ2Z9GZn8c/SJtyENU2zH4UFeNMDjEC0XjOH9KaGeV5n4tukw1r86entEc/U8Pao29WRJwduvPHGlQjT01JMKZSMAoI5hB5tlFDo4BLpR9Dra+fCzJsR1lclrDzDAphnjZnBULpi8A6wQit6cEsxZjr00+q6hBeav8pEAfVtQV6w9qb2kbaIxcuVmcrYdKY4dcAvow4dVjLJMh7wTIudnqZKZE2Bv5/7o4MAhrTulDkEHv+ZtSBzqCx94Rk6tjYF/H9+WxaAP5hqhPPDYY1AgNfoJuAh8VLKBp1CGL6jws5gFMr5pJwVWqq18BKifyNMr0uQJeQSRtzp+oey9EKYT5QhkSIoD5jHtf6hfLl8pyQahmdzLKJpL1GnFcNgGxjR5LcvFy6VIQztGXGRp63PsNxK+XXNYLPtwwj0Mi6CSyEefMGQgqnQq/DxHHC+IV7b0YbaK/5q5Eb6vqQ/W1VVNQFjrROgxlEmHDZplNPx76YhjQ+b4ZHSBspK2sJtNcX0jjvKNSOmowhx9WbnAEPWagT2ORkLhF7TABmG0eedd552T3TXwUAJtG9QqoH5J0pkV/Y9hDt7BXnm0sNSbaq1oGgZ9YcXIfPEFg2GQmTUCLLq8WGF15pNWXpvH4UZsg0seYHc+1WlbB+xQPo8W6xH0btfDOwntNnw1eKU0VCdGI2fMso7VyM85YE/4HeIRcxmkt9s2PJZnjLGgeMdxqEvo/EMANsxEDCuHev8/11VWFTbsSXqQRGglxCg2TIYEkh0VDdkjUOwT5YhkVMe7h8I9WcKFOpy6T0GSQq7Am9Q+/Xqewl9P5JR0QulIxM87V5BXvjwkoxAf7Y3I3cywnhOO+20cujW7WGGf8pTO1D86jCcwnfeeed8dnx05Fx3oZ5GHe9otBFut28UdBZlgF9+oc1XXGH8lpwcrfDzMz54v5pm9QVnmIe18HtxeiG/3vTkdok7g9EubG6bStjxeBthecNiU0+H+y+E0mxxShEwHvqY6flMXz/asi19gl8fRJhbuYRDBoMeWLeCjaKX3+jyRP2fUae2XU0TpDwo1Rb4b+ZqU9++ffsAM8yWFTz4NFp7N0PZhNY1mKZMYUr3Leq6Gh7rVKUBV1kM7ADav6uP62OlWSfaqGsX3lNvm5bpyVRvCHj1kVtgMCi7GnyfZirTEekb/QV3RKM2ap3B69yotUQiZ9GuBmX5O5krrdASVs9k3qPS8NqOfBOf4tpqDYN1kVqE+iVfGUwdmh5R7zl8hj40pdKNEOFMxEx4MN8qveggrkXLY3NVh/JJ6b9tlVojBsLzUPjACGfCoePoHI66nvKT7CjM8gBadMdIDB58wGhkPsbLoNEUEdpGkp5zSxa4H4Knt3BaR/l50NjMmNm2W7hsTwtrn8Dqs/pgzSZb2ag8ZzCiuLIJp6GcLyBUn1nB0lNeAoHQNaIAL9Mjfp7ehKqqqvSkFsU1NcL9EzokzAaHFJD6t0TxHuKDtMGZEOtINyc9OazY/KOvTGXS0x988EGtNzyLEgZdOe3XbyYcD97T0uFtnHMU20HvFfhusMnwDHpF90P2IBm0b8fW6Vngify4j3tCAI99LJw8DWqf/xuUx+LzctIfSzco0PpLcO5taUl/slU7GphTocushSgfOrV28QxGanU6fIHx5JFTCqndGLOuvL/tC8QRgAfbU0GKC2TnQFMHkB1uI+VyX8JchO8FBOybKGogYBJg0qpZkX+hNVVL2KUE2RxH0GezKHgvMNepXsEjhKp/d2h6ldOJd5H2JFuwX4EvjmJuSfx7wJ/LU8r4QDb8ufKo506E/3iUapCMlRSBNK1N3IbCf4v4Axi0OcTrURD12qMIXwqt22s0JKd2wqu5wN5j6yPcA/9r8I6nDZNo07P4pSxaxoEtZtqwE/nj8KbN4NR0pg74TzCkYloCg3gvsMdT7xbiiegjfyvynua93QoNT5H3FbzR3Rb9oEP3ePwn4f54Q4rwUu5DvHjczFm4ZhlpCVwDkBg0aNBsm6xy8uC/GlqW8w7f4FyNjvdrFPRKPvdhuBGG5Wa+zw6cklgSEaTHecFLpaxhhyC/S96r4bRCw1ahspVDOfS14/3APIHwB72tFAnXHyW4FtreZrHvffLfR0jfJU2KOIj8OOGkZgi6Bc4X7EuhYQ04DQbVje9GffrSVdvP7+LfJvNtDNZknoGxUBloWg/ceHZE5loS4J3oaiB/J2i8k/IzWVR+Cbinef4T/NPJ28NfO7If2z1LXKMO0ybgdEnQ1fhGSxt4VUUv6PgFzxnExY+ZxGfyvA7Y/j7vZFyk0Fo8vTDqYl8hIk+PnI5plM52vC7DZcv4Ya2XPMmI6G1of5vwfSDrlhMhAM5g5MOldoDhxQa1EG6KBKlNAQTpTRR7Bi862N9H0HTo6K+sc2go28yF1zByoG9WNipBSouwXQyuv6BYEnIDJsGnx5JC6kap/qRvTbhUab7ilNFTN5O7ME0+XFS1QRrTrscQ/jOpQyMAky4cft2ipx95A8noYusWjT6sfjbhDAyavjZN53WRlEplVBa/G+VG8dTCZrkMKmUNHsIf0N5rwwvMGNMGyk4B9jL8WgwCj+R0wKdNo3p9vLcN9JbJ+Nj2skUr0M9JP4n2vaRIlAvzKio/lJaAvn/jp6ndtpzq03vCaeSj4+dr8ClnQEI4UoLNXlxKros050C6eDWHKChlxYoVWiwrpbcxPZaexDshSFnfDTB/xEhoyG3KIQSLSXsmU+VVVVXCWyIBVh16yiMoKQtgCFIxwlxh6REM8ZTzAbYODNcXKMGplLmetBqf9qA3s4IpBROdElrCc4A3Jx+XLFmiC2+oIpUm6EyhydaX/qyurn4UXAej4C9YeilrwEg3SgF+Y8xUh3pvwZJ3BOsWD6PcgcFVIWB1kjYmXIJVWeGRAdFTTnnCJTzkn8QI5X9NRuifjPbs2bM1/fgB5d5RmbBRFV/k5VSP+KInBugRcOrKxIzTSvLLqV8fABo6KCcDlLRKBmPqP+hbCq1XgXsWox/DC70PtU1ejjbLuOe1PJEXUCoJLtbGHNC9mW+yZfpbhEtnHCTxujo+6/cHvOy/IgQ3AduTcjrtOCPHHJTrWBPTOdbcCXgNx2WoJDSzCQZNIq7PxO+CHt3Jiaw16LrAV+fPn5+U8AAyGfB715/y8dsDwJ8E7H7g24ZcnXpUW9RzLafOT8D5NHP3x7kaz3yiPWrUqEYuBn4bo3M3ZY0DTsbJLCzyzOq0cwHAWyj+IeA+gLInULcuEOrLU7ItnLp8ZhHt0Idnj/A7sf+YPn16ZG/KnP59rhvUPRdHUlbz+oHg7MxTN1fpV9F138ZHwsPo5GnqrQMu0vm0PcMHgi9yK5mu6juK8juCR2stUnDxZj3xhbxHXfTzEO+v2e5WOnIMxFTg9Sm77kqRoq/Dz0qHC8c1ImVh9SDachGwWmDtQ70EY1oQXUj6dPi3IFwmU7hJUjJBkO4uAW5iTltfAtyE+esT4uSjzkVoN6IU4VyDQVg1adKk5K9Ab+Rm6tQlQ/ueKKguMYaExtX4lZmmatnI0RWEKFIlIwRNRVrdDhYau8CPSvjRDZwN8KiG0cWy9JFONppam8duUSdo0AGxcvGGBWzVn9HwpdeXt8EojXmT6hsT/evbeEieTlB6vBgKOS+3rCgR/5a9NZzPc+6jHz60QdPMvFqQjrVlcY3gyphmxmvb7tbwllHiSjkOdAwH8pqSsERSzOeQTJRiusfc2gwzkEWHpNNhx8qsiSaHsKYIKt+k2tbkmCXpUHr6vNXgKYqhn5So9X82nk+cYp07a95FHXzpzbk4U082PP6yFocFCHGi2jcyhiiTAv4wHuhntJa6IEwa18t7iWKm/Y18xhFusAs7DmwuHMjLYHjri1+qKWk4PlYSKysp5ldBcrk0CyLNbpEDD1fCsjBWVN+joXS+cGzbx1u6YLl3FcHbGrlBzdO2ulqRPitNaxn7CYYq1q5SibFwpMpiBWhSoYKM+vVeCSOcDwB1znHAccBxwHHAccBxwHHAccBxwHGg1RxoNnmIxPjQyuFsJP+IwXw3rzGRXJuwX9UlVwKaimmdQJMWPeVsPlMLP55M5ycizVSlKT2VFovH/MBKbK23quE6b1z3pYnnvUpWF06jjt2pga+e/Hr8KQex5nhMxT6cXUuxcJbOpnlTsrzNT5Ztag9nlKj7j7HvetNslns6DmwuHLAz+OztTXjbeSUVp/CdWyXLjNlh2zqXVU9v3dp6r2vj7aBe6q3j9F0P7zD+H+hFnmlsawJC+NT0Tvjl3kf8dwYjxBoX3Dw4kJ/BKC6q8xrqNni18UqPLQLbSW98FqGhMZYiY95qry6RXGzlhjpWJmtJ4SdkNj4FKTXIYGhVNNHuNaeQ4SKOAx3FgfwMhqGOnt4M1pMj9vYhOENd6dOF9iGm/exkRHs4FVmy2267deU7DDPE46ShYU74O4aIYi7JcaBNOaDTDM5t4hzQPRIjRoz4BacC53My7zN5vif4lG8DqjmSfdgmTr4j72vEAWcwCn2ZGQY9haIpBJ4LgPtxlPcYviPQ73HoOwBdNdeHI77dSTuzEFwO1nGgNRxwBqM13GuHsroNGwOxN4Zhe75BMF9N8g2AefKdgyg4kMtetm8HUlwVjgOpx58dP/LggFlByAOujUC23XbbCs6pH8doIhIj6eb3PCMzXaLjQBtzIFoK27gSh67lHGBkMZjSB/G1pEGij1zkrWP0EQPmmFNPPTXnVfa2jHs6DrSUA85gFMq5Jl0ttGSL4PlM+2h9Xq1piEYZGIsvQTSLp7Eg5Ct9EHcujG5RBa6Q40ABHHAGowBmtTfoySefrCviTuCiFFO1blnC/R1/N7skq+1Ig1FGBaOMnNfsGyTun+NAKzhQwDmMVtTydSrajmsY/fr1+y5GwlxeK+OA4WCg0fgGo4qnYOk5+F5iLWnYi+K9tfjJXZCfKi2T47KUIs5ydOHmLQYuZbpSy1wrwCjFdB7EjXXiglhzUI4bsUw65z50S5Tq0g8ZredXwdbqshrok1ETbcVs+2r8tVZ5SotymkJdeeWVfbjdStfdJVi4TWyxxRYaLa0JXyRzwQUX9KDOct2uzQ1YMQxknO1kwTRwi1UpN2MNgI4dKKeLf+cuWLDg3SlTpphVYFuv6oIn+i3WPtA9DB7pHk3xajFTvE+pfy5XJK6bPHlycr5nC7pnRg44g5GRNRky2ndK8iM7ivD1WRfEzuSw1gJub3qTvCFSAFFKWDdPH0rwtgyUm2SMhS7mvZmt2jEkrEcRU8B1v6QcuMwTOPO0/4BPoGwPEL8C2FNRvp+JBtJltcoxZhPJu97Cpz/HjRvXHcX/G2dIBpAX54eRytj9mUF4PD64ag58k8B7MDhroaGU9s3FeJ2FAfgK+i+DvpMxFH3EH8JL+VWz4yn/At443SwF7AGU188cjsY46NfXbbbKyPS/VVlZ+RCwU7nG7qsg0wUycsBNSTKypmMz9MM7CPhou9jpU/M2iqTvWOT0UwOmZ0SxdKlsV8HTA3O9UGankQDwvcDTg6d+L6QgD2bdeF3p19CF8lsR1jmRLVHOXjx1l2dGt9VWW+niXxktXROnMvoZQfmUzov26O5L/Sq9YHT2RHeMbkfa70i7EPg+unFbnrh+48MYTlXM6EQ/qnQPsFPJO5qk7oLTtrT1pMl6DAdmIrB/wQDvTdy5HBxwBiMHg5plt9OUBIX+IYoiJbG7ImtRolfsr3Qh6NPoJfUr7QGJwO9cU1OTU/DBqcsug5ujVUeUF0zY+zC6JPg+v1L97oXmSQEcCpr8mjmgKjXAfZviYL0tQ5tUt36xLYWztCvAq1kSMGWkjee5v+Iqbx1putHWlMfQbg3vppB/Er6zDK5g4U1w4zf5pqjw+LiGk/8AP0KU8/dZbZ2b67NJ2jZXDhTa7qZRbaEl84YfPnx4KUJ+lARdDmWQn0vwNZPAP26YXo2ePG8NBmEpxjZk7Wdhop4ohkYlX6Kgc3h+jP8Q3B/g3yP8vk3jOQ8fKL9oYApQhwJeF3W1PrCFuIK4KD7gB9LGvXl2hpY47VgOPYvwq/GB9SD8UwgZDaxu+ja8I2054UcZZZzJCONE2nALOHRbujEywk/+YJ7X6qBcIQ3Z3GBThoGbW+M31fbut99+ugp+B/W+1hF+b+7cue/YuJ4I+MMIvRY/Nc1QL6rfFNmHK+W3Ramrw7A2zKLoIqYt5xGP7Cy23HLL+EcffdSFXngCuNSjmx6aYbumPQ9OnDjxLourJU8WGVtSTGV03kTPldD0O5T+aeLL4NOWjBJ2gdaF/EziWPKPI1/THjOqID6H/LPhx3Mq7Ls/sr5xN2UeIj5C8PCyCHz/MXDgwMNJe8ICumcqB5zBSOXHJhFDCX4AIebHgxBqnbNYhdC/4P/WRUAjOwWvs9swkx50d39orR51NwCG4yMNBukJDEZdgKR5IMZ8Xh+0jVOWel8thIL/DZT0kubghaWw2Bljh6awQkDDA40C9ANI41kE/QNtsKMKjYqeZ+elHwbtStrfCzrNyALaSYqfyYLmtPQKMZyfY2CuBu+TwFTIwPDsSfmDgHUGI51hfjyyl8kA65LFgZSZdtuzhDn4YIT42wh7MDQmrJ/2ez69NikNsI/6Pa9RbuI98d/Rb2Ckw+cTp9w3qWsCOCpkLDBGMhYrCZ/Xhp/S58PFFBjRgXuCbdhnQ8YiaBLpg1D6vaX4choR4f4SZSyUIUebXsNIzKW9Jk6bxfMdGKHp4z7nIjjgRhgRTMmaVNDsOyumyEymAociuOotTT7CHEcJ/sXZhtlRBVCUPzEC+JlVcMFQZn+UYVuC+oWsvB3GSrsSN6BsQzj/YIb0UiZwXUL9bzGszxtXJkDwSqPz4WIAIxowWuLDi/wg0ZII3PoVt2HQOdDmyXDgn9XII+q3XAVH+moWYZdgjIbacuDpBe/7El9q09yziQPOYDTxosNDKKw+X9dvhXazxDB6qGWIPU2HpBiKd161apXNMk/gFxF4FaE/UFuHlJXB2AXB/xY98cdRvXEKglCEui6TwcIImSG9dhOo+x7OSmitJNl1h+DbK0hbVJUWP+ZF1cl3NDo6PxDDGRMP5PSkPZeSfq7So8qRrjnLdtY4C4a6dBClaxS8S0vb+3YMyYMDG1FtUPoRCOzOCLl6R0MMBkC/bXo9PeE1pMc4gZlCJHByfTRvlyNshuOU+x6K/xRJea0ychHPsdTzE6twGtKD4zXKT8TorBPutnD+GkY+XEyHWUv7I+ngRCisK+mhkUjYAT9U/CjEAV+CATHzmULKbS6wboSxCb1pBH5/BHZAWMgJa3twGylDOD1Mdnq6RhmkHYTya4ie02CwY7A9+O8UHnmtiaBs+gHjG9gV+TRcVweGdXYkUvsxosXkNTuwRpvswqjaZayJ+CindsoR1xkOG8Zm6tbp6B0kA7SZ/3MGo1ABSMpWoaVywl911VXboKD7AlhqhVmFrDBnQyCYcBkNsRmR9ODMwSF8d/Fhtm8l9IEb5XV6sq/K+fXVEb4LY/FMtnpbkZfPYnvenIbWBhR9TZge2qFFoCd46gwGj1R06XG/rAzGQvyCMC4XbuKAMxhNvOjQEMq9B4K6a1jxiVsFzos2etnAcChM+eM4in03hZPzlQgsfOB2I8n7alQipzqh4TnidxCN7NENIP9Qumb5lA12dyxc+Ll48eIK1mK0VhNOblUY3jUwhVqhkZGcjAHhYgzJLWyf/qtVyF3hFA7kY+lTCmz2kbaT84CVjAJ0enF/lLW3FF1OC44o1WOk74Lgj2CNYs+wV5o88HuRPhJ/FLDzrdIQl/LvwTmNEUFFaQGmIqcDryPUpvv1jcUcjMVV+WyhUr/WFOJSUDnRDs1DTCTDP0Y+g8kK2pkBTMl5c5qdkzponwvd/GB2crQlPuBHZ8HvslrAATfCaAHT2roIc/AqBH6/CLz38O2IjmzndBxC6oayPIeSnIYim5GGlAYlOonCzQ4uYSz2AP5ylFwfoRn8wNew7nENZxfyqhP45eBYR3ntLOjgkx4jLr/88p433nhj5NoJi5On0ladrBRsWzlISHwC3nn4bWmz2S2ijjM4UzGJ7eB8tkhjGO6SbNO3tiL2/zMeN8Io9O2lToULLd0Mnh0IvYPhCPduEnQ5lEoC/wnbmdqlyMvxbckalH0aPljEI6zh+RFsyQ4IIzn77LP7Ev8ZedtbxUX50ff4JNYtHgjDZgujpPPBoUNlBky4UNhtwHN11DcZHAr7MYAn2nZmw01eQZymzk+h42VLC3HxcRvouR/jmHXUo69bMXKncXL2yBw0bfbZboTRwSLA1mclyjpGRoK5uKFGYQT+CYxJ5DZiBpI1THgXXDNRml01JZECM7fviT+aPHNPhi6fYURzNjCHS6msA1ZTi0GMVCYTLiEcOSUgXaODlznIdT90fgyOWSjlDiE8MhrncnnxYLZqHwb2S2jqR76mTIdjZHShjQVvsyejouUYpD9R10F4s4DrT8sOo95hjDQehZa/cfaimmcDNGgdZSh5+0PEGBk6wje1GUFfU0TOYBT6YttY1hFabX0eZHtdhNYcOiLtL4WShsGpRolfQWF2tWVRDinwCcS1iNlIL3oIzwvx5mtOnsZBRxl1H0NEpyb91KYH+abl5DVCq3r/+zXtQEn/TPg/SO+lugSGESkH1xE6BEaeysnIaEVSdWqqonMOuY6uF8zp6urqp/l4bArtH0/95aJFNOGGkHYpvLmIeB3pGsqVkVZCWLSVQvMGwk0WVKWca8aB5pLRDIQElpLM0nMM8Pb2Ot6fYF+8wr8Um0OIUMQXWfzvKA83othUaJp6e4T1YEYAZhFQxoKw0MxAAfVRVUFu0qRJaxD8lxH8GpTBvDIpDHhHcIp036lTpxaDd29tufrpydfqv17K6TxDUZRXnp+fMvrg/o0/AK+ToOttnSIa2Bi0qH1lhEuptwiYhWT9J88FGkXxtF6wKTyljOBtvlAaFApkcvo4j1u5fk7+fdCyOkwPdGjOJVp0irMHXj/PYGkTShnK5JxQMeciOZCfwUgqSJEn5e0YH/NW1CRpVb/EbqNn+isTTjUcSs/m041MNthwni2nNBmsNnD0wN0R0hMQYmmD8RJywo+vXLky5X7KfKuj938L2Pd9PEbhpJz404877jj1oEYpbH2FPqXEuEButEi4ZMmSS2jDpeS9A75GGT2MkjF+qhu3Ej8VfzgG5glo0+nVoM2UK/INpWCNU1oYhnBePIeedbNnz/4vjMFZ4JhOuTqmIYYW7Tz5vDC7UIrj6oF7D/hbiYtG57JwIL8pSUnXF734+sO8RAN7fQwx4gxJi/1tr0Rx6jBOyiwXjydxx8yFLc1JaCRfwhTjV9klwnzjlAKUaPCFspSrkhL1XkPfr0x+Hz4KWupdDPT1eJUFDzkKyxX5T84gmbgdDXCA0cSLM5xJyB9PCXXMMrha+Q8l0RrFuSxOFjPfNvSrZ0XpP0DwW9Tb9erV63M+qjqdtZG+KIduxCrVFAIlldLKgPyOvBeoz+CXYvrNME/KNGjuH3ZSLOFRGvBx8jVSCNwULt+dMGHC3fTu/4OCDmNqtCNlKunV4/h5lJ2Jn8c6w/pR/Kg0vxN7LG3WUEr0yTJod2Z2gDAZuIS0X+HrRCNKv4HgJ2kwkVH/GoBHWMz8G+3ZgfaPBFBH7vuBS07G+EviH5L3IUfLv+DI+jLa0CKeRxLhEgvlgI7iJo/jFloyFT43Hia7OXsfweSCy5UvuvKBSaW/w2PiTU7+5AGTLx41OFd9ufKFo82cjFIWZNnyshRzWY4DjgOOA44DjgOOA44DjgOOA44DjgOOA44DjgOOA44DjgOOA44DjgOOA44DjgOOA44DjgOOA44DjgOOA44DjgOOAy3nwP8BF+4B9n+RnlsAAAAASUVORK5CYII=;fontSize=16;fontColor=#053B70;" parent="1" vertex="1">
          <mxGeometry x="-195.27999999999997" y="333.7" width="150.56" height="50" as="geometry" />
        </mxCell>
        <mxCell id="VYM2PKjQV5y2c5IDeU8M-25" value="" style="shape=image;aspect=fixed;image=data:image/svg+xml,PHN2ZyB4bWxucz0iaHR0cDovL3d3dy53My5vcmcvMjAwMC9zdmciIHZpZXdCb3g9IjAgMCAxOCAxOCI+PGRlZnM+PGxpbmVhckdyYWRpZW50IGlkPSJhIiB4MT0iOSIgeTE9IjE3LjUiIHgyPSI5IiB5Mj0iLjUiIGdyYWRpZW50VW5pdHM9InVzZXJTcGFjZU9uVXNlIj48c3RvcCBvZmZzZXQ9Ii4xNiIgc3RvcC1jb2xvcj0iIzZmNGJiMiIvPjxzdG9wIG9mZnNldD0iLjMyIiBzdG9wLWNvbG9yPSIjNzQ1MGI1Ii8+PHN0b3Agb2Zmc2V0PSIuNTEiIHN0b3AtY29sb3I9IiM4MjVkYmYiLz48c3RvcCBvZmZzZXQ9Ii43MiIgc3RvcC1jb2xvcj0iIzlhNzJjZSIvPjxzdG9wIG9mZnNldD0iLjk0IiBzdG9wLWNvbG9yPSIjYmI5MGU0Ii8+PHN0b3Agb2Zmc2V0PSIxIiBzdG9wLWNvbG9yPSIjYzY5YWViIi8+PC9saW5lYXJHcmFkaWVudD48L2RlZnM+PHBhdGggZD0iTTEyLjI5LjVINS43MWEuNTYuNTYgMCAwMC0uNC4xN0wuNjcgNS4zMWEuNTYuNTYgMCAwMC0uMTcuNHY2LjU4YS41Ni41NiAwIDAwLjE3LjRsNC42NCA0LjY0YS41Ni41NiAwIDAwLjQuMTdoNi41OGEuNTYuNTYgMCAwMC40LS4xN2w0LjY0LTQuNjRhLjU2LjU2IDAgMDAuMTctLjRWNS43MWEuNTYuNTYgMCAwMC0uMTctLjRMMTIuNjkuNjdhLjU2LjU2IDAgMDAtLjQtLjE3eiIgZmlsbD0idXJsKCNhKSIvPjxwYXRoIGQ9Ik02IDcuNjRsLS4wNy4wNy0xIDFhLjE0LjE0IDAgMDAuMS4yM2gzLjhhLjE0LjE0IDAgMDAuMTQtLjE0VjUuMDVBLjE0LjE0IDAgMDA4LjY0IDVsLTEgMS0uMDcuMDdhLjE1LjE1IDAgMDEtLjIgMEw0LjggMy41NCAzLjQzIDQuOTIgNiA3LjQ0YS4xNS4xNSAwIDAxMCAuMnoiIGZpbGw9IiNmMmYyZjIiLz48cGF0aCBkPSJNMTYuMTggNS45MWwtNC4wOS00LjA5YS4yOC4yOCAwIDAwLS4yLS4wOEg2LjExYS4yOC4yOCAwIDAwLS4yLjA4TDEuODIgNS45MWEuMjguMjggMCAwMC0uMDguMnY1Ljc4YS4zLjMgMCAwMC4wOC4ybDQuMDkgNC4wOWEuMjguMjggMCAwMC4yLjA4aDUuNzhhLjI4LjI4IDAgMDAuMi0uMDhsNC4wOS00LjA5YS4zLjMgMCAwMC4wOC0uMlY2LjExYS4yOC4yOCAwIDAwLS4wOC0uMnptLS4zNiA1LjQ1bC0zLjE1LTMuMTUuNzYtLjc3YS4xNi4xNiAwIDAwMC0uMjQuMTYuMTYgMCAwMC0uMTEgMGwtMi43MS0uMDdhLjE3LjE3IDAgMDAtLjE3LjE2bC4wNyAyLjcxYS4xNi4xNiAwIDAwLjE3LjE2LjEzLjEzIDAgMDAuMTIgMGwuODUtLjg0IDMuMzUgMy4zLTIuNTQgMi41NEw5IDExLjcxbC44LS43MWEuMTYuMTYgMCAwMDAtLjI0LjE2LjE2IDAgMDAtLjExLS4wNUw3IDEwLjU5YS4xNy4xNyAwIDAwLS4xNy4xNmwuMDcgMi43MWEuMTYuMTYgMCAwMC4xNy4xNi4xNy4xNyAwIDAwLjEyLS4wNWwuODEtLjgzIDMuMDggMy4wOEg2LjE3bC00LTRWNi4xN2wxLjI2LTEuMjVMNC44IDMuNTRsMS4zNy0xLjM3aDUuNjZsNCA0eiIgZmlsbD0iI2YyZjJmMiIvPjwvc3ZnPg==;" parent="1" vertex="1">
          <mxGeometry x="-151.93" y="434.21" width="63.86" height="63.86" as="geometry" />
        </mxCell>
        <mxCell id="VYM2PKjQV5y2c5IDeU8M-26" value="&lt;font size=&quot;1&quot; style=&quot;&quot;&gt;&lt;b style=&quot;font-size: 20px;&quot;&gt;Azure Traffic Manager&lt;/b&gt;&lt;/font&gt;" style="text;html=1;strokeColor=none;fillColor=none;align=center;verticalAlign=middle;whiteSpace=wrap;rounded=0;fontSize=16;fontColor=#053B70;" parent="1" vertex="1">
          <mxGeometry x="-195.27999999999997" y="510" width="150" height="30" as="geometry" />
        </mxCell>
        <mxCell id="xe57LHc7523G0_gxzrTJ-21" value="" style="edgeStyle=orthogonalEdgeStyle;rounded=0;orthogonalLoop=1;jettySize=auto;html=1;fontColor=#FFFFFF;strokeColor=#595959;endArrow=none;endFill=1;strokeWidth=2;endSize=3;fontSize=16;opacity=20;" parent="1" edge="1">
          <mxGeometry relative="1" as="geometry">
            <mxPoint x="630" y="370" as="targetPoint" />
            <mxPoint x="640" y="465" as="sourcePoint" />
            <Array as="points">
              <mxPoint x="640" y="465" />
              <mxPoint x="640" y="370" />
            </Array>
          </mxGeometry>
        </mxCell>
        <mxCell id="xe57LHc7523G0_gxzrTJ-27" style="edgeStyle=elbowEdgeStyle;rounded=0;jumpSize=3;orthogonalLoop=1;jettySize=auto;html=1;entryX=0;entryY=0.5;entryDx=0;entryDy=0;fontSize=9;fontColor=#053B70;startSize=4;strokeColor=#595959;strokeWidth=2;" parent="1" edge="1">
          <mxGeometry relative="1" as="geometry">
            <mxPoint x="-367.2800000000001" y="465.25" as="sourcePoint" />
            <mxPoint x="-210" y="466.1399999999999" as="targetPoint" />
          </mxGeometry>
        </mxCell>
        <mxCell id="xe57LHc7523G0_gxzrTJ-29" value="&lt;b style=&quot;font-size: 13px;&quot;&gt;https://ci.customdomain.com&lt;/b&gt;" style="edgeLabel;html=1;align=center;verticalAlign=middle;resizable=0;points=[];fontSize=9;fontColor=#053B70;" parent="xe57LHc7523G0_gxzrTJ-27" vertex="1" connectable="0">
          <mxGeometry x="-0.312" y="-4" relative="1" as="geometry">
            <mxPoint x="43" y="-24" as="offset" />
          </mxGeometry>
        </mxCell>
        <mxCell id="xe57LHc7523G0_gxzrTJ-30" style="edgeStyle=orthogonalEdgeStyle;rounded=0;orthogonalLoop=1;jettySize=auto;html=1;fontColor=#FFFFFF;strokeColor=#595959;endArrow=block;endFill=1;strokeWidth=2;endSize=3;fontSize=13;jumpSize=3;startArrow=none;exitX=1;exitY=0.5;exitDx=0;exitDy=0;" parent="1" edge="1">
          <mxGeometry relative="1" as="geometry">
            <mxPoint x="270" y="360" as="targetPoint" />
            <mxPoint x="-30" y="466.1399999999999" as="sourcePoint" />
            <Array as="points">
              <mxPoint x="-30" y="470" />
              <mxPoint x="30" y="470" />
              <mxPoint x="30" y="360" />
            </Array>
          </mxGeometry>
        </mxCell>
        <mxCell id="xe57LHc7523G0_gxzrTJ-32" style="edgeStyle=orthogonalEdgeStyle;rounded=0;orthogonalLoop=1;jettySize=auto;html=1;fontColor=#FFFFFF;strokeColor=#595959;endArrow=block;endFill=1;strokeWidth=2;endSize=3;fontSize=13;jumpSize=3;dashed=1;" parent="1" edge="1">
          <mxGeometry relative="1" as="geometry">
            <mxPoint x="270.75" y="600" as="targetPoint" />
            <mxPoint x="20" y="470" as="sourcePoint" />
            <Array as="points">
              <mxPoint x="30" y="470" />
              <mxPoint x="30" y="600" />
            </Array>
          </mxGeometry>
        </mxCell>
        <mxCell id="xe57LHc7523G0_gxzrTJ-33" value="" style="shape=image;verticalLabelPosition=bottom;verticalAlign=top;imageAspect=0;aspect=fixed;image=data:image/svg+xml,PHN2ZyB4bWxucz0iaHR0cDovL3d3dy53My5vcmcvMjAwMC9zdmciIHZpZXdCb3g9IjAgMCAzMi43NjYgMzIuOTA3Ij48ZGVmcz48c3R5bGU+LmNscy0xe2ZpbGw6IzU5NTk1OTt9PC9zdHlsZT48L2RlZnM+PHRpdGxlPmRlY2xpbmU8L3RpdGxlPjxnIGlkPSJMYXllcl8yIiBkYXRhLW5hbWU9IkxheWVyIDIiPjxnIGlkPSJkZWNsaW5lIj48cGF0aCBjbGFzcz0iY2xzLTEiIGQ9Ik0zMi43MTksMy43NWExLjQ4MiwxLjQ4MiwwLDAsMS0uNDY5LDEuMDc4TDIwLjYyNSwxNi40NTMsMzIuMjUsMjguMTcyYTEuMjg4LDEuMjg4LDAsMCwxLDAsMi4wNjJMMzAuMTg4LDMyLjM5YTEuMzg0LDEuMzg0LDAsMCwxLTIuMTU3LDBMMTYuMzEyLDIwLjY3Miw0LjY4OCwzMi4zOWExLjQ3NSwxLjQ3NSwwLDAsMS0yLjE1NywwTC40NjksMzAuMjM0YTEuMzY4LDEuMzY4LDAsMCwxLDAtMi4wNjJMMTIuMDk0LDE2LjQ1My40NjksNC44MjhhMS40NzMsMS40NzMsMCwwLDEsMC0yLjE1NkwyLjUzMS41MTVhMS4zODYsMS4zODYsMCwwLDEsMi4xNTcsMEwxNi4zMTIsMTIuMjM0LDI4LjAzMS41MTVhMS4zODYsMS4zODYsMCwwLDEsMi4xNTcsMEwzMi4yNSwyLjY3MkExLjQ4NSwxLjQ4NSwwLDAsMSwzMi43MTksMy43NVoiLz48L2c+PC9nPjwvc3ZnPg==;fontSize=13;fontColor=#053B70;" parent="1" vertex="1">
          <mxGeometry x="96.5" y="380" width="33" height="33" as="geometry" />
        </mxCell>
        <mxCell id="xe57LHc7523G0_gxzrTJ-39" value="&lt;font style=&quot;font-size: 9px;&quot;&gt;HTTPS&lt;/font&gt;" style="rounded=1;whiteSpace=wrap;html=1;arcSize=12;fillColor=#595959;fontColor=#FFFFFF;strokeColor=#595959;fontFamily=Helvetica;fontSize=11;autosize=1;absoluteArcSize=1;strokeWidth=2;labelBackgroundColor=none;" parent="1" vertex="1">
          <mxGeometry x="88" y="595.14" width="50" height="9.86" as="geometry" />
        </mxCell>
        <mxCell id="xe57LHc7523G0_gxzrTJ-45" value="&lt;font style=&quot;font-size: 9px;&quot;&gt;HTTPS&lt;/font&gt;" style="rounded=1;whiteSpace=wrap;html=1;arcSize=12;fillColor=#595959;fontColor=#FFFFFF;strokeColor=#595959;fontFamily=Helvetica;fontSize=11;autosize=1;absoluteArcSize=1;strokeWidth=2;labelBackgroundColor=none;" parent="1" vertex="1">
          <mxGeometry x="88" y="355.21" width="50" height="9.86" as="geometry" />
        </mxCell>
        <mxCell id="xe57LHc7523G0_gxzrTJ-46" value="" style="shape=image;verticalLabelPosition=bottom;verticalAlign=top;imageAspect=0;aspect=fixed;image=data:image/svg+xml,PHN2ZyB4bWxucz0iaHR0cDovL3d3dy53My5vcmcvMjAwMC9zdmciIHZpZXdCb3g9IjAgMCAzOC4wNTggMzYuMDI5Ij48ZGVmcz48c3R5bGU+LmNscy0xe2ZpbGw6IzU5NTk1OTt9PC9zdHlsZT48L2RlZnM+PHRpdGxlPmFjY2VwdDwvdGl0bGU+PGcgaWQ9IkxheWVyXzIiIGRhdGEtbmFtZT0iTGF5ZXIgMiI+PGcgaWQ9ImFjY2VwdCI+PHBhdGggY2xhc3M9ImNscy0xIiBkPSJNMzcuNTUxLDIuODI4YTEuMzMyLDEuMzMyLDAsMCwxLC4yODIsMS43ODFMMTcuMDIsMzUuMTcyYTEuNDA3LDEuNDA3LDAsMCwxLTEuMTI1Ljg0MywxLjUsMS41LDAsMCwxLTEuMzEyLS40NjhMLjQyNiwxOS44OWExLjI2MywxLjI2MywwLDAsMS0uNDIxLTEuMDMxQTEuNjMxLDEuNjMxLDAsMCwxLC41MiwxNy44MjhsMi4zNDQtMi4zNDRhMS4zMTQsMS4zMTQsMCwwLDEsMi4xNTYsMGw5LDlhMS41LDEuNSwwLDAsMCwxLjIxOS40MjIsMS4zLDEuMywwLDAsMCwxLjEyNS0uOEwzMi43Ny43NjVhMS40MTMsMS40MTMsMCwwLDEsMS4wNzgtLjc1QTEuNTg0LDEuNTg0LDAsMCwxLDM1LjExNC4zOVoiLz48L2c+PC9nPjwvc3ZnPg==;fontSize=13;fontColor=#053B70;" parent="1" vertex="1">
          <mxGeometry x="100" y="550" width="38" height="36" as="geometry" />
        </mxCell>
        <mxCell id="xe57LHc7523G0_gxzrTJ-49" value="&lt;b&gt;https://primary.ci.&lt;br&gt;cfapps.us20.hana.&lt;br&gt;ondemand&lt;br&gt;&lt;/b&gt;" style="text;html=1;strokeColor=none;fillColor=none;align=center;verticalAlign=middle;whiteSpace=wrap;rounded=0;fontSize=16;fontColor=#053B70;" parent="1" vertex="1">
          <mxGeometry x="20" y="293.34999999999997" width="145.71" height="50" as="geometry" />
        </mxCell>
        <mxCell id="xe57LHc7523G0_gxzrTJ-50" value="&lt;b&gt;https://primary.ci.&lt;br&gt;cfapps.eu20.hana.&lt;br&gt;ondemand&lt;br&gt;&lt;/b&gt;" style="text;html=1;strokeColor=none;fillColor=none;align=center;verticalAlign=middle;whiteSpace=wrap;rounded=0;fontSize=16;fontColor=#053B70;" parent="1" vertex="1">
          <mxGeometry x="20" y="616.14" width="145.71" height="50" as="geometry" />
        </mxCell>
        <mxCell id="L8tGwODf9pzZJjYV8ij8-8" style="edgeStyle=orthogonalEdgeStyle;rounded=0;orthogonalLoop=1;jettySize=auto;html=1;fontColor=#FFFFFF;strokeColor=#595959;endArrow=block;endFill=1;strokeWidth=2;endSize=3;fontSize=13;jumpSize=3;dashed=1;" parent="1" edge="1">
          <mxGeometry relative="1" as="geometry">
            <mxPoint x="30" y="839" as="targetPoint" />
            <mxPoint x="-121.25" y="616.14" as="sourcePoint" />
            <Array as="points">
              <mxPoint x="-121" y="615" />
              <mxPoint x="-111" y="615" />
              <mxPoint x="-111" y="839" />
            </Array>
          </mxGeometry>
        </mxCell>
        <mxCell id="L8tGwODf9pzZJjYV8ij8-9" value="&lt;font style=&quot;font-size: 14px;&quot;&gt;&lt;b&gt;Alert Rule Integration&lt;/b&gt;&lt;/font&gt;" style="edgeLabel;html=1;align=center;verticalAlign=middle;resizable=0;points=[];" parent="L8tGwODf9pzZJjYV8ij8-8" vertex="1" connectable="0">
          <mxGeometry x="-0.5708" y="1" relative="1" as="geometry">
            <mxPoint x="-1" y="-90" as="offset" />
          </mxGeometry>
        </mxCell>
        <mxCell id="L8tGwODf9pzZJjYV8ij8-41" style="edgeStyle=orthogonalEdgeStyle;rounded=0;orthogonalLoop=1;jettySize=auto;html=1;fontColor=#FFFFFF;strokeColor=#595959;endArrow=block;endFill=1;strokeWidth=2;endSize=3;fontSize=13;jumpSize=3;startArrow=none;exitX=1;exitY=0.5;exitDx=0;exitDy=0;" parent="1" edge="1">
          <mxGeometry relative="1" as="geometry">
            <mxPoint x="30" y="1000" as="targetPoint" />
            <mxPoint x="-110" y="836" as="sourcePoint" />
            <Array as="points">
              <mxPoint x="-110" y="840" />
              <mxPoint x="-50" y="840" />
              <mxPoint x="-50" y="1000" />
            </Array>
          </mxGeometry>
        </mxCell>
        <mxCell id="L8tGwODf9pzZJjYV8ij8-54" value="" style="group" parent="1" vertex="1" connectable="0">
          <mxGeometry x="-429" y="307" width="126" height="80.00000000000001" as="geometry" />
        </mxCell>
        <mxCell id="L8tGwODf9pzZJjYV8ij8-55" value="" style="shape=image;verticalLabelPosition=bottom;verticalAlign=top;imageAspect=0;aspect=fixed;image=data:image/svg+xml,PHN2ZyB4bWxucz0iaHR0cDovL3d3dy53My5vcmcvMjAwMC9zdmciIGZpbGw9Im5vbmUiIHZpZXdCb3g9IjAgMCAxNyAxNyIgaGVpZ2h0PSIxNyIgd2lkdGg9IjE3Ij4mI3hhOzxwYXRoIGZpbGw9InVybCgjcGFpbnQwX2xpbmVhcl8yXzI4Nzk4KSIgZD0iTTAuMjEzODY3IDguNTUyNzNDMC4yMTM4NjcgNy40Njk0IDAuNDIyMjAxIDYuNDU4OTggMC44Mzg4NjcgNS41MjE0OEMxLjI1NTUzIDQuNTYzMTUgMS44MTgwMyAzLjcyOTgyIDIuNTI2MzcgMy4wMjE0OEMzLjIzNDcgMi4zMTMxNSA0LjA2ODAzIDEuNzUwNjUgNS4wMjYzNyAxLjMzMzk4QzUuOTg0NyAwLjkxNzMxOCA3LjAwNTUzIDAuNzA4OTg0IDguMDg4ODcgMC43MDg5ODRDOS4xNzIyIDAuNzA4OTg0IDEwLjE4MjYgMC45MTczMTggMTEuMTIwMSAxLjMzMzk4QzEyLjA3ODUgMS43NTA2NSAxMi45MTE4IDIuMzEzMTUgMTMuNjIwMSAzLjAyMTQ4QzE0LjMyODUgMy43Mjk4MiAxNC44OTEgNC41NjMxNSAxNS4zMDc2IDUuNTIxNDhDMTUuNzI0MyA2LjQ1ODk4IDE1LjkzMjYgNy40Njk0IDE1LjkzMjYgOC41NTI3M0MxNS45MzI2IDkuNjM2MDcgMTUuNzI0MyAxMC42NTY5IDE1LjMwNzYgMTEuNjE1MkMxNC44OTEgMTIuNTczNiAxNC4zMjg1IDEzLjQwNjkgMTMuNjIwMSAxNC4xMTUyQzEyLjkxMTggMTQuODIzNiAxMi4wNzg1IDE1LjM4NjEgMTEuMTIwMSAxNS44MDI3QzEwLjE4MjYgMTYuMjE5NCA5LjE3MjIgMTYuNDI3NyA4LjA4ODg3IDE2LjQyNzdDNy4wMDU1MyAxNi40Mjc3IDUuOTg0NyAxNi4yMTk0IDUuMDI2MzcgMTUuODAyN0M0LjA2ODAzIDE1LjM4NjEgMy4yMzQ3IDE0LjgyMzYgMi41MjYzNyAxNC4xMTUyQzEuODE4MDMgMTMuNDA2OSAxLjI1NTUzIDEyLjU3MzYgMC44Mzg4NjcgMTEuNjE1MkMwLjQyMjIwMSAxMC42NTY5IDAuMjEzODY3IDkuNjM2MDcgMC4yMTM4NjcgOC41NTI3M1pNOS42NTEzNyAxMC45Mjc3QzEwLjMxOCAxMC45Mjc3IDEwLjkzMjYgMTEuMDg0IDExLjQ5NTEgMTEuMzk2NUMxMi4wNTc2IDExLjY4ODIgMTIuNTE2IDEyLjA5NDQgMTIuODcwMSAxMi42MTUyQzEzLjM0OTMgMTIuMDczNiAxMy43MTM5IDExLjQ1OSAxMy45NjM5IDEwLjc3MTVDMTQuMjM0NyAxMC4wODQgMTQuMzcwMSA5LjM0NDQgMTQuMzcwMSA4LjU1MjczQzE0LjM3MDEgNy42Nzc3MyAxNC4yMDM1IDYuODY1MjMgMTMuODcwMSA2LjExNTIzQzEzLjUzNjggNS4zNDQ0IDEzLjA4ODkgNC42Nzc3MyAxMi41MjY0IDQuMTE1MjNDMTEuOTYzOSAzLjU1MjczIDExLjI5NzIgMy4xMDQ4MiAxMC41MjY0IDIuNzcxNDhDOS43NzYzNyAyLjQzODE1IDguOTYzODcgMi4yNzE0OCA4LjA4ODg3IDIuMjcxNDhDNy4yMTM4NyAyLjI3MTQ4IDYuMzkwOTUgMi40MzgxNSA1LjYyMDEyIDIuNzcxNDhDNC44NzAxMiAzLjEwNDgyIDQuMjAzNDUgMy41NTI3MyAzLjYyMDEyIDQuMTE1MjNDMy4wNTc2MiA0LjY3NzczIDIuNjA5NyA1LjM0NDQgMi4yNzYzNyA2LjExNTIzQzEuOTQzMDMgNi44NjUyMyAxLjc3NjM3IDcuNjc3NzMgMS43NzYzNyA4LjU1MjczQzEuNzc2MzcgOS4zNDQ0IDEuOTAxMzcgMTAuMDg0IDIuMTUxMzcgMTAuNzcxNUMyLjQyMjIgMTEuNDU5IDIuNzk3MiAxMi4wNzM2IDMuMjc2MzcgMTIuNjE1MkMzLjYzMDUzIDEyLjA5NDQgNC4wODg4NyAxMS42ODgyIDQuNjUxMzcgMTEuMzk2NUM1LjIxMzg3IDExLjA4NCA1LjgyODQ1IDEwLjkyNzcgNi40OTUxMiAxMC45Mjc3SDkuNjUxMzdaTTExLjIxMzkgNi45OTAyM0MxMS4yMTM5IDcuNDI3NzMgMTEuMTMwNSA3Ljg0NDQgMTAuOTYzOSA4LjI0MDIzQzEwLjc5NzIgOC42MTUyMyAxMC41NjggOC45NDg1NyAxMC4yNzY0IDkuMjQwMjNDMTAuMDA1NSA5LjUxMTA3IDkuNjgyNjIgOS43Mjk4MiA5LjMwNzYyIDkuODk2NDhDOC45MzI2MiAxMC4wNjMyIDguNTI2MzcgMTAuMTQ2NSA4LjA4ODg3IDEwLjE0NjVDNy42NTEzNyAxMC4xNDY1IDcuMjM0NyAxMC4wNjMyIDYuODM4ODcgOS44OTY0OEM2LjQ2Mzg3IDkuNzI5ODIgNi4xMzA1MyA5LjUxMTA3IDUuODM4ODcgOS4yNDAyM0M1LjU2ODAzIDguOTQ4NTcgNS4zNDkyOCA4LjYxNTIzIDUuMTgyNjIgOC4yNDAyM0M1LjAxNTk1IDcuODQ0NCA0LjkzMjYyIDcuNDI3NzMgNC45MzI2MiA2Ljk5MDIzQzQuOTMyNjIgNi41NTI3MyA1LjAxNTk1IDYuMTQ2NDggNS4xODI2MiA1Ljc3MTQ4QzUuMzQ5MjggNS4zOTY0OCA1LjU2ODAzIDUuMDYzMTUgNS44Mzg4NyA0Ljc3MTQ4QzYuMTMwNTMgNC40Nzk4MiA2LjQ2Mzg3IDQuMjUwNjUgNi44Mzg4NyA0LjA4Mzk4QzcuMjM0NyAzLjkxNzMyIDcuNjUxMzcgMy44MzM5OCA4LjA4ODg3IDMuODMzOThDOC41MjYzNyAzLjgzMzk4IDguOTMyNjIgMy45MTczMiA5LjMwNzYyIDQuMDgzOThDOS42ODI2MiA0LjI1MDY1IDEwLjAwNTUgNC40Nzk4MiAxMC4yNzY0IDQuNzcxNDhDMTAuNTY4IDUuMDYzMTUgMTAuNzk3MiA1LjM5NjQ4IDEwLjk2MzkgNS43NzE0OEMxMS4xMzA1IDYuMTQ2NDggMTEuMjEzOSA2LjU1MjczIDExLjIxMzkgNi45OTAyM1pNOS42NTEzNyA2Ljk5MDIzQzkuNjUxMzcgNi41NTI3MyA5LjQ5NTEyIDYuMTg4MTUgOS4xODI2MiA1Ljg5NjQ4QzguODcwMTIgNS41ODM5OCA4LjUwNTUzIDUuNDI3NzMgOC4wODg4NyA1LjQyNzczQzcuNjUxMzcgNS40Mjc3MyA3LjI3NjM3IDUuNTgzOTggNi45NjM4NyA1Ljg5NjQ4QzYuNjUxMzcgNi4xODgxNSA2LjQ5NTEyIDYuNTUyNzMgNi40OTUxMiA2Ljk5MDIzQzYuNDk1MTIgNy40Mjc3MyA2LjY1MTM3IDcuODAyNzMgNi45NjM4NyA4LjExNTIzQzcuMjc2MzcgOC40MDY5IDcuNjUxMzcgOC41NTI3MyA4LjA4ODg3IDguNTUyNzNDOC41MDU1MyA4LjU1MjczIDguODcwMTIgOC40MDY5IDkuMTgyNjIgOC4xMTUyM0M5LjQ5NTEyIDcuODAyNzMgOS42NTEzNyA3LjQyNzczIDkuNjUxMzcgNi45OTAyM1pNNC40NjM4NyAxMy43MDlDNC45NjM4NyAxNC4wNjMyIDUuNTE1OTUgMTQuMzQ0NCA2LjEyMDEyIDE0LjU1MjdDNi43NDUxMiAxNC43NjExIDcuNDAxMzcgMTQuODY1MiA4LjA4ODg3IDE0Ljg2NTJDOC43NTU1MyAxNC44NjUyIDkuMzkwOTUgMTQuNzYxMSA5Ljk5NTEyIDE0LjU1MjdDMTAuNjIwMSAxNC4zNDQ0IDExLjE4MjYgMTQuMDYzMiAxMS42ODI2IDEzLjcwOUMxMS40NzQzIDEzLjMzNCAxMS4xODI2IDEzLjA0MjMgMTAuODA3NiAxMi44MzRDMTAuNDUzNSAxMi42MDQ4IDEwLjA2OCAxMi40OTAyIDkuNjUxMzcgMTIuNDkwMkg2LjQ5NTEyQzYuMDc4NDUgMTIuNDkwMiA1LjY4MjYyIDEyLjYwNDggNS4zMDc2MiAxMi44MzRDNC45NTM0NSAxMy4wNDIzIDQuNjcyMiAxMy4zMzQgNC40NjM4NyAxMy43MDlaIi8+JiN4YTs8ZGVmcz4mI3hhOzxsaW5lYXJHcmFkaWVudCBncmFkaWVudFVuaXRzPSJ1c2VyU3BhY2VPblVzZSIgeTI9IjE2LjQyNzciIHgyPSI4LjA3MzI0IiB5MT0iMC43MDg5ODQiIHgxPSI4LjA3MzI0IiBpZD0icGFpbnQwX2xpbmVhcl8yXzI4Nzk4Ij4mI3hhOzxzdG9wIHN0b3AtY29sb3I9IiM1QjczOEIiLz4mI3hhOzxzdG9wIHN0b3AtY29sb3I9IiMyMjM1NDgiIG9mZnNldD0iMSIvPiYjeGE7PC9saW5lYXJHcmFkaWVudD4mI3hhOzwvZGVmcz4mI3hhOzwvc3ZnPg==;strokeWidth=1.5;" parent="L8tGwODf9pzZJjYV8ij8-54" vertex="1">
          <mxGeometry x="11" width="50" height="50" as="geometry" />
        </mxCell>
        <mxCell id="L8tGwODf9pzZJjYV8ij8-56" value="&lt;font color=&quot;#1d2d3e&quot; size=&quot;1&quot; face=&quot;arial&quot; style=&quot;&quot;&gt;&lt;b style=&quot;font-size: 14px;&quot;&gt;End User&lt;/b&gt;&lt;/font&gt;" style="text;html=1;align=center;verticalAlign=middle;resizable=0;points=[];autosize=1;strokeColor=none;fillColor=none;fontSize=12;fontColor=default;fontFamily=Helvetica;strokeWidth=1.5;" parent="L8tGwODf9pzZJjYV8ij8-54" vertex="1">
          <mxGeometry x="-4.5" y="51.00000000000001" width="79" height="29" as="geometry" />
        </mxCell>
        <mxCell id="L8tGwODf9pzZJjYV8ij8-58" value="" style="shape=image;verticalLabelPosition=bottom;verticalAlign=top;imageAspect=0;aspect=fixed;image=data:image/svg+xml,PHN2ZyB4bWxucz0iaHR0cDovL3d3dy53My5vcmcvMjAwMC9zdmciIGZpbGw9Im5vbmUiIHZpZXdCb3g9IjAgMCAxNyAxNyIgaGVpZ2h0PSIxNyIgd2lkdGg9IjE3Ij4mI3hhOzxnIGNsaXAtcGF0aD0idXJsKCNjbGlwMF8yXzI4NzkzKSI+JiN4YTs8cGF0aCBmaWxsPSJ1cmwoI3BhaW50MF9saW5lYXJfMl8yODc5MykiIGQ9Ik04Ljg4ODg3IDExLjI5MTRDOC44ODg4NyAxMS43MzE0IDguNTI4ODcgMTIuMDkxNCA4LjA4ODg3IDEyLjA5MTRINy4yODg4N1YxMy42MzU0SDguMDg4ODdDOC41Mjg4NyAxMy42MzU0IDguODg4ODcgMTMuOTk1NCA4Ljg4ODg3IDE0LjQzNTRDOC44ODg4NyAxNC44NzU0IDguNTI4ODcgMTUuMjM1NCA4LjA4ODg3IDE1LjIzNTRINC4wODg4N0MzLjY0ODg3IDE1LjIzNTQgMy4yODg4NyAxNC44NzU0IDMuMjg4ODcgMTQuNDM1NEMzLjI4ODg3IDEzLjk5NTQgMy42NDg4NyAxMy42MzU0IDQuMDg4ODcgMTMuNjM1NEg1LjY4ODg3VjEyLjA5MTRIMi40ODg4N0MxLjE2ODg3IDEyLjA5MTQgMC4wODg4NjcyIDExLjA3NTQgMC4wODg4NjcyIDkuODI3NFYzLjk1NTRDMC4wODg4NjcyIDIuNzA3NCAxLjE2ODg3IDEuNjgzNCAyLjQ4ODg3IDEuNjk5NEgxMS4yODg5QzEyLjYwODkgMS42OTk0IDEzLjY4ODkgMi43MTU0IDEzLjY4ODkgMy45NjM0QzEzLjY4ODkgNC40MDM0IDEzLjMyODkgNC43Nzk0IDEyLjg4ODkgNC43Nzk0QzEyLjQ0ODkgNC43Nzk0IDEyLjA4ODkgNC40MzU0IDEyLjA4ODkgMy45OTU0QzEyLjA4ODkgMy41ODc0IDExLjcyODkgMy4yOTE0IDExLjI4ODkgMy4yOTE0SDIuNDg4ODdDMi4wNDg4NyAzLjI5MTQgMS42ODg4NyAzLjU4NzQgMS42ODg4NyAzLjk1NTRWOS44Mjc0QzEuNjg4ODcgMTAuMTk1NCAyLjA0ODg3IDEwLjQ5MTQgMi40ODg4NyAxMC40OTE0SDguMDg4ODdDOC41Mjg4NyAxMC40OTE0IDguODg4ODcgMTAuODUxNCA4Ljg4ODg3IDExLjI5MTRaTTkuNjg4ODcgNy40MDMzOUM5LjY4ODg3IDYuMjk5MzkgMTAuNTg0OSA1LjQwMzM5IDExLjY4ODkgNS40MDMzOUgxNC4wODg5QzE1LjE5MjkgNS40MDMzOSAxNi4wODg5IDYuMjk5MzkgMTYuMDg4OSA3LjQwMzM5VjEzLjIzNTRDMTYuMDg4OSAxNC4zMzk0IDE1LjE5MjkgMTUuMjM1NCAxNC4wODg5IDE1LjIzNTRIMTEuNjg4OUMxMC41ODQ5IDE1LjIzNTQgOS42ODg4NyAxNC4zMzk0IDkuNjg4ODcgMTMuMjM1NFY3LjQwMzM5Wk0xNC4wODg5IDEzLjYzNTRDMTQuMzEyOSAxMy42MzU0IDE0LjQ4ODkgMTMuNDU5NCAxNC40ODg5IDEzLjIzNTRWNy40MDMzOUMxNC40ODg5IDcuMTc5MzkgMTQuMzEyOSA3LjAwMzM5IDE0LjA4ODkgNy4wMDMzOUgxMS42ODg5QzExLjQ2NDkgNy4wMDMzOSAxMS4yODg5IDcuMTc5MzkgMTEuMjg4OSA3LjQwMzM5VjEzLjIzNTRDMTEuMjg4OSAxMy40NTk0IDExLjQ2NDkgMTMuNjM1NCAxMS42ODg5IDEzLjYzNTRIMTQuMDg4OVoiIGNsaXAtcnVsZT0iZXZlbm9kZCIgZmlsbC1ydWxlPSJldmVub2RkIi8+JiN4YTs8L2c+JiN4YTs8ZGVmcz4mI3hhOzxsaW5lYXJHcmFkaWVudCBncmFkaWVudFVuaXRzPSJ1c2VyU3BhY2VPblVzZSIgeTI9IjE1LjIzNTQiIHgyPSI4LjA4ODg3IiB5MT0iMS42OTkyMiIgeDE9IjguMDg4ODciIGlkPSJwYWludDBfbGluZWFyXzJfMjg3OTMiPiYjeGE7PHN0b3Agc3RvcC1jb2xvcj0iIzVCNzM4QiIvPiYjeGE7PHN0b3Agc3RvcC1jb2xvcj0iIzIyMzU0OCIgb2Zmc2V0PSIxIi8+JiN4YTs8L2xpbmVhckdyYWRpZW50PiYjeGE7PGNsaXBQYXRoIGlkPSJjbGlwMF8yXzI4NzkzIj4mI3hhOzxyZWN0IHRyYW5zZm9ybT0idHJhbnNsYXRlKDAuMDg4ODY3MiAwLjQ1ODk4NCkiIGZpbGw9IndoaXRlIiBoZWlnaHQ9IjE2IiB3aWR0aD0iMTYiLz4mI3hhOzwvY2xpcFBhdGg+JiN4YTs8L2RlZnM+JiN4YTs8L3N2Zz4=;strokeWidth=1.5;points=[[0,0.25,0,0,0],[0,0.5,0,0,0],[0,0.75,0,0,0],[0.25,0,0,0,0],[0.25,1,0,0,0],[0.5,0,0,0,0],[0.5,1,0,0,0],[0.75,0,0,0,0],[0.75,1,0,0,0],[1,0.25,0,0,0],[1,0.5,0,0,0],[1,0.75,0,0,0]];" parent="1" vertex="1">
          <mxGeometry x="-416.5" y="439.75" width="52" height="52" as="geometry" />
        </mxCell>
        <mxCell id="L8tGwODf9pzZJjYV8ij8-59" value="&lt;font color=&quot;#1d2d3e&quot; face=&quot;arial&quot; style=&quot;font-size: 16px;&quot;&gt;&lt;b style=&quot;font-size: 16px;&quot;&gt;Application Clients&lt;/b&gt;&lt;/font&gt;" style="text;html=1;align=center;verticalAlign=middle;resizable=0;points=[];autosize=1;strokeColor=none;fillColor=none;fontSize=12;fontColor=default;fontFamily=Helvetica;strokeWidth=1.5;" parent="1" vertex="1">
          <mxGeometry x="-471.5" y="490.75" width="163" height="31" as="geometry" />
        </mxCell>
        <mxCell id="L8tGwODf9pzZJjYV8ij8-60" value="&lt;font color=&quot;#475e75&quot; face=&quot;arial&quot; style=&quot;font-size: 10px;&quot;&gt;Mobile or Desktop&lt;/font&gt;" style="text;html=1;align=center;verticalAlign=middle;resizable=0;points=[];autosize=1;strokeColor=none;fillColor=none;fontSize=12;fontColor=#1D2D3E;fontFamily=Helvetica;" parent="1" vertex="1">
          <mxGeometry x="-439.5" y="514" width="99" height="26" as="geometry" />
        </mxCell>
        <mxCell id="L8tGwODf9pzZJjYV8ij8-61" value="" style="endArrow=block;html=1;strokeColor=#354A5F;bendable=1;rounded=0;endFill=1;endSize=3;strokeWidth=1.5;entryX=0.5;entryY=0;entryDx=0;entryDy=0;" parent="1" edge="1">
          <mxGeometry width="50" height="50" relative="1" as="geometry">
            <mxPoint x="-393.42999999999995" y="385" as="sourcePoint" />
            <mxPoint x="-393.42999999999995" y="440.74" as="targetPoint" />
            <Array as="points" />
          </mxGeometry>
        </mxCell>
        <mxCell id="L8tGwODf9pzZJjYV8ij8-66" value="" style="shape=image;verticalLabelPosition=bottom;labelBackgroundColor=default;verticalAlign=top;aspect=fixed;imageAspect=0;image=data:image/svg+xml,PHN2ZyB4bWxuczp4bGluaz0iaHR0cDovL3d3dy53My5vcmcvMTk5OS94bGluayIgeG1sbnM9Imh0dHA6Ly93d3cudzMub3JnLzIwMDAvc3ZnIiB2aWV3Qm94PSIwIDAgMTQ0Ljc0NyAzOS44MzIiIGlkPSJhIj48ZGVmcz48bGluZWFyR3JhZGllbnQgZ3JhZGllbnRVbml0cz0idXNlclNwYWNlT25Vc2UiIHkyPSIzOS44MzIiIHgyPSI0MC4yNTgiIHkxPSIwIiB4MT0iNDAuMjU4IiBpZD0iYiI+PHN0b3Agc3RvcC1jb2xvcj0iIzAwYjhmMSIgb2Zmc2V0PSIwIi8+PHN0b3Agc3RvcC1jb2xvcj0iIzAwYjVlZiIgb2Zmc2V0PSIuMDE2Ii8+PHN0b3Agc3RvcC1jb2xvcj0iIzBkOTBkOCIgb2Zmc2V0PSIuMzA4Ii8+PHN0b3Agc3RvcC1jb2xvcj0iIzE2NzVjOCIgb2Zmc2V0PSIuNTc4Ii8+PHN0b3Agc3RvcC1jb2xvcj0iIzFjNjRiZSIgb2Zmc2V0PSIuODE3Ii8+PHN0b3Agc3RvcC1jb2xvcj0iIzFlNWZiYiIgb2Zmc2V0PSIxIi8+PC9saW5lYXJHcmFkaWVudD48L2RlZnM+PHBvbHlsaW5lIGZpbGwtcnVsZT0iZXZlbm9kZCIgZmlsbD0idXJsKCNiKSIgcG9pbnRzPSIwIDM5LjgzMiA0MC42OTIgMzkuODMyIDgwLjUxNyAwIDAgMCAwIDM5LjgzMiIvPjxwYXRoIGZpbGwtcnVsZT0iZXZlbm9kZCIgZmlsbD0iI2ZmZiIgZD0ibTQ3Ljc4Miw3LjQ4OWwtNy45MjUtLjAwNXYxOC44NDVsLTYuOTI0LTE4Ljg0NWgtNi44NjVsLTUuOTEyLDE1Ljc1OWMtLjYzLTMuOTczLTQuNzQtNS4zNDUtNy45NzQtNi4zNzQtMi4xMzUtLjY4Ni00LjQwMS0xLjY5NC00LjM4LTIuODA5LjAxNy0uOTE1LDEuMjE1LTEuNzY1LDMuNTg5LTEuNjM3LDEuNTk1LjA4NCwzLjAwMS4yMTMsNS44LDEuNTYzbDIuNzUzLTQuNzk1Yy0yLjU1NS0xLjMtNi4wODYtMi4xMjEtOC45NzgtMi4xMjRoLS4wMTdjLTMuMzc0LDAtNi4xODUsMS4wOTMtNy45MjgsMi44OTQtMS4yMTQsMS4yNTgtMS44NjksMi44NTYtMS44OTYsNC42MjMtLjA0NCwyLjQzMi44NDgsNC4xNTcsMi43MjEsNS41MzMsMS41ODMsMS4xNiwzLjYwNiwxLjkxMiw1LjM5LDIuNDY1LDIuMjAxLjY4MSwzLjk5NiwxLjI3NCwzLjk3NSwyLjUzOS0uMDE2LjQ1OS0uMTkxLjg4OC0uNTIxLDEuMjM2LS41NDguNTY2LTEuMzkxLjc3OS0yLjU1NS43OTktMi4yNDQuMDQ4LTMuOTEtLjMwMy02LjU2Mi0xLjg3bC0yLjQ0OCw0Ljg2MWMyLjY0NCwxLjUwNiw1Ljc3NiwyLjM4OCw4Ljk3MiwyLjM4OGwuNDExLS4wMDZjMi43ODItLjA1LDUuMDI2LS44NDIsNi44Mi0yLjI4Ni4xMDMtLjA4MS4xOTYtLjE2Ni4yOTEtLjI1bC0uNzk1LDIuMTIzaDcuMmwxLjIwOC0zLjY3NGMxLjI2NS40MzMsMi43MDQuNjcxLDQuMjMyLjY3MSwxLjQ4NywwLDIuODg5LS4yMjksNC4xMzEtLjYzNWwxLjE2NCwzLjYzN2gxMS43NDJ2LTcuNjA3aDIuNTYxYzYuMTg4LDAsOS44NTEtMy4xNTQsOS44NTEtOC40MzYsMC01Ljg4NS0zLjU1Ny04LjU4NS0xMS4xMzItOC41ODVabS0xOC4zMTcsMTYuMTI0Yy0uOTI1LDAtMS43OTItLjE2LTIuNTM5LS40NDNsMi41MTItNy45MjZoLjA0OGwyLjQ2OCw3Ljk0OGMtLjc0Mi4yNjMtMS41ODkuNDIxLTIuNDg4LjQyMVptMTguNzgzLTQuNTUzaC0xLjc0NnYtNi4zODZoMS43NDZjMi4zMjgsMCw0LjE4NS43NzMsNC4xODUsMy4xNTEsMCwyLjQ2MS0xLjg1NywzLjIzNi00LjE4NSwzLjIzNiIvPjxwYXRoIGZpbGw9IiMwMDJhODYiIGQ9Im04MC4yMTcsNy40MDFoMTAuMDYzYzUuNTk1LDAsOC42NzQsMS45MTcsOC42NzQsNi4xNTgsMCwyLjkwMy0xLjUxMyw1LjAxNC00LjMxMSw1LjcsMy4yOS40NTgsNS4yNzgsMi41ODYsNS4yNzgsNS44OTQsMCw1LjAxNC00LjA2NCw3LjAzNy05LjE4NCw3LjAzN2gtMTAuNTIxVjcuNDAxWm0xMy45NjksNi44MjZjMC0yLjE2NC0xLjQ5Ni0yLjk3My00LjI0LTIuOTczaC01LjA0OXY2LjI5OGg0Ljg5MWMzLjIwMiwwLDQuMzk4LTEuMTYxLDQuMzk4LTMuMzI1Wm0xLjAyMSwxMC41MjFjMC0yLjM1Ny0xLjc3Ny0zLjQ2Ni00LjgzOS0zLjQ2NmgtNS40NzF2Ny4wNTVoNS41MDZjMi44MTUsMCw0LjgwNC0uNzc0LDQuODA0LTMuNTg5WiIvPjxwYXRoIGZpbGw9IiMwMDJhODYiIGQ9Im0xMDkuMDUxLDExLjVoLTcuNTgzdi00LjA5OWgxOS44NDZ2NC4wOTloLTcuNTY1djIwLjY5aC00LjY5N1YxMS41WiIvPjxwYXRoIGZpbGw9IiMwMDJhODYiIGQ9Im0xMjUuMTQ4LDcuNDAxaDEwLjUwNGM2LjE5MiwwLDkuMDk2LDMuMTg1LDkuMDk2LDcuODk5LDAsNC4zOTgtMi44MzMsOC4xNDYtOC44NSw4LjE0NmgtNi4wN3Y4Ljc0NGgtNC42OFY3LjQwMVptMTQuOTAyLDcuOTUyYzAtMi41NTEtMS42ODktMy45MjMtNC45NDQtMy45MjNoLTUuMjc4djguMDRoNS40MTljMy4yNzIsMCw0LjgwNC0xLjU4Myw0LjgwNC00LjExN1oiLz48L3N2Zz4=;strokeWidth=1.5;" parent="1" vertex="1">
          <mxGeometry x="260" y="175" width="105.13" height="29" as="geometry" />
        </mxCell>
        <mxCell id="L8tGwODf9pzZJjYV8ij8-67" value="" style="rounded=1;whiteSpace=wrap;html=1;strokeColor=#0070F2;strokeWidth=1.5;arcSize=16;fillColor=#FFFFFF;perimeterSpacing=0;absoluteArcSize=1;" parent="1" vertex="1">
          <mxGeometry x="272" y="228.5" width="278" height="216" as="geometry" />
        </mxCell>
        <mxCell id="L8tGwODf9pzZJjYV8ij8-74" value="" style="rounded=0;whiteSpace=wrap;html=1;fontSize=24;labelBackgroundColor=none;fillColor=none;strokeColor=#707070;strokeWidth=1.5;" parent="1" vertex="1">
          <mxGeometry x="300" y="304.5" width="222" height="120" as="geometry" />
        </mxCell>
        <mxCell id="L8tGwODf9pzZJjYV8ij8-75" value="&lt;font color=&quot;#053b70&quot; style=&quot;font-size: 18px;&quot;&gt;&lt;b&gt;Custom Domain&lt;/b&gt;&lt;/font&gt;" style="text;html=1;strokeColor=none;fillColor=default;align=center;verticalAlign=middle;whiteSpace=wrap;rounded=0;labelBackgroundColor=none;fontSize=15;opacity=0;" parent="1" vertex="1">
          <mxGeometry x="344.38" y="284.5" width="154.5" height="20" as="geometry" />
        </mxCell>
        <mxCell id="L8tGwODf9pzZJjYV8ij8-76" value="" style="shape=image;verticalLabelPosition=bottom;verticalAlign=top;imageAspect=0;aspect=fixed;image=data:image/png,iVBORw0KGgoAAAANSUhEUgAAAdMAAAHTCAYAAAB8/vKtAAAACXBIWXMAAFxGAABcRgEUlENBAAAe80lEQVR4nO3dTXLb1poGYNwulyccyL0CuTcg6c5dZfUK7F6B5RVQWkGUFUhcQeQVRF5BpCrPr8wNtL2CjgaaeJIuJB+7GVs/BA5wcEA8TxUrqXttEQQUvPy+84N//PHHHxUA0N6/OXcAkEaYAkAiYQoAiYQpACQSpgCQSJgCQCJhCgCJhCkAJBKmAJBImAJAImEKAImEKQAkEqYAkEiYAkAiYQoAiYQpACQSpgCQSJgCQCJhCgCJhCkAJBKmAJBImAJAImEKAImEKQAkEqYAkEiYAkAiYQoAiYQpACQSpgCQSJgCQCJhCgCJhCkAJBKmAJBImAJAImEKAImEKQAkEqYAkEiYAkAiYQoAiYQpACQSpgCQSJgCQCJhCgCJhCkAJBKmAJBImAJAImEKAImEKQAkEqYAkEiYAkAiYQoAiYQpACQSpgCQSJgCQCJhCgCJhCkAJBKmAJDoWYkn8Pmrk4OqqurXywIOZwquvn06uxryc7rm2bnm0zP4Nd9m//jjjz+K+XjPX50cVlV1UVXVbgGHMzW3VVWdf/t0dprzc7vmg3LNp2eQaz4FxYRp/Af2WwGHMnWLb5/OjnOcA9e8GK759GS75lNR0pjpRQHHQFXNn786ydV2c83L4JpPT85rPglFhGmMnWj5lOOo7yNxzYvjmk9P79d8SkqpTA8KOAb+32GGc+Gal8U1n54c13wySglT7Ybpcc2nxzVna1lnCgCJhCkAJBKmAJBImAJAImEKAImEKQAkEqYAkEiYAkAiYQoAiYQpACQSpgCQSJgCQCJhCgCJhCkAJBKmDOXKmS/KlwwH45qXJcc1nwxhyiC+fTqrb6y3zn4xLvs+ENe8OL1f8ykRpgzp3Nkvwudvn85y3Vhd8zLkvOaTIEwZzLdPZ6dVVS1cgUF9rqrqMNcBuOZFyHrNp+LZ1E8Aw/r26ez4+auTi6qq3voPPKt6vOxyiOrENR/MYNd8CoQpg/v26eymqqobV2I6XHO2jTYvACQSpgCQSJgCQCJhCgCJhCkAJBKmAJBImAJAImEKAImEKQAkEqYAkEiYAkAiYQoAiYQpACQSpgCQSJgCQCJhCgCJhCkAJBKmAJBImAJAImEKAImEKQAkEqYAkEiYAkCiZ04g93j5/NXJqRMDdOT3qqpu6n9++3R2s40nVZhyn92qqn5yZoCuPX91Uv/E6wjXi20JV2EKQG6v4zV//urkax2qVVWdf/t09vtYr4QxUwCGtOqEfamHl56/OnkxxqshTAEowc5aqL4d2xURpgCUpA7VX5+/OrkYU5UqTAEo0buqqq7GEqjCFIBS7Ufb96D0KyRMASjZTlSoL0s+SGEKQOnqQL0sueUrTAEYg/1Yj1okYQrAWLx5/urkuMRjFaYAjMlpieOnwhSAManHT4t7EIcwBWBs3j1/dXJY0jELUwDG6KikYxamAIzRu5LGToUpAGNVzIb4whSAsSqm1StMARir/VJ2RRKmAIxZEZvgC1MAxqyIJTLCFIAx0+YFgETavACwDZ5N6CreVlV1U8BxAExFvanC7hQ+65TC9Obbp7Oi9nIE2GbPX53UG9L/NIWLrM0LAImEKQAkEqYAkEiYAkAiYQoAiYQpACQSpgCQSJgCQCJhCgCJhCkAJBKmAJBImAJAImEKAImEKQAkEqYAkEiYAkAiYQoAiYQpACQSpgCQSJgCQCJhCgCJhCkAJBKmAJDomRMIw5nNly+qqjr47gAONzig36uquln/H+4We1cuJQxDmELPZvNlHY4v41UH54v4990u33k2X67+9WtVVV++fwlb6I8whY6sVZmH8c+DrgNzQ7vxer3+xyNsP0dF++dLwEI3hCm0FOF5uPbaH8G53I/Xu+r/A/a6qqo6VK+EK7QjTKGB2XxZV5tH1XjCcxOv4/XTbL68jWC9jHD9Uv7hw/CEKTxhNl++rapq9drZ8vNVf7438ao/e90WvqjDVbDCw4Qp3GOtAj2aQIA+pq6+z+rXbL68XgvW38s9ZMhPmEKIMdC6+jzeohZul1bt4PPZfFm3gS+MscJfhCmTN5sv62UqpxNp43ZhJyYwvYs28PndYu9i/B8L2hOmTFas/zz9fgkJjdQV/C+z+fK8DtUIVi1gJsd2gkxOHaKz+bJuT/4mSDtTV6s/1ZtDzObL02iZw2QIUyZDiGYhVJkkbV62XszMPRegWa1C9XjVAtb+ZZupTNladVU0my/riTH/EqSDWa9UjyZ6DpgAYcpWms2Xx7HR+ztXuAg7MVHpJiZ+wVbR5mWrREv3wjrRYtXX5bfZfLmoZ1Jr/bItVKZsjXrCS7R0BWn55tH6fTv1E8F2UJkyeqrR0apbv7/O5suP9baNqlTGTGXKqKlGt8IbVSpjpzJllGILwEshujVWVaqxVEZJZcroRAVzI0i3Uj2WehWtexgNYcqoxAYAv9qQfqvtR6Bal8poCFNGITZguIrKhe23s7aBPhRPmFK8aPndTHQXo/oRZ/9RVdWigGMZwrz+EmWPX0onTClajI/WFenuiK7U145+zoe7xd7B3WLvy91ir97R6X1VVbcd/ezPHf2cHF4bR6V0wpRixZjZGMZH64D7EGH37xH+qd7fLfb+NmYYD+A+7ChQL6PirY/5Ywc/r2/7ApWSCVOKFGNlvxR8dVYB+l93i70XdfBF2L1N3A+4/rn/GT/rB3eLvbrd/bKDyrLefP5l/T53i723d4u9f9SfJT5TqXZMTKJUwpTixJNeSp1o9DGqxlWAXq7+j7VHvbVVB+nh3WLv0co21mAedhCol+tjkfVniWr436NivU78+X1YTUwSqBRFmFKUCNLSnvRSj4H+XLdFo4r7oWqMULpIaEmvgvRmkz/cUaDuRLv3h58dFevh2uSnrsZquyJQKYowpRgFBunXqELrdmi9K8+XR/7sacImEo2CdKWjQH0dj6t76D1Wk59eRrXa1eSqLghUiiFMKUJhQXod45YvHxq7XBfP50xpSzcO0pWOAvX0qYk9a9VqaaEqUCmCMGVwBQXp5wjRJ8ctV9bau229bxukK2uB2jbgdpp8hgJDVaAyOGHKoAoJ0lU792DTEF1zmrAG9udNKt9NRKC+TRjb3H+s3XuftVA9KWBMVaAyKGHKYAoJ0npi0UGbUEts79YbMpy2/Lv3igo35TFmp/E0nqbvex5jqkPv0nRuHSpDEaYMIqqIIYP0Ombnpjzuq+0ymLqd3KgK3FRU1ict//pO288UY6r1Z/rngLsr7djYgaEIU7KLIB1qQ4a6HXkS46KPzc59VLRE28zerd//qM/ndUal2HZXozcpD+muq+O6XR4V/xB2vl8/CzkIU7LqYGODFNfR0k16/7hRt23RnqZOONrQUcLkoOTrEy3soarU3fvWz0KfhCnZRAhdDbTX7s+p1eia05af4WNqkG9qbUJSG7uz+TJ5PDe+NBwOtEXha49vIydhSk5DBOlqr9tOJvvEBJ02k45uo1rMJsKsbbv1uItWaYylHnX8xJtNzc3wJRdhShZRJbTdIaitz9HW7eIpLittq53jPsdJHxJfItq0WncSWtk/WHviTe51qWb4koUwpXcxoSX3xvUfY2ehLtq6f4qlMG9a/NXrrtaTttS2Opu3WSrzkKiUDzKPo/65IYUJSfRNmNKruBnnDpIPsSF915Vg20pt0FZjYru367Wwvw8wjrrf9eeA7wlT+naZeZz05PuHanchqtLXLX7Uz11WxwnOW7ZY33VZnVZ/H0fNGajzuIbQC2FKb2JGaM5x0vc9zpZtU9ncDrgM6G+iImy7UUQvVd0AgWr9Kb0RpvQiJn38lPHsvu9rXDKhKh1k0tFD4kHmbR743Xl1upI5UBtt6A9NCFP6kvOm1VuQhjYV3deBJx09pKjqtMofqEk7PMFDhCmdy9ze7ezJK/eJiqzNDN4iJ7zEZKQ2wfW2zxZp5kA91+6la8KUTmVu73b+5JV7tPn5pValK20+005fm/OvRKC23VO4iV2ze+maMKVruSbcfOxj1u66qF7atASLvlHH7OI2VWCOJT5Hmdahzm3mQJeEKZ2JrdvaTNRp6nPGG3vTZT2lV6UrbQJ/t+/t+dbWoebYetDevXRGmNKJqOJy3Jx6f4TZmjZtzVG0D0uuTtcCtW+v7d1LV4QpXTnOtDnDUY5HmMWMz92Gf20sVelKm+B/3dcymXVxjds+5LwJY6d0QpiSLG6uOSYdLWKtZA5tKpZRrWFMqE57nYi0kviQ80118rg5EKZ0IcfN6PPdYi/LTTxa1m2Ww4xxDK7NMedsjaY85HxTnTxujmkTpiSJqvRdz2fxNuFB1220CYsPJe12tKlopzbdFWkn18YHcU77Du/el/2w/YQpqXJUpaeZN4tvc/Me88zQNu3pbNVpPI+27VNvNqU6Jckzp4+2MlWldYvvJuMTP1622L2pPsYXI34qyZeo/ptMIHuT+fNe9TzJbVWdGj+lFWFKihw3nnpG7W+FX6UxHGMftu0z19Xp+Rjb9QxPm5dWMlWlkJOxU1oTprSlHcY2Eqa0IkxpLCZqqErZRjt2RaINYUobvr2zzXRdaEyY0oZv7myz3RHPzGYgwpRGWu5ZC2PjCyONCFOacpNhCt7ZxIEmhCkbi+UwbfashTHyxZGNCVOayLk/LgzNRDs2Jkxpws2FKaknIh244mxCmLKRuKmYeMTUaPWyEWHKptxUmCJDG2xEmLIpNxWmSKuXjQhTnqTFy8TpyvAkYcom7AbDlPn950nClE1o8TJl+7HGGh4kTHlU7ALz2lli4lSnPOqZ08MT+ryJ3FZVdTPwBTiIh0JvqoRjzqXpuflaVdWXkR3zpur/Di76OWS2gTDlKX2G6endYu98yCswmy/rYNxv8Fcu7hZ7k9i8YjZfXjbcPvLmbrE36JDAbL686OlZuypTHqXNy1P6vIlcFnD2mwRpNaGqtGrxWUtYQtLX79SucVMeI0x5StOw2dTHu8XeoC3Bls+svOrhUErV9LPuDv2klbvF3mW04vugOuVBwpQH9fyA5BKq0qaV1O3QXwAya1OFl1Cd9vWFx+YNPEiY8hhh+ndTavHWVd7vMamoiW1u9apMeZAw5TF93Rg/xI16aE3HwCYVpqFpJV7CA7X7qkz7GvJgCwhTHtNXmJYy7th0/ewUw7TptRq8eotWfNOKeiP26eUhwpTH9LUf7+At3pYzM6c0Xroyxsq06vF3TJhyL2HKvXqcfHQ90hZvpc27kVJaoX1dK8tjuJcw5SF9VRiltHibflm4LeRLQFZ3i72xLgXq67hNQuJewpSHbPt4aVNTrEpXGq3b7HlJ1UZi3LSP9aaltLEpjDDlIX21s0oJpaY3/MlVpWvG+kWij+M2o5d7CVMe0keYfh1xq3TKlelYr1kvXZChd3miTMKUh/QRpiXNhvVYuc01/SJRyrhiX1+AzOjlB8KUh/SxLGbM+9pOaU/ebTHl1jyZCVNycnMbp1Gur+1xJrLKlB8IU37Q4y4vRYw7ljDbdGSmuFnFY4yZ8gNhyn36ulmMuTKd8gSkMbue+gkgD2FKNneLvdEG0hQ3bEiw7W1QlSk/EKZA10oKmz6+BBkz5QfClPu4WbBuzC1u7XmyEKbcp4/K4rMzPU5a3PA0YUoubsjA1hKmAJBImAJAImEKPMomF/A0YQoAiYQp0DXLUZgcYUouo37kmVZnI2ZuMznClPt43Bjboo/n8sIPhClTpA3ZzJir8j7CVOXND4Qp2czmyyKqhJY7+qhwWPFljB8IU3IacyBNOUzH/JQU+0yThTDlB3eLvb7GTEsKpK8N//yUH7vVNJBKaoPuFHAMTIAwJaeSwvRLwz8/5Qqn6ReJItqgs/myr2tmgh4/EKY85LaHMzPmQJpyZbpfwDG04SHeZCNMeUgf1UVJlWnT6mKsgZJkNl+OOZD6moXctKvBBAhTHtLHuNeoA6mU2ciZtekmlBI2vXRC7hZ7wpQfCFMe0su4V0E7CbUZ9xKmGygobPq4Xk0nrjERwpSH9HVDLGXctM3nm+KWgqP8AhHt6T46IapS7iVMeUhfN40iAqll9TTFGb1NP/N1T8fRVF/XyoYN3EuYcq8e15qWVN19bvjnpximTR9QUMoaU5OPyEqY8pg+xod2Cho3bVpl7I58dmsjLddpllK59fU7pjLlXsKUx/R143hbyFk3bvq4Np918LCJLzx9PfJPmHIvYcpjtj1M27SyhenjSmiD9nWNvrZ8SAITIEx5TF/jpruFtHrbfFkQpg+7vVvslVC5afGSnTDlMX3ePI6GPvNRZTSdhLQ/hXHTGC9tukl8KWHTV+dDmPIgYcqDWobNpkpp9apO79fmMw6+AXx8Cdjt6cfb4J4HCVOe0tcNpJ7VO3h1atz0QaMM0z47Hj0uF2MLPHMReUJ9A5n3dJKOC9jvts37v53Nl9s+EaVNmB4WMBbeV8ejlM0oKJQw5Sl9fhvfH+nm93Ub8acCjqM023xOVKU8SpuXR/U8bgpjIUx5lDBlE5fOEhN2a7yUpwhTNiFMmTK//zxJmPKkWIjvOY5MlaqUJwlTNuXbOVPld58nCVM2deFMMUEf7cfLJoQpG9HqZaJUpWxEmNKE6pSpEaZsRJjShDBlSj5o8bIpYcrG7hZ79bMqPzpjTISqlI0JU5pSnTIF9YPAhSkbE6Y0EjcYE5HYdr400ogwpY1zZ40tJ0xpRJjSRn2juXXm2FIfYn4AbEyY0ljMcPTNnW2l80JjwpS23HDYRtexQQk0IkxpJdpgH5w9tsypC0obz5w1EtQ3nnc9n8B6bHaISuF1i79Tz3Ie21jby6qqdlv8vesejuUpba5JE9eeW0pbwpTW6up0Nl9+6DlQd+rQzn2Tm82XVy1u3l/uFnuHPR1SL2bzZZvwryfoHGU+zuMMYWrogta0eUmVoy12OZsvX2S+Um0mWL2ezZejCdPZfHnUsirNGjqz+fIgw+/ZtU0aSCFMSRJjp4uez+JO7q3d7hZ7Fy03pxjTmFub6jLrBJ34EnURvwN9MlZKEmFKF04zrDutq77cbbg27zeK6jSOsU3bNPc1qIN0v+f3MFZKMmFKslh3muMmO4/WZC5tN6cYQ5XT5hiz7lcb46RvMryVqpRkwpRO3C32TjPt2XseY2i9S/iSUHR1mlCVZgud2Xz5tqqqswxv9UFVSheEKV3KUTXWY2dXs/nyZaYrd76F1WnbqjTLrlfxZSnHe92qSumKMKUz8Q0/x/NOd3LN8E2sTt/2cEhJSq9KI0ivMkw4qp3bg5euCFO6dpxpE/z9qFBzLJlpW52WuG6xTcWXpSrNOHO39jmGJqATwpROxTf9XDepLIGaUJ3uzubLYm7YMaGnzbrS3j9DXMOrDDN3V44zvQ8TIUzp3N1i7zzjdnP7mdagtq1OjzOO7z4owqrIsdIBgnRh0hFdE6b05SjjM0/r8cmbPivUhOp0p5B273nL9mmvVekAQfrVpCP6IEzpReZ2b5Wp5XvecvnPmyEnI8Wkozb7J1/3WZUOEKS1o/hiBJ0SpvQm2r05Zveu9BqocRNu+wXhYoD9hdcn9bTR25ehtVm7OYP0Z+1d+iJM6VvOdm+1Fqi9bOwQlVqb8eCdTGsnv3factJRb5sZDBSkZu/SK2FKr6Kay93i7DVQEyq2Nzm3Q4zW8rzFX+1tM4P4/LnWka7cDvA7yMQIU3oXFc7Pmc90fbP+Vx/hFZ+n7ZNysmyHGDOI21bCvWxmEMuEfskcpFWMk9qcgV4JU7KIFlvO8dOVX2bzZR/t1bZPytnJNH562TK0Om+H1p91Nl/Wx/NTlz93QwvPKSUHYUpOdZX4eYAz/i6WznS23jPa122r3v0+l8vEl4e245GdbmawNj6a4+kv36tnI9ucgSyEKdmsBVDOCUkrdbjcdLlEJSqettX2u9iRqFPxM9ssg6m63sxgbXw050Sjlc/GSclJmJLV3WLvpqqqoR5PVrc9f60fMt5hmzXly8FZl+Ee4dX2sWWdbWaw1tYdYny0iuthPSlZCVOyi0B9P+CZn0eVmhzqie3eKsZPkyckxc/4JeFHdBI+8eXgy0Bt3ZXD+B2DbIQpg4j1micDnv167eVvXVSpie3endRlPGvjkm0lb2awVo3+OlA1uvJekDIEYcpgYoekDwNfgXlHY6lHLbcarFJm+Hbw/M/k2bsxTjt0NVpFkA6xMQYIU4Z1t9g7KiBQd2MstXWF2MHmFI23Qow2dUqQJm1mUL9/PUs6xmmHrEZrJ4KUIQlTBldIoNZex0YPF22W0UR7MaV1vQrUJ987Jhv9lhhirTYzqI+v/uIR7z/ETN3vfYguBwxGmFKEggK1iqUl/90mVDtoXa+W8DxYIUdbNWWyURXjpI02M4gQrau//44vHiX4EL87MChhSjEKC9Tqu1BtMvP3OHFzitWkpL+9Z0zyuUhY/rLysck4abRzryJE265h7cNCkFIKYUpRCgzUKgLkt9hF6cmbd4yfHiZuTrET7/nnxg5rE41Sw+zzJkt5IriPZvPll2jnllKJrry3uxElEaYUJwI198b4m9iPvX5/j2r1wVZsR4FaxcYOVx3tJHQbazAfXE9az2qO6vd/opXc5vFtfTNrl+I8c0koUd2GjKoodWywDztRIdZbAn6NTeUvv1+rWU9IilbtvxKPoYuq8MEgjWVBq9fQs3Ifs9rZyMb1FEeYUqy6+qirwHiUWKk3+d1YqzqfzZe3UUH++arDNAL1/cBfCm7XdwWKivowXkOvDd3UrZ2NKJkwpWh1FRLV3WWhLcd1OxFOfwZUhOtNhOvHAYOrnmFct2/PCxz73MSfm9Z7JiklE6YUL6q7gwjUMYXBThzv0Mc8xHNEu1JPRju2aT2lE6aMwmpCT1RXc1dtEk5sxsBYmM3LqMRyiP8a6Jmo5FFf2/8UpIyJMGV0YjbnQeLGCJSpHlt+2eVDyiEHbV5GKSajHMzmy9ORjwnyl7oaPVWNMlYqU0YttsX7pyp11OprdyBIGTNhyujFes6DQndN4mG3McnowLIXxk6YsjVUqaNyrRplmxgzZavEDjkHsUH8aeHb403R11g3aktAtorKlK0UFU/9LNKFK1yE22jDHwhStpHKlK0VGz0cx0YPFyPdSm8bfIiZusZF2VrClK0XN/HD2OP3VKhmcx1PeRGibD1hymTERgBCtX/XUYnaeIHJEKZMjlDtTd3OvRCiTJEwZbLWQrVeo3ocD/ymmdt4mo8xUSZNmDJ5sZzmKJbT1K+jETw7dWhf4zmpFx6PBsIU/k+EQt32PZ3Nl28jVId6oHeJVlWoVi58R5jCPWIt5OVsvnxRVdXbeE01WD9GiF6qQuF+whQeEeFRr1G9mFCwrirQKwEKmxGmsKH1YK3/RrSCD+O1P/LzeB3heaWFC80JU2hp1Qqu/grWFxGqB2v/LHVf4Hry0E28hCd0QJhCB6Jq/b9wrf4K2JexP/Bh/PNl5pCtQ/NLhObqnzfattA9YQo9iXWXX6J9+jextvVFvA7W/r/V/76JOhzXg3H1Pl+s+YS8hCkMINa2rniKCoycR7ABQCJhCgCJhCkAJBKmAJBImAJAImEKAImEKQAkEqYAkEiYAkAiYQoAiYQpACQSpgCQSJgCQCJhCgCJhCkAJBKmAJBImAJAImEKAImEKQAkEqYAkEiYAkAiYQoAiYQpACR6NqET+PL5q5PTAo4DYCoOp/JBpxSmu1VV/VTAcQCwZUpp8/5ewDEAQCulhOlNAccAwPgUUYyZgATAmBVRjBURpt8+nV0VcBgAjI8w/c7ngo4FgHEQpt9RnQLQxNdvn86+lHDGSgrTiwKOAYDxuCzlSIsJ02+fzupS/WsBhwLAOBRThJU2m/e8gGMAoHyfowgrQmlhWn/LuC3gOAAoW1HFV1Fh+u3T2e+qUwCeUE88KmqeTYmbNpwbOwXgEUelnZziwjSq0+MCDgWA8nwscaOfIrcT/PbprJ7u/KGAQwGgHF9LrEqrwvfmPbYrEgBr3kb3sjjFhmmcsEPjpwBUVfW+pKUw3yv6qTERqG8tlwGYtPelzd79XvGPYItvIgdavgCTVHyQVmN5nmlsZFy3fD8WcDgA9K8e4vvnGIK09o8//vijgMPY3PNXJ/XEpNOqqnbGcswANFIXTkelTja6z+jCtPorUF9GoL4r4HAA6MbXCNHRPZJzlGG6IlQBtkI9J+Z8LC3d+4w6TFciVN/GYt79Mo4KgEd8jeeRXpS85GVTWxGm656/OnkRs3/rCUsv4wXAsOrxz5vVKyaWbo2tC1MAyG0US2MAoGTCFAASCVMASCRMASCRMAWARMIUABIJUwBIJEwBIJEwBYBEwhQAEglTAEgkTAEgkTAFgETCFAASCVMASCRMASCRMAWARMIUABIJUwBIJEwBIJEwBYBEwhQAEglTAEgkTAEgkTAFgETCFAASCVMASCRMASCRMAWARMIUABIJUwBIJEwBIJEwBYBEwhQAEglTAEgkTAEgkTAFgETCFAASCVMASCRMASCRMAWARMIUABIJUwBIJEwBIJEwBYBEwhQAEglTAEgkTAEgkTAFgETCFAASCVMASCRMASCRMAWARMIUABIJUwBIJEwBIJEwBYAUVVX9L/V1LyB0Bw7FAAAAAElFTkSuQmCC;fontSize=24;imageBackground=default;" parent="1" vertex="1">
          <mxGeometry x="297.38" y="284.5" width="47" height="47" as="geometry" />
        </mxCell>
        <mxCell id="L8tGwODf9pzZJjYV8ij8-77" value="" style="shape=image;verticalLabelPosition=bottom;labelBackgroundColor=default;verticalAlign=top;aspect=fixed;imageAspect=0;image=data:image/svg+xml,PHN2ZyB4bWxucz0iaHR0cDovL3d3dy53My5vcmcvMjAwMC9zdmciIGZpbGw9Im5vbmUiIHZpZXdCb3g9IjAgMCA0OCA0OCIgaGVpZ2h0PSI0OCIgd2lkdGg9IjQ4Ij4mI3hhOzxjaXJjbGUgc3Ryb2tlLXdpZHRoPSIwLjg1NzE0MyIgc3Ryb2tlPSIjRDVEQUREIiBmaWxsPSJ1cmwoI3BhaW50MF9saW5lYXJfMzIzMl80NjAyKSIgcj0iMjMuNTcxNCIgY3k9IjI0IiBjeD0iMjQiLz4mI3hhOzxnIGNsaXAtcGF0aD0idXJsKCNjbGlwMF8zMjMyXzQ2MDIpIj4mI3hhOzxwYXRoIGZpbGw9InVybCgjcGFpbnQxX2xpbmVhcl8zMjMyXzQ2MDIpIiBkPSJNMTUuNzUwNSAxNi42Njc3QzE2LjcyNDkgMTMuMzM2MiAxOS43OTc0IDEwLjQ5NjEgMjMuODY3NyAxMC40OTYxQzI3LjE2MzUgMTAuNDk2MSAyOS43MzQxIDEyLjE0NDYgMzEuMjU2MSAxNC42Mjg4QzM0LjYzOTYgMTUuMzAwMSAzNy4zNjc3IDE4LjMyMTcgMzcuMzY3NyAyMi4yMzE3QzM3LjM2NzcgMjUuNTg1NSAzNS40OTQ5IDI3Ljk4MzcgMzMuMDI0OCAyOS4xNDkyQzMzLjExMzYgMjguODUwNyAzMy4xNjEzIDI4LjUzNDQgMzMuMTYxMyAyOC4yMDdWMjYuOTgzOEMzMy4xNjEzIDI2LjE1ODkgMzIuODU4NiAyNS40MDQ4IDMyLjM1ODMgMjQuODI2M0MzMy4wMDkxIDI0LjIyMzcgMzMuNDE2NSAyMy4zNjE4IDMzLjQxNjUgMjIuNDA0OVYyMS40ODk2QzMzLjQxNjUgMTkuNjY3MyAzMS45MzkzIDE4LjE5MDEgMzAuMTE3IDE4LjE5MDFIMjkuMjA2NkMyOC4xOTkzIDE4LjE5MDEgMjcuMjk3MyAxOC42NDE1IDI2LjY5MjEgMTkuMzUzMVYxOC41ODkzQzI2LjY5MjEgMTYuNzY3IDI1LjIxNDkgMTUuMjg5OCAyMy4zOTI2IDE1LjI4OThIMjIuNDgyMkMyMC42NiAxNS4yODk4IDE5LjE4MjcgMTYuNzY3IDE5LjE4MjcgMTguNTg5M1YxOS41MDQ2QzE5LjE4MjcgMTkuNzQ5NyAxOS4yMDk1IDE5Ljk4ODUgMTkuMjYwMiAyMC4yMTg0QzE5LjIyODMgMjAuMjE3NSAxOS4xOTYyIDIwLjIxNyAxOS4xNjQxIDIwLjIxN0gxOC4yNTM3QzE2LjQzMTUgMjAuMjE3IDE0Ljk1NDIgMjEuNjk0MiAxNC45NTQyIDIzLjUxNjVWMjQuNDMxOEMxNC45NTQyIDI1LjkxNzkgMTUuOTM2OCAyNy4xNzQ2IDE3LjI4NzcgMjcuNTg3NkMxNi43OTIxIDI4LjE2NDkgMTYuNDkyNiAyOC45MTU0IDE2LjQ5MjYgMjkuNzM1OVYyOS44NjI4QzE0Ljk4OTcgMjkuNjY2NCAxMy42MTU5IDI5LjA4MjQgMTIuNTQ1MyAyOC4wMzU1QzExLjE5NTMgMjYuNzE1NiAxMC42MzIxIDI0Ljk1NjkgMTAuNjMyMSAyMy4yMDk3QzEwLjYzMjEgMjEuMjg3NyAxMS4zNzY1IDE5LjQxMjYgMTIuODYxMiAxOC4xMTA2QzEzLjY4ODIgMTcuMzg1MiAxNC42NzM2IDE2LjkgMTUuNzUwNSAxNi42Njc3WiIgY2xpcC1ydWxlPSJldmVub2RkIiBmaWxsLXJ1bGU9ImV2ZW5vZGQiLz4mI3hhOzxwYXRoIGZpbGw9InVybCgjcGFpbnQyX2xpbmVhcl8zMjMyXzQ2MDIpIiBkPSJNMjMuMzkyNiAxNi42NDAxQzI0LjQ2OTMgMTYuNjQwMSAyNS4zNDIxIDE3LjUxMyAyNS4zNDIxIDE4LjU4OTZWMTkuNTA0OUMyNS4zNDIxIDIwLjEwNTYgMjUuMDcwNCAyMC42NDI4IDI0LjY0MzMgMjEuMDAwNEwyNS4wMTM0IDIyLjIxMzhDMjUuNDk5MiAyMi4yNDMyIDI1LjkzNjkgMjIuNDUwNCAyNi4yNjI0IDIyLjc3MTJMMjcuMjU3MSAyMi4xOTYxVjIxLjQ4OTlDMjcuMjU3MSAyMC40MTMyIDI4LjEyOTkgMTkuNTQwNCAyOS4yMDY2IDE5LjU0MDRIMzAuMTE3QzMxLjE5MzcgMTkuNTQwNCAzMi4wNjY1IDIwLjQxMzIgMzIuMDY2NSAyMS40ODk5VjIyLjQwNTJDMzIuMDY2NSAyMy40ODE5IDMxLjE5MzcgMjQuMzU0NyAzMC4xMTcgMjQuMzU0N0gyOS4yMDY2QzI4LjY3ODQgMjQuMzU0NyAyOC4xOTkzIDI0LjE0NDcgMjcuODQ4MiAyMy44MDM2TDI2Ljg2MTMgMjQuMzc0MkwyNi44NDM0IDI0LjM0MzNWMjUuMDcwMUMyNi44NDM0IDI1LjA3NDUgMjYuODQzNCAyNS4wNzkgMjYuODQzNCAyNS4wODM0TDI3LjQyMzcgMjUuNDYzN0MyNy43NTc3IDI1LjE5NTMgMjguMTgyMSAyNS4wMzQ3IDI4LjY0MzkgMjUuMDM0N0gyOS44NjE3QzMwLjkzODQgMjUuMDM0NyAzMS44MTEyIDI1LjkwNzUgMzEuODExMiAyNi45ODQyVjI4LjIwNzRDMzEuODExMiAyOS4yODQxIDMwLjkzODQgMzAuMTU2OSAyOS44NjE3IDMwLjE1NjlIMjguNjQzOUMyNy41NjcyIDMwLjE1NjkgMjYuNjk0NCAyOS4yODQxIDI2LjY5NDQgMjguMjA3NFYyNy4wMDMzTDI2LjA5MTYgMjYuNjA4NEMyNS43NjExIDI2Ljg2NiAyNS4zNDU1IDI3LjAxOTYgMjQuODkzOSAyNy4wMTk2SDIzLjk4MzVDMjMuOTI5OCAyNy4wMTk2IDIzLjg3NjYgMjcuMDE3NCAyMy44MjM5IDI3LjAxMzFMMjIuNDQ2MSAyOC44NjMzQzIyLjU3NzggMjkuMTI1OSAyMi42NTE5IDI5LjQyMjQgMjIuNjUxOSAyOS43MzYyVjMwLjY1MTVDMjIuNjUxOSAzMS43MjgyIDIxLjc3OTEgMzIuNjAxIDIwLjcwMjQgMzIuNjAxSDE5Ljc5MjFDMTguNzE1NCAzMi42MDEgMTcuODQyNiAzMS43MjgyIDE3Ljg0MjYgMzAuNjUxNUwxNy44NDI2IDI5LjczNjJDMTcuODQyNiAyOC42NTk2IDE4LjcxNTQgMjcuNzg2NyAxOS43OTIxIDI3Ljc4NjdIMjAuNzAyNEMyMC44NDI4IDI3Ljc4NjcgMjAuOTc5OCAyNy44MDE2IDIxLjExMTcgMjcuODI5OEwyMi4zNjE0IDI2LjE1MThDMjIuMTU0NiAyNS44NDIyIDIyLjAzNCAyNS40NzAyIDIyLjAzNCAyNS4wNzAxVjI1LjA0NDVMMjEuMDE1NSAyNS4wNDQ1QzIwLjc1ODcgMjUuODIxMiAyMC4wMjY4IDI2LjM4MTcgMTkuMTY0MSAyNi4zODE3SDE4LjI1MzdDMTcuMTc3IDI2LjM4MTcgMTYuMzA0MiAyNS41MDg5IDE2LjMwNDIgMjQuNDMyMlYyMy41MTY5QzE2LjMwNDIgMjIuNDQwMiAxNy4xNzcgMjEuNTY3NCAxOC4yNTM3IDIxLjU2NzRIMTkuMTY0MUMyMC4xODY5IDIxLjU2NzQgMjEuMDI1OCAyMi4zNTUxIDIxLjEwNzEgMjMuMzU3TDIyLjIwNjQgMjMuMzU3QzIyLjQxNzQgMjIuODkwNiAyMi44MDY2IDIyLjUyMjEgMjMuMjg3MSAyMi4zMzgzTDIzLjAxNzUgMjEuNDU0NEgyMi40ODIyQzIxLjQwNTUgMjEuNDU0NCAyMC41MzI3IDIwLjU4MTYgMjAuNTMyNyAxOS41MDQ5VjE4LjU4OTZDMjAuNTMyNyAxNy41MTMgMjEuNDA1NSAxNi42NDAxIDIyLjQ4MjIgMTYuNjQwMUgyMy4zOTI2Wk0yMy42NTQ2IDE4LjU4OTZDMjMuNjU0NiAxOC40NDQ5IDIzLjUzNzMgMTguMzI3NiAyMy4zOTI2IDE4LjMyNzZMMjIuNDgyMiAxOC4zMjc2QzIyLjMzNzUgMTguMzI3NiAyMi4yMjAyIDE4LjQ0NDkgMjIuMjIwMiAxOC41ODk2VjE5LjUwNDlDMjIuMjIwMiAxOS42NDk2IDIyLjMzNzUgMTkuNzY2OSAyMi40ODIyIDE5Ljc2NjlIMjMuMzkyNkMyMy41MzczIDE5Ljc2NjkgMjMuNjU0NiAxOS42NDk2IDIzLjY1NDYgMTkuNTA0OVYxOC41ODk2Wk0zMC4zNzkgMjEuNDg5OUMzMC4zNzkgMjEuMzQ1MiAzMC4yNjE3IDIxLjIyNzkgMzAuMTE3IDIxLjIyNzlIMjkuMjA2NkMyOS4wNjE5IDIxLjIyNzkgMjguOTQ0NiAyMS4zNDUyIDI4Ljk0NDYgMjEuNDg5OVYyMi40MDUyQzI4Ljk0NDYgMjIuNTQ5OSAyOS4wNjE5IDIyLjY2NzIgMjkuMjA2NiAyMi42NjcySDMwLjExN0MzMC4yNjE3IDIyLjY2NzIgMzAuMzc5IDIyLjU0OTkgMzAuMzc5IDIyLjQwNTJWMjEuNDg5OVpNMzAuMTIzNyAyNi45ODQyQzMwLjEyMzcgMjYuODM5NSAzMC4wMDY0IDI2LjcyMjIgMjkuODYxNyAyNi43MjIySDI4LjY0MzlDMjguNDk5MiAyNi43MjIyIDI4LjM4MTkgMjYuODM5NSAyOC4zODE5IDI2Ljk4NDJWMjguMjA3NEMyOC4zODE5IDI4LjM1MjEgMjguNDk5MiAyOC40Njk0IDI4LjY0MzkgMjguNDY5NEgyOS44NjE3QzMwLjAwNjQgMjguNDY5NCAzMC4xMjM3IDI4LjM1MjEgMzAuMTIzNyAyOC4yMDc0VjI2Ljk4NDJaTTI0Ljg5MzkgMjMuODk3N0MyNS4wMzg2IDIzLjg5NzcgMjUuMTU1OSAyNC4wMTUgMjUuMTU1OSAyNC4xNTk3VjI1LjA3MDFDMjUuMTU1OSAyNS4yMTQ4IDI1LjAzODYgMjUuMzMyMSAyNC44OTM5IDI1LjMzMjFIMjMuOTgzNUMyMy44Mzg4IDI1LjMzMjEgMjMuNzIxNSAyNS4yMTQ4IDIzLjcyMTUgMjUuMDcwMVYyNC4xNTk3QzIzLjcyMTUgMjQuMDE1IDIzLjgzODggMjMuODk3NyAyMy45ODM1IDIzLjg5NzdIMjQuODkzOVpNMTkuMTY0MSAyMy4yNTQ5QzE5LjMwODggMjMuMjU0OSAxOS40MjYxIDIzLjM3MjIgMTkuNDI2MSAyMy41MTY5VjI0LjQzMjJDMTkuNDI2MSAyNC41NzY5IDE5LjMwODggMjQuNjk0MiAxOS4xNjQxIDI0LjY5NDJIMTguMjUzN0MxOC4xMDkgMjQuNjk0MiAxNy45OTE3IDI0LjU3NjkgMTcuOTkxNyAyNC40MzIyTDE3Ljk5MTcgMjMuNTE2OUMxNy45OTE3IDIzLjM3MjIgMTguMTA5IDIzLjI1NDkgMTguMjUzNyAyMy4yNTQ5SDE5LjE2NDFaTTIwLjk2NDQgMjkuNzM2MkMyMC45NjQ0IDI5LjU5MTUgMjAuODQ3MSAyOS40NzQyIDIwLjcwMjQgMjkuNDc0MkgxOS43OTIxQzE5LjY0NzQgMjkuNDc0MiAxOS41MzAxIDI5LjU5MTUgMTkuNTMwMSAyOS43MzYyVjMwLjY1MTVDMTkuNTMwMSAzMC43OTYyIDE5LjY0NzQgMzAuOTEzNSAxOS43OTIxIDMwLjkxMzVIMjAuNzAyNEMyMC44NDcxIDMwLjkxMzUgMjAuOTY0NCAzMC43OTYyIDIwLjk2NDQgMzAuNjUxNVYyOS43MzYyWiIgY2xpcC1ydWxlPSJldmVub2RkIiBmaWxsLXJ1bGU9ImV2ZW5vZGQiLz4mI3hhOzxwYXRoIGZpbGw9InVybCgjcGFpbnQzX2xpbmVhcl8zMjMyXzQ2MDIpIiBkPSJNMTMuMzEwNiAzMC44NjA4QzEzLjk2MyAzMC44NjA4IDE0LjQ5MTkgMzEuMzg5NyAxNC40OTE5IDMyLjA0MjFWMzMuMzcyOUMxNC40OTE5IDM0LjIxMTcgMTUuMTcxOSAzNC44OTE2IDE2LjAxMDYgMzQuODkxNkgzMS45ODk5QzMyLjgyODcgMzQuODkxNiAzMy41MDg2IDM0LjIxMTcgMzMuNTA4NiAzMy4zNzI5VjMyLjA0MjFDMzMuNTA4NiAzMS4zODk3IDM0LjAzNzUgMzAuODYwOCAzNC42ODk5IDMwLjg2MDhDMzUuMzQyMyAzMC44NjA4IDM1Ljg3MTIgMzEuMzg5NyAzNS44NzEyIDMyLjA0MjFWMzMuMzcyOUMzNS44NzEyIDM1LjUxNjQgMzQuMTMzNSAzNy4yNTQxIDMxLjk4OTkgMzcuMjU0MUgxNi4wMTA2QzEzLjg2NzEgMzcuMjU0MSAxMi4xMjk0IDM1LjUxNjQgMTIuMTI5NCAzMy4zNzI5VjMyLjA0MjFDMTIuMTI5NCAzMS4zODk3IDEyLjY1ODMgMzAuODYwOCAxMy4zMTA2IDMwLjg2MDhaTTMwLjgxNSAzMy4zMzIxQzMxLjM3NDIgMzMuMzMyMSAzMS44Mjc1IDMyLjg3ODggMzEuODI3NSAzMi4zMTk2QzMxLjgyNzUgMzEuNzYwNCAzMS4zNzQyIDMxLjMwNzEgMzAuODE1IDMxLjMwNzFDMzAuMjU1OCAzMS4zMDcxIDI5LjgwMjUgMzEuNzYwNCAyOS44MDI1IDMyLjMxOTZDMjkuODAyNSAzMi44Nzg4IDMwLjI1NTggMzMuMzMyMSAzMC44MTUgMzMuMzMyMVpNMjguNzI2MSAzMi4zMTk2QzI4LjcyNjEgMzIuODc4OCAyOC4yNzI3IDMzLjMzMjEgMjcuNzEzNiAzMy4zMzIxQzI3LjE1NDQgMzMuMzMyMSAyNi43MDExIDMyLjg3ODggMjYuNzAxMSAzMi4zMTk2QzI2LjcwMTEgMzEuNzYwNCAyNy4xNTQ0IDMxLjMwNzEgMjcuNzEzNiAzMS4zMDcxQzI4LjI3MjcgMzEuMzA3MSAyOC43MjYxIDMxLjc2MDQgMjguNzI2MSAzMi4zMTk2WiIgY2xpcC1ydWxlPSJldmVub2RkIiBmaWxsLXJ1bGU9ImV2ZW5vZGQiLz4mI3hhOzwvZz4mI3hhOzxkZWZzPiYjeGE7PGxpbmVhckdyYWRpZW50IGdyYWRpZW50VW5pdHM9InVzZXJTcGFjZU9uVXNlIiB5Mj0iNDQuMjQ0MyIgeDI9IjQxLjA2NDUiIHkxPSI2LjgxMjg0IiB4MT0iNC4zNTI4NyIgaWQ9InBhaW50MF9saW5lYXJfMzIzMl80NjAyIj4mI3hhOzxzdG9wIHN0b3AtY29sb3I9IndoaXRlIi8+JiN4YTs8c3RvcCBzdG9wLWNvbG9yPSIjRUFFQ0VFIiBvZmZzZXQ9IjEiLz4mI3hhOzwvbGluZWFyR3JhZGllbnQ+JiN4YTs8bGluZWFyR3JhZGllbnQgZ3JhZGllbnRVbml0cz0idXNlclNwYWNlT25Vc2UiIHkyPSIzMS4xODQiIHgyPSIyNy41MjMzIiB5MT0iMTMuMzkyMyIgeDE9IjE0LjYzOTkiIGlkPSJwYWludDFfbGluZWFyXzMyMzJfNDYwMiI+JiN4YTs8c3RvcCBzdG9wLWNvbG9yPSIjMDE5NUZGIi8+JiN4YTs8c3RvcCBzdG9wLWNvbG9yPSIjMTE0N0U5IiBvZmZzZXQ9IjAuOTkxMDI4Ii8+JiN4YTs8L2xpbmVhckdyYWRpZW50PiYjeGE7PGxpbmVhckdyYWRpZW50IGdyYWRpZW50VW5pdHM9InVzZXJTcGFjZU9uVXNlIiB5Mj0iMzAuMDY2NyIgeDI9IjI5LjgwNDQiIHkxPSIxOC45ODgzIiB4MT0iMTguNjM0NSIgaWQ9InBhaW50Ml9saW5lYXJfMzIzMl80NjAyIj4mI3hhOzxzdG9wIHN0b3AtY29sb3I9IiMxMzQ4RkYiLz4mI3hhOzxzdG9wIHN0b3AtY29sb3I9IiMwNjIzOEQiIG9mZnNldD0iMSIvPiYjeGE7PC9saW5lYXJHcmFkaWVudD4mI3hhOzxsaW5lYXJHcmFkaWVudCBncmFkaWVudFVuaXRzPSJ1c2VyU3BhY2VPblVzZSIgeTI9IjQwLjE0OTkiIHgyPSIxNy44Nzc5IiB5MT0iMzEuODAxNCIgeDE9IjE1LjYzOTUiIGlkPSJwYWludDNfbGluZWFyXzMyMzJfNDYwMiI+JiN4YTs8c3RvcCBzdG9wLWNvbG9yPSIjMTM0OEZGIi8+JiN4YTs8c3RvcCBzdG9wLWNvbG9yPSIjMDYyMzhEIiBvZmZzZXQ9IjEiLz4mI3hhOzwvbGluZWFyR3JhZGllbnQ+JiN4YTs8Y2xpcFBhdGggaWQ9ImNsaXAwXzMyMzJfNDYwMiI+JiN4YTs8cmVjdCB0cmFuc2Zvcm09InRyYW5zbGF0ZSgxMC41IDEwLjUpIiBmaWxsPSJ3aGl0ZSIgaGVpZ2h0PSIyNyIgd2lkdGg9IjI3Ii8+JiN4YTs8L2NsaXBQYXRoPiYjeGE7PC9kZWZzPiYjeGE7PC9zdmc+;points=[[0,0,0,0,0],[0,0.25,0,0,0],[0,0.5,0,0,0],[0,0.75,0,0,0],[0.25,0,0,0,0],[0.5,0,0,0,0],[0.75,0,0,0,0],[1,0,0,0,0],[1,0.25,0,0,0],[1,0.5,0,0,0],[1,0.75,0,0,0]];" parent="1" vertex="1">
          <mxGeometry x="386.63" y="322.5" width="48" height="48" as="geometry" />
        </mxCell>
        <mxCell id="L8tGwODf9pzZJjYV8ij8-78" value="&lt;font color=&quot;#1d2d3e&quot; size=&quot;1&quot; face=&quot;arial&quot; style=&quot;&quot;&gt;&lt;b style=&quot;font-size: 14px;&quot;&gt;Cloud Integration Flow&lt;br&gt;&lt;/b&gt;&lt;/font&gt;" style="text;html=1;align=center;verticalAlign=top;resizable=1;points=[[0,0.5,0,0,0],[0.21,1,0,0,0],[0.5,1,0,0,0],[0.85,1,0,0,0],[1,0.5,0,0,0]];autosize=0;strokeColor=none;fillColor=none;fontSize=12;fontColor=default;fontFamily=Helvetica;fixedWidth=1;imageWidth=24;whiteSpace=wrap;labelBackgroundColor=none;" parent="1" vertex="1">
          <mxGeometry x="349.63" y="370.5" width="122" height="46" as="geometry" />
        </mxCell>
        <mxCell id="L8tGwODf9pzZJjYV8ij8-79" value="&lt;font face=&quot;arial&quot; style=&quot;font-size: 18px;&quot;&gt;&lt;b style=&quot;&quot;&gt;Subaccount - Azure US&lt;/b&gt;&lt;/font&gt;" style="text;html=1;align=left;verticalAlign=middle;resizable=0;points=[];autosize=1;strokeColor=none;fillColor=none;fontSize=12;fontColor=#1d2d3e;fontFamily=Helvetica;" parent="1" vertex="1">
          <mxGeometry x="298.38" y="238.49999999999997" width="216" height="34" as="geometry" />
        </mxCell>
        <mxCell id="L8tGwODf9pzZJjYV8ij8-82" value="" style="rounded=1;whiteSpace=wrap;html=1;strokeColor=#0070F2;strokeWidth=1.5;arcSize=16;fillColor=#FFFFFF;perimeterSpacing=0;absoluteArcSize=1;" parent="1" vertex="1">
          <mxGeometry x="271.63" y="465" width="278" height="216" as="geometry" />
        </mxCell>
        <mxCell id="L8tGwODf9pzZJjYV8ij8-83" value="" style="rounded=0;whiteSpace=wrap;html=1;fontSize=24;labelBackgroundColor=none;fillColor=none;strokeColor=#707070;strokeWidth=1.5;" parent="1" vertex="1">
          <mxGeometry x="299.63" y="541" width="222" height="120" as="geometry" />
        </mxCell>
        <mxCell id="L8tGwODf9pzZJjYV8ij8-84" value="&lt;font color=&quot;#053b70&quot; style=&quot;font-size: 18px;&quot;&gt;&lt;b&gt;Custom Domain&lt;/b&gt;&lt;/font&gt;" style="text;html=1;strokeColor=none;fillColor=default;align=center;verticalAlign=middle;whiteSpace=wrap;rounded=0;labelBackgroundColor=none;fontSize=15;opacity=0;" parent="1" vertex="1">
          <mxGeometry x="344.01" y="521" width="154.5" height="20" as="geometry" />
        </mxCell>
        <mxCell id="L8tGwODf9pzZJjYV8ij8-85" value="" style="shape=image;verticalLabelPosition=bottom;verticalAlign=top;imageAspect=0;aspect=fixed;image=data:image/png,iVBORw0KGgoAAAANSUhEUgAAAdMAAAHTCAYAAAB8/vKtAAAACXBIWXMAAFxGAABcRgEUlENBAAAe80lEQVR4nO3dTXLb1poGYNwulyccyL0CuTcg6c5dZfUK7F6B5RVQWkGUFUhcQeQVRF5BpCrPr8wNtL2CjgaaeJIuJB+7GVs/BA5wcEA8TxUrqXttEQQUvPy+84N//PHHHxUA0N6/OXcAkEaYAkAiYQoAiYQpACQSpgCQSJgCQCJhCgCJhCkAJBKmAJBImAJAImEKAImEKQAkEqYAkEiYAkAiYQoAiYQpACQSpgCQSJgCQCJhCgCJhCkAJBKmAJBImAJAImEKAImEKQAkEqYAkEiYAkAiYQoAiYQpACQSpgCQSJgCQCJhCgCJhCkAJBKmAJBImAJAImEKAImEKQAkEqYAkEiYAkAiYQoAiYQpACQSpgCQSJgCQCJhCgCJhCkAJBKmAJBImAJAImEKAImEKQAkEqYAkEiYAkAiYQoAiYQpACQSpgCQSJgCQCJhCgCJhCkAJBKmAJDoWYkn8Pmrk4OqqurXywIOZwquvn06uxryc7rm2bnm0zP4Nd9m//jjjz+K+XjPX50cVlV1UVXVbgGHMzW3VVWdf/t0dprzc7vmg3LNp2eQaz4FxYRp/Af2WwGHMnWLb5/OjnOcA9e8GK759GS75lNR0pjpRQHHQFXNn786ydV2c83L4JpPT85rPglFhGmMnWj5lOOo7yNxzYvjmk9P79d8SkqpTA8KOAb+32GGc+Gal8U1n54c13wySglT7Ybpcc2nxzVna1lnCgCJhCkAJBKmAJBImAJAImEKAImEKQAkEqYAkEiYAkAiYQoAiYQpACQSpgCQSJgCQCJhCgCJhCkAJBKmDOXKmS/KlwwH45qXJcc1nwxhyiC+fTqrb6y3zn4xLvs+ENe8OL1f8ykRpgzp3Nkvwudvn85y3Vhd8zLkvOaTIEwZzLdPZ6dVVS1cgUF9rqrqMNcBuOZFyHrNp+LZ1E8Aw/r26ez4+auTi6qq3voPPKt6vOxyiOrENR/MYNd8CoQpg/v26eymqqobV2I6XHO2jTYvACQSpgCQSJgCQCJhCgCJhCkAJBKmAJBImAJAImEKAImEKQAkEqYAkEiYAkAiYQoAiYQpACQSpgCQSJgCQCJhCgCJhCkAJBKmAJBImAJAImEKAImEKQAkEqYAkEiYAkCiZ04g93j5/NXJqRMDdOT3qqpu6n9++3R2s40nVZhyn92qqn5yZoCuPX91Uv/E6wjXi20JV2EKQG6v4zV//urkax2qVVWdf/t09vtYr4QxUwCGtOqEfamHl56/OnkxxqshTAEowc5aqL4d2xURpgCUpA7VX5+/OrkYU5UqTAEo0buqqq7GEqjCFIBS7Ufb96D0KyRMASjZTlSoL0s+SGEKQOnqQL0sueUrTAEYg/1Yj1okYQrAWLx5/urkuMRjFaYAjMlpieOnwhSAManHT4t7EIcwBWBs3j1/dXJY0jELUwDG6KikYxamAIzRu5LGToUpAGNVzIb4whSAsSqm1StMARir/VJ2RRKmAIxZEZvgC1MAxqyIJTLCFIAx0+YFgETavACwDZ5N6CreVlV1U8BxAExFvanC7hQ+65TC9Obbp7Oi9nIE2GbPX53UG9L/NIWLrM0LAImEKQAkEqYAkEiYAkAiYQoAiYQpACQSpgCQSJgCQCJhCgCJhCkAJBKmAJBImAJAImEKAImEKQAkEqYAkEiYAkAiYQoAiYQpACQSpgCQSJgCQCJhCgCJhCkAJBKmAJDomRMIw5nNly+qqjr47gAONzig36uquln/H+4We1cuJQxDmELPZvNlHY4v41UH54v4990u33k2X67+9WtVVV++fwlb6I8whY6sVZmH8c+DrgNzQ7vxer3+xyNsP0dF++dLwEI3hCm0FOF5uPbaH8G53I/Xu+r/A/a6qqo6VK+EK7QjTKGB2XxZV5tH1XjCcxOv4/XTbL68jWC9jHD9Uv7hw/CEKTxhNl++rapq9drZ8vNVf7438ao/e90WvqjDVbDCw4Qp3GOtAj2aQIA+pq6+z+rXbL68XgvW38s9ZMhPmEKIMdC6+jzeohZul1bt4PPZfFm3gS+MscJfhCmTN5sv62UqpxNp43ZhJyYwvYs28PndYu9i/B8L2hOmTFas/zz9fgkJjdQV/C+z+fK8DtUIVi1gJsd2gkxOHaKz+bJuT/4mSDtTV6s/1ZtDzObL02iZw2QIUyZDiGYhVJkkbV62XszMPRegWa1C9XjVAtb+ZZupTNladVU0my/riTH/EqSDWa9UjyZ6DpgAYcpWms2Xx7HR+ztXuAg7MVHpJiZ+wVbR5mWrREv3wjrRYtXX5bfZfLmoZ1Jr/bItVKZsjXrCS7R0BWn55tH6fTv1E8F2UJkyeqrR0apbv7/O5suP9baNqlTGTGXKqKlGt8IbVSpjpzJllGILwEshujVWVaqxVEZJZcroRAVzI0i3Uj2WehWtexgNYcqoxAYAv9qQfqvtR6Bal8poCFNGITZguIrKhe23s7aBPhRPmFK8aPndTHQXo/oRZ/9RVdWigGMZwrz+EmWPX0onTClajI/WFenuiK7U145+zoe7xd7B3WLvy91ir97R6X1VVbcd/ezPHf2cHF4bR6V0wpRixZjZGMZH64D7EGH37xH+qd7fLfb+NmYYD+A+7ChQL6PirY/5Ywc/r2/7ApWSCVOKFGNlvxR8dVYB+l93i70XdfBF2L1N3A+4/rn/GT/rB3eLvbrd/bKDyrLefP5l/T53i723d4u9f9SfJT5TqXZMTKJUwpTixJNeSp1o9DGqxlWAXq7+j7VHvbVVB+nh3WLv0co21mAedhCol+tjkfVniWr436NivU78+X1YTUwSqBRFmFKUCNLSnvRSj4H+XLdFo4r7oWqMULpIaEmvgvRmkz/cUaDuRLv3h58dFevh2uSnrsZquyJQKYowpRgFBunXqELrdmi9K8+XR/7sacImEo2CdKWjQH0dj6t76D1Wk59eRrXa1eSqLghUiiFMKUJhQXod45YvHxq7XBfP50xpSzcO0pWOAvX0qYk9a9VqaaEqUCmCMGVwBQXp5wjRJ8ctV9bau229bxukK2uB2jbgdpp8hgJDVaAyOGHKoAoJ0lU792DTEF1zmrAG9udNKt9NRKC+TRjb3H+s3XuftVA9KWBMVaAyKGHKYAoJ0npi0UGbUEts79YbMpy2/Lv3igo35TFmp/E0nqbvex5jqkPv0nRuHSpDEaYMIqqIIYP0Ombnpjzuq+0ymLqd3KgK3FRU1ict//pO288UY6r1Z/rngLsr7djYgaEIU7KLIB1qQ4a6HXkS46KPzc59VLRE28zerd//qM/ndUal2HZXozcpD+muq+O6XR4V/xB2vl8/CzkIU7LqYGODFNfR0k16/7hRt23RnqZOONrQUcLkoOTrEy3soarU3fvWz0KfhCnZRAhdDbTX7s+p1eia05af4WNqkG9qbUJSG7uz+TJ5PDe+NBwOtEXha49vIydhSk5DBOlqr9tOJvvEBJ02k45uo1rMJsKsbbv1uItWaYylHnX8xJtNzc3wJRdhShZRJbTdIaitz9HW7eIpLittq53jPsdJHxJfItq0WncSWtk/WHviTe51qWb4koUwpXcxoSX3xvUfY2ehLtq6f4qlMG9a/NXrrtaTttS2Opu3WSrzkKiUDzKPo/65IYUJSfRNmNKruBnnDpIPsSF915Vg20pt0FZjYru367Wwvw8wjrrf9eeA7wlT+naZeZz05PuHanchqtLXLX7Uz11WxwnOW7ZY33VZnVZ/H0fNGajzuIbQC2FKb2JGaM5x0vc9zpZtU9ncDrgM6G+iImy7UUQvVd0AgWr9Kb0RpvQiJn38lPHsvu9rXDKhKh1k0tFD4kHmbR743Xl1upI5UBtt6A9NCFP6kvOm1VuQhjYV3deBJx09pKjqtMofqEk7PMFDhCmdy9ze7ezJK/eJiqzNDN4iJ7zEZKQ2wfW2zxZp5kA91+6la8KUTmVu73b+5JV7tPn5pValK20+005fm/OvRKC23VO4iV2ze+maMKVruSbcfOxj1u66qF7atASLvlHH7OI2VWCOJT5Hmdahzm3mQJeEKZ2JrdvaTNRp6nPGG3vTZT2lV6UrbQJ/t+/t+dbWoebYetDevXRGmNKJqOJy3Jx6f4TZmjZtzVG0D0uuTtcCtW+v7d1LV4QpXTnOtDnDUY5HmMWMz92Gf20sVelKm+B/3dcymXVxjds+5LwJY6d0QpiSLG6uOSYdLWKtZA5tKpZRrWFMqE57nYi0kviQ80118rg5EKZ0IcfN6PPdYi/LTTxa1m2Ww4xxDK7NMedsjaY85HxTnTxujmkTpiSJqvRdz2fxNuFB1220CYsPJe12tKlopzbdFWkn18YHcU77Du/el/2w/YQpqXJUpaeZN4tvc/Me88zQNu3pbNVpPI+27VNvNqU6Jckzp4+2MlWldYvvJuMTP1622L2pPsYXI34qyZeo/ptMIHuT+fNe9TzJbVWdGj+lFWFKihw3nnpG7W+FX6UxHGMftu0z19Xp+Rjb9QxPm5dWMlWlkJOxU1oTprSlHcY2Eqa0IkxpLCZqqErZRjt2RaINYUobvr2zzXRdaEyY0oZv7myz3RHPzGYgwpRGWu5ZC2PjCyONCFOacpNhCt7ZxIEmhCkbi+UwbfashTHyxZGNCVOayLk/LgzNRDs2Jkxpws2FKaknIh244mxCmLKRuKmYeMTUaPWyEWHKptxUmCJDG2xEmLIpNxWmSKuXjQhTnqTFy8TpyvAkYcom7AbDlPn950nClE1o8TJl+7HGGh4kTHlU7ALz2lli4lSnPOqZ08MT+ryJ3FZVdTPwBTiIh0JvqoRjzqXpuflaVdWXkR3zpur/Di76OWS2gTDlKX2G6endYu98yCswmy/rYNxv8Fcu7hZ7k9i8YjZfXjbcPvLmbrE36JDAbL686OlZuypTHqXNy1P6vIlcFnD2mwRpNaGqtGrxWUtYQtLX79SucVMeI0x5StOw2dTHu8XeoC3Bls+svOrhUErV9LPuDv2klbvF3mW04vugOuVBwpQH9fyA5BKq0qaV1O3QXwAya1OFl1Cd9vWFx+YNPEiY8hhh+ndTavHWVd7vMamoiW1u9apMeZAw5TF93Rg/xI16aE3HwCYVpqFpJV7CA7X7qkz7GvJgCwhTHtNXmJYy7th0/ewUw7TptRq8eotWfNOKeiP26eUhwpTH9LUf7+At3pYzM6c0Xroyxsq06vF3TJhyL2HKvXqcfHQ90hZvpc27kVJaoX1dK8tjuJcw5SF9VRiltHibflm4LeRLQFZ3i72xLgXq67hNQuJewpSHbPt4aVNTrEpXGq3b7HlJ1UZi3LSP9aaltLEpjDDlIX21s0oJpaY3/MlVpWvG+kWij+M2o5d7CVMe0keYfh1xq3TKlelYr1kvXZChd3miTMKUh/QRpiXNhvVYuc01/SJRyrhiX1+AzOjlB8KUh/SxLGbM+9pOaU/ebTHl1jyZCVNycnMbp1Gur+1xJrLKlB8IU37Q4y4vRYw7ljDbdGSmuFnFY4yZ8gNhyn36ulmMuTKd8gSkMbue+gkgD2FKNneLvdEG0hQ3bEiw7W1QlSk/EKZA10oKmz6+BBkz5QfClPu4WbBuzC1u7XmyEKbcp4/K4rMzPU5a3PA0YUoubsjA1hKmAJBImAJAImEKPMomF/A0YQoAiYQp0DXLUZgcYUouo37kmVZnI2ZuMznClPt43Bjboo/n8sIPhClTpA3ZzJir8j7CVOXND4Qp2czmyyKqhJY7+qhwWPFljB8IU3IacyBNOUzH/JQU+0yThTDlB3eLvb7GTEsKpK8N//yUH7vVNJBKaoPuFHAMTIAwJaeSwvRLwz8/5Qqn6ReJItqgs/myr2tmgh4/EKY85LaHMzPmQJpyZbpfwDG04SHeZCNMeUgf1UVJlWnT6mKsgZJkNl+OOZD6moXctKvBBAhTHtLHuNeoA6mU2ciZtekmlBI2vXRC7hZ7wpQfCFMe0su4V0E7CbUZ9xKmGygobPq4Xk0nrjERwpSH9HVDLGXctM3nm+KWgqP8AhHt6T46IapS7iVMeUhfN40iAqll9TTFGb1NP/N1T8fRVF/XyoYN3EuYcq8e15qWVN19bvjnpximTR9QUMoaU5OPyEqY8pg+xod2Cho3bVpl7I58dmsjLddpllK59fU7pjLlXsKUx/R143hbyFk3bvq4Np918LCJLzx9PfJPmHIvYcpjtj1M27SyhenjSmiD9nWNvrZ8SAITIEx5TF/jpruFtHrbfFkQpg+7vVvslVC5afGSnTDlMX3ePI6GPvNRZTSdhLQ/hXHTGC9tukl8KWHTV+dDmPIgYcqDWobNpkpp9apO79fmMw6+AXx8Cdjt6cfb4J4HCVOe0tcNpJ7VO3h1atz0QaMM0z47Hj0uF2MLPHMReUJ9A5n3dJKOC9jvts37v53Nl9s+EaVNmB4WMBbeV8ejlM0oKJQw5Sl9fhvfH+nm93Ub8acCjqM023xOVKU8SpuXR/U8bgpjIUx5lDBlE5fOEhN2a7yUpwhTNiFMmTK//zxJmPKkWIjvOY5MlaqUJwlTNuXbOVPld58nCVM2deFMMUEf7cfLJoQpG9HqZaJUpWxEmNKE6pSpEaZsRJjShDBlSj5o8bIpYcrG7hZ79bMqPzpjTISqlI0JU5pSnTIF9YPAhSkbE6Y0EjcYE5HYdr400ogwpY1zZ40tJ0xpRJjSRn2juXXm2FIfYn4AbEyY0ljMcPTNnW2l80JjwpS23HDYRtexQQk0IkxpJdpgH5w9tsypC0obz5w1EtQ3nnc9n8B6bHaISuF1i79Tz3Ie21jby6qqdlv8vesejuUpba5JE9eeW0pbwpTW6up0Nl9+6DlQd+rQzn2Tm82XVy1u3l/uFnuHPR1SL2bzZZvwryfoHGU+zuMMYWrogta0eUmVoy12OZsvX2S+Um0mWL2ezZejCdPZfHnUsirNGjqz+fIgw+/ZtU0aSCFMSRJjp4uez+JO7q3d7hZ7Fy03pxjTmFub6jLrBJ34EnURvwN9MlZKEmFKF04zrDutq77cbbg27zeK6jSOsU3bNPc1qIN0v+f3MFZKMmFKslh3muMmO4/WZC5tN6cYQ5XT5hiz7lcb46RvMryVqpRkwpRO3C32TjPt2XseY2i9S/iSUHR1mlCVZgud2Xz5tqqqswxv9UFVSheEKV3KUTXWY2dXs/nyZaYrd76F1WnbqjTLrlfxZSnHe92qSumKMKUz8Q0/x/NOd3LN8E2sTt/2cEhJSq9KI0ivMkw4qp3bg5euCFO6dpxpE/z9qFBzLJlpW52WuG6xTcWXpSrNOHO39jmGJqATwpROxTf9XDepLIGaUJ3uzubLYm7YMaGnzbrS3j9DXMOrDDN3V44zvQ8TIUzp3N1i7zzjdnP7mdagtq1OjzOO7z4owqrIsdIBgnRh0hFdE6b05SjjM0/r8cmbPivUhOp0p5B273nL9mmvVekAQfrVpCP6IEzpReZ2b5Wp5XvecvnPmyEnI8Wkozb7J1/3WZUOEKS1o/hiBJ0SpvQm2r05Zveu9BqocRNu+wXhYoD9hdcn9bTR25ehtVm7OYP0Z+1d+iJM6VvOdm+1Fqi9bOwQlVqb8eCdTGsnv3factJRb5sZDBSkZu/SK2FKr6Kay93i7DVQEyq2Nzm3Q4zW8rzFX+1tM4P4/LnWka7cDvA7yMQIU3oXFc7Pmc90fbP+Vx/hFZ+n7ZNysmyHGDOI21bCvWxmEMuEfskcpFWMk9qcgV4JU7KIFlvO8dOVX2bzZR/t1bZPytnJNH562TK0Om+H1p91Nl/Wx/NTlz93QwvPKSUHYUpOdZX4eYAz/i6WznS23jPa122r3v0+l8vEl4e245GdbmawNj6a4+kv36tnI9ucgSyEKdmsBVDOCUkrdbjcdLlEJSqettX2u9iRqFPxM9ssg6m63sxgbXw050Sjlc/GSclJmJLV3WLvpqqqoR5PVrc9f60fMt5hmzXly8FZl+Ee4dX2sWWdbWaw1tYdYny0iuthPSlZCVOyi0B9P+CZn0eVmhzqie3eKsZPkyckxc/4JeFHdBI+8eXgy0Bt3ZXD+B2DbIQpg4j1micDnv167eVvXVSpie3endRlPGvjkm0lb2awVo3+OlA1uvJekDIEYcpgYoekDwNfgXlHY6lHLbcarFJm+Hbw/M/k2bsxTjt0NVpFkA6xMQYIU4Z1t9g7KiBQd2MstXWF2MHmFI23Qow2dUqQJm1mUL9/PUs6xmmHrEZrJ4KUIQlTBldIoNZex0YPF22W0UR7MaV1vQrUJ987Jhv9lhhirTYzqI+v/uIR7z/ETN3vfYguBwxGmFKEggK1iqUl/90mVDtoXa+W8DxYIUdbNWWyURXjpI02M4gQrau//44vHiX4EL87MChhSjEKC9Tqu1BtMvP3OHFzitWkpL+9Z0zyuUhY/rLysck4abRzryJE265h7cNCkFIKYUpRCgzUKgLkt9hF6cmbd4yfHiZuTrET7/nnxg5rE41Sw+zzJkt5IriPZvPll2jnllKJrry3uxElEaYUJwI198b4m9iPvX5/j2r1wVZsR4FaxcYOVx3tJHQbazAfXE9az2qO6vd/opXc5vFtfTNrl+I8c0koUd2GjKoodWywDztRIdZbAn6NTeUvv1+rWU9IilbtvxKPoYuq8MEgjWVBq9fQs3Ifs9rZyMb1FEeYUqy6+qirwHiUWKk3+d1YqzqfzZe3UUH++arDNAL1/cBfCm7XdwWKivowXkOvDd3UrZ2NKJkwpWh1FRLV3WWhLcd1OxFOfwZUhOtNhOvHAYOrnmFct2/PCxz73MSfm9Z7JiklE6YUL6q7gwjUMYXBThzv0Mc8xHNEu1JPRju2aT2lE6aMwmpCT1RXc1dtEk5sxsBYmM3LqMRyiP8a6Jmo5FFf2/8UpIyJMGV0YjbnQeLGCJSpHlt+2eVDyiEHbV5GKSajHMzmy9ORjwnyl7oaPVWNMlYqU0YttsX7pyp11OprdyBIGTNhyujFes6DQndN4mG3McnowLIXxk6YsjVUqaNyrRplmxgzZavEDjkHsUH8aeHb403R11g3aktAtorKlK0UFU/9LNKFK1yE22jDHwhStpHKlK0VGz0cx0YPFyPdSm8bfIiZusZF2VrClK0XN/HD2OP3VKhmcx1PeRGibD1hymTERgBCtX/XUYnaeIHJEKZMjlDtTd3OvRCiTJEwZbLWQrVeo3ocD/ymmdt4mo8xUSZNmDJ5sZzmKJbT1K+jETw7dWhf4zmpFx6PBsIU/k+EQt32PZ3Nl28jVId6oHeJVlWoVi58R5jCPWIt5OVsvnxRVdXbeE01WD9GiF6qQuF+whQeEeFRr1G9mFCwrirQKwEKmxGmsKH1YK3/RrSCD+O1P/LzeB3heaWFC80JU2hp1Qqu/grWFxGqB2v/LHVf4Hry0E28hCd0QJhCB6Jq/b9wrf4K2JexP/Bh/PNl5pCtQ/NLhObqnzfattA9YQo9iXWXX6J9+jextvVFvA7W/r/V/76JOhzXg3H1Pl+s+YS8hCkMINa2rniKCoycR7ABQCJhCgCJhCkAJBKmAJBImAJAImEKAImEKQAkEqYAkEiYAkAiYQoAiYQpACQSpgCQSJgCQCJhCgCJhCkAJBKmAJBImAJAImEKAImEKQAkEqYAkEiYAkAiYQoAiYQpACR6NqET+PL5q5PTAo4DYCoOp/JBpxSmu1VV/VTAcQCwZUpp8/5ewDEAQCulhOlNAccAwPgUUYyZgATAmBVRjBURpt8+nV0VcBgAjI8w/c7ngo4FgHEQpt9RnQLQxNdvn86+lHDGSgrTiwKOAYDxuCzlSIsJ02+fzupS/WsBhwLAOBRThJU2m/e8gGMAoHyfowgrQmlhWn/LuC3gOAAoW1HFV1Fh+u3T2e+qUwCeUE88KmqeTYmbNpwbOwXgEUelnZziwjSq0+MCDgWA8nwscaOfIrcT/PbprJ7u/KGAQwGgHF9LrEqrwvfmPbYrEgBr3kb3sjjFhmmcsEPjpwBUVfW+pKUw3yv6qTERqG8tlwGYtPelzd79XvGPYItvIgdavgCTVHyQVmN5nmlsZFy3fD8WcDgA9K8e4vvnGIK09o8//vijgMPY3PNXJ/XEpNOqqnbGcswANFIXTkelTja6z+jCtPorUF9GoL4r4HAA6MbXCNHRPZJzlGG6IlQBtkI9J+Z8LC3d+4w6TFciVN/GYt79Mo4KgEd8jeeRXpS85GVTWxGm656/OnkRs3/rCUsv4wXAsOrxz5vVKyaWbo2tC1MAyG0US2MAoGTCFAASCVMASCRMASCRMAWARMIUABIJUwBIJEwBIJEwBYBEwhQAEglTAEgkTAEgkTAFgETCFAASCVMASCRMASCRMAWARMIUABIJUwBIJEwBIJEwBYBEwhQAEglTAEgkTAEgkTAFgETCFAASCVMASCRMASCRMAWARMIUABIJUwBIJEwBIJEwBYBEwhQAEglTAEgkTAEgkTAFgETCFAASCVMASCRMASCRMAWARMIUABIJUwBIJEwBIJEwBYBEwhQAEglTAEgkTAEgkTAFgETCFAASCVMASCRMASCRMAWARMIUABIJUwBIJEwBIJEwBYAUVVX9L/V1LyB0Bw7FAAAAAElFTkSuQmCC;fontSize=24;imageBackground=default;" parent="1" vertex="1">
          <mxGeometry x="297.01" y="521" width="47" height="47" as="geometry" />
        </mxCell>
        <mxCell id="L8tGwODf9pzZJjYV8ij8-86" value="" style="shape=image;verticalLabelPosition=bottom;labelBackgroundColor=default;verticalAlign=top;aspect=fixed;imageAspect=0;image=data:image/svg+xml,PHN2ZyB4bWxucz0iaHR0cDovL3d3dy53My5vcmcvMjAwMC9zdmciIGZpbGw9Im5vbmUiIHZpZXdCb3g9IjAgMCA0OCA0OCIgaGVpZ2h0PSI0OCIgd2lkdGg9IjQ4Ij4mI3hhOzxjaXJjbGUgc3Ryb2tlLXdpZHRoPSIwLjg1NzE0MyIgc3Ryb2tlPSIjRDVEQUREIiBmaWxsPSJ1cmwoI3BhaW50MF9saW5lYXJfMzIzMl80NjAyKSIgcj0iMjMuNTcxNCIgY3k9IjI0IiBjeD0iMjQiLz4mI3hhOzxnIGNsaXAtcGF0aD0idXJsKCNjbGlwMF8zMjMyXzQ2MDIpIj4mI3hhOzxwYXRoIGZpbGw9InVybCgjcGFpbnQxX2xpbmVhcl8zMjMyXzQ2MDIpIiBkPSJNMTUuNzUwNSAxNi42Njc3QzE2LjcyNDkgMTMuMzM2MiAxOS43OTc0IDEwLjQ5NjEgMjMuODY3NyAxMC40OTYxQzI3LjE2MzUgMTAuNDk2MSAyOS43MzQxIDEyLjE0NDYgMzEuMjU2MSAxNC42Mjg4QzM0LjYzOTYgMTUuMzAwMSAzNy4zNjc3IDE4LjMyMTcgMzcuMzY3NyAyMi4yMzE3QzM3LjM2NzcgMjUuNTg1NSAzNS40OTQ5IDI3Ljk4MzcgMzMuMDI0OCAyOS4xNDkyQzMzLjExMzYgMjguODUwNyAzMy4xNjEzIDI4LjUzNDQgMzMuMTYxMyAyOC4yMDdWMjYuOTgzOEMzMy4xNjEzIDI2LjE1ODkgMzIuODU4NiAyNS40MDQ4IDMyLjM1ODMgMjQuODI2M0MzMy4wMDkxIDI0LjIyMzcgMzMuNDE2NSAyMy4zNjE4IDMzLjQxNjUgMjIuNDA0OVYyMS40ODk2QzMzLjQxNjUgMTkuNjY3MyAzMS45MzkzIDE4LjE5MDEgMzAuMTE3IDE4LjE5MDFIMjkuMjA2NkMyOC4xOTkzIDE4LjE5MDEgMjcuMjk3MyAxOC42NDE1IDI2LjY5MjEgMTkuMzUzMVYxOC41ODkzQzI2LjY5MjEgMTYuNzY3IDI1LjIxNDkgMTUuMjg5OCAyMy4zOTI2IDE1LjI4OThIMjIuNDgyMkMyMC42NiAxNS4yODk4IDE5LjE4MjcgMTYuNzY3IDE5LjE4MjcgMTguNTg5M1YxOS41MDQ2QzE5LjE4MjcgMTkuNzQ5NyAxOS4yMDk1IDE5Ljk4ODUgMTkuMjYwMiAyMC4yMTg0QzE5LjIyODMgMjAuMjE3NSAxOS4xOTYyIDIwLjIxNyAxOS4xNjQxIDIwLjIxN0gxOC4yNTM3QzE2LjQzMTUgMjAuMjE3IDE0Ljk1NDIgMjEuNjk0MiAxNC45NTQyIDIzLjUxNjVWMjQuNDMxOEMxNC45NTQyIDI1LjkxNzkgMTUuOTM2OCAyNy4xNzQ2IDE3LjI4NzcgMjcuNTg3NkMxNi43OTIxIDI4LjE2NDkgMTYuNDkyNiAyOC45MTU0IDE2LjQ5MjYgMjkuNzM1OVYyOS44NjI4QzE0Ljk4OTcgMjkuNjY2NCAxMy42MTU5IDI5LjA4MjQgMTIuNTQ1MyAyOC4wMzU1QzExLjE5NTMgMjYuNzE1NiAxMC42MzIxIDI0Ljk1NjkgMTAuNjMyMSAyMy4yMDk3QzEwLjYzMjEgMjEuMjg3NyAxMS4zNzY1IDE5LjQxMjYgMTIuODYxMiAxOC4xMTA2QzEzLjY4ODIgMTcuMzg1MiAxNC42NzM2IDE2LjkgMTUuNzUwNSAxNi42Njc3WiIgY2xpcC1ydWxlPSJldmVub2RkIiBmaWxsLXJ1bGU9ImV2ZW5vZGQiLz4mI3hhOzxwYXRoIGZpbGw9InVybCgjcGFpbnQyX2xpbmVhcl8zMjMyXzQ2MDIpIiBkPSJNMjMuMzkyNiAxNi42NDAxQzI0LjQ2OTMgMTYuNjQwMSAyNS4zNDIxIDE3LjUxMyAyNS4zNDIxIDE4LjU4OTZWMTkuNTA0OUMyNS4zNDIxIDIwLjEwNTYgMjUuMDcwNCAyMC42NDI4IDI0LjY0MzMgMjEuMDAwNEwyNS4wMTM0IDIyLjIxMzhDMjUuNDk5MiAyMi4yNDMyIDI1LjkzNjkgMjIuNDUwNCAyNi4yNjI0IDIyLjc3MTJMMjcuMjU3MSAyMi4xOTYxVjIxLjQ4OTlDMjcuMjU3MSAyMC40MTMyIDI4LjEyOTkgMTkuNTQwNCAyOS4yMDY2IDE5LjU0MDRIMzAuMTE3QzMxLjE5MzcgMTkuNTQwNCAzMi4wNjY1IDIwLjQxMzIgMzIuMDY2NSAyMS40ODk5VjIyLjQwNTJDMzIuMDY2NSAyMy40ODE5IDMxLjE5MzcgMjQuMzU0NyAzMC4xMTcgMjQuMzU0N0gyOS4yMDY2QzI4LjY3ODQgMjQuMzU0NyAyOC4xOTkzIDI0LjE0NDcgMjcuODQ4MiAyMy44MDM2TDI2Ljg2MTMgMjQuMzc0MkwyNi44NDM0IDI0LjM0MzNWMjUuMDcwMUMyNi44NDM0IDI1LjA3NDUgMjYuODQzNCAyNS4wNzkgMjYuODQzNCAyNS4wODM0TDI3LjQyMzcgMjUuNDYzN0MyNy43NTc3IDI1LjE5NTMgMjguMTgyMSAyNS4wMzQ3IDI4LjY0MzkgMjUuMDM0N0gyOS44NjE3QzMwLjkzODQgMjUuMDM0NyAzMS44MTEyIDI1LjkwNzUgMzEuODExMiAyNi45ODQyVjI4LjIwNzRDMzEuODExMiAyOS4yODQxIDMwLjkzODQgMzAuMTU2OSAyOS44NjE3IDMwLjE1NjlIMjguNjQzOUMyNy41NjcyIDMwLjE1NjkgMjYuNjk0NCAyOS4yODQxIDI2LjY5NDQgMjguMjA3NFYyNy4wMDMzTDI2LjA5MTYgMjYuNjA4NEMyNS43NjExIDI2Ljg2NiAyNS4zNDU1IDI3LjAxOTYgMjQuODkzOSAyNy4wMTk2SDIzLjk4MzVDMjMuOTI5OCAyNy4wMTk2IDIzLjg3NjYgMjcuMDE3NCAyMy44MjM5IDI3LjAxMzFMMjIuNDQ2MSAyOC44NjMzQzIyLjU3NzggMjkuMTI1OSAyMi42NTE5IDI5LjQyMjQgMjIuNjUxOSAyOS43MzYyVjMwLjY1MTVDMjIuNjUxOSAzMS43MjgyIDIxLjc3OTEgMzIuNjAxIDIwLjcwMjQgMzIuNjAxSDE5Ljc5MjFDMTguNzE1NCAzMi42MDEgMTcuODQyNiAzMS43MjgyIDE3Ljg0MjYgMzAuNjUxNUwxNy44NDI2IDI5LjczNjJDMTcuODQyNiAyOC42NTk2IDE4LjcxNTQgMjcuNzg2NyAxOS43OTIxIDI3Ljc4NjdIMjAuNzAyNEMyMC44NDI4IDI3Ljc4NjcgMjAuOTc5OCAyNy44MDE2IDIxLjExMTcgMjcuODI5OEwyMi4zNjE0IDI2LjE1MThDMjIuMTU0NiAyNS44NDIyIDIyLjAzNCAyNS40NzAyIDIyLjAzNCAyNS4wNzAxVjI1LjA0NDVMMjEuMDE1NSAyNS4wNDQ1QzIwLjc1ODcgMjUuODIxMiAyMC4wMjY4IDI2LjM4MTcgMTkuMTY0MSAyNi4zODE3SDE4LjI1MzdDMTcuMTc3IDI2LjM4MTcgMTYuMzA0MiAyNS41MDg5IDE2LjMwNDIgMjQuNDMyMlYyMy41MTY5QzE2LjMwNDIgMjIuNDQwMiAxNy4xNzcgMjEuNTY3NCAxOC4yNTM3IDIxLjU2NzRIMTkuMTY0MUMyMC4xODY5IDIxLjU2NzQgMjEuMDI1OCAyMi4zNTUxIDIxLjEwNzEgMjMuMzU3TDIyLjIwNjQgMjMuMzU3QzIyLjQxNzQgMjIuODkwNiAyMi44MDY2IDIyLjUyMjEgMjMuMjg3MSAyMi4zMzgzTDIzLjAxNzUgMjEuNDU0NEgyMi40ODIyQzIxLjQwNTUgMjEuNDU0NCAyMC41MzI3IDIwLjU4MTYgMjAuNTMyNyAxOS41MDQ5VjE4LjU4OTZDMjAuNTMyNyAxNy41MTMgMjEuNDA1NSAxNi42NDAxIDIyLjQ4MjIgMTYuNjQwMUgyMy4zOTI2Wk0yMy42NTQ2IDE4LjU4OTZDMjMuNjU0NiAxOC40NDQ5IDIzLjUzNzMgMTguMzI3NiAyMy4zOTI2IDE4LjMyNzZMMjIuNDgyMiAxOC4zMjc2QzIyLjMzNzUgMTguMzI3NiAyMi4yMjAyIDE4LjQ0NDkgMjIuMjIwMiAxOC41ODk2VjE5LjUwNDlDMjIuMjIwMiAxOS42NDk2IDIyLjMzNzUgMTkuNzY2OSAyMi40ODIyIDE5Ljc2NjlIMjMuMzkyNkMyMy41MzczIDE5Ljc2NjkgMjMuNjU0NiAxOS42NDk2IDIzLjY1NDYgMTkuNTA0OVYxOC41ODk2Wk0zMC4zNzkgMjEuNDg5OUMzMC4zNzkgMjEuMzQ1MiAzMC4yNjE3IDIxLjIyNzkgMzAuMTE3IDIxLjIyNzlIMjkuMjA2NkMyOS4wNjE5IDIxLjIyNzkgMjguOTQ0NiAyMS4zNDUyIDI4Ljk0NDYgMjEuNDg5OVYyMi40MDUyQzI4Ljk0NDYgMjIuNTQ5OSAyOS4wNjE5IDIyLjY2NzIgMjkuMjA2NiAyMi42NjcySDMwLjExN0MzMC4yNjE3IDIyLjY2NzIgMzAuMzc5IDIyLjU0OTkgMzAuMzc5IDIyLjQwNTJWMjEuNDg5OVpNMzAuMTIzNyAyNi45ODQyQzMwLjEyMzcgMjYuODM5NSAzMC4wMDY0IDI2LjcyMjIgMjkuODYxNyAyNi43MjIySDI4LjY0MzlDMjguNDk5MiAyNi43MjIyIDI4LjM4MTkgMjYuODM5NSAyOC4zODE5IDI2Ljk4NDJWMjguMjA3NEMyOC4zODE5IDI4LjM1MjEgMjguNDk5MiAyOC40Njk0IDI4LjY0MzkgMjguNDY5NEgyOS44NjE3QzMwLjAwNjQgMjguNDY5NCAzMC4xMjM3IDI4LjM1MjEgMzAuMTIzNyAyOC4yMDc0VjI2Ljk4NDJaTTI0Ljg5MzkgMjMuODk3N0MyNS4wMzg2IDIzLjg5NzcgMjUuMTU1OSAyNC4wMTUgMjUuMTU1OSAyNC4xNTk3VjI1LjA3MDFDMjUuMTU1OSAyNS4yMTQ4IDI1LjAzODYgMjUuMzMyMSAyNC44OTM5IDI1LjMzMjFIMjMuOTgzNUMyMy44Mzg4IDI1LjMzMjEgMjMuNzIxNSAyNS4yMTQ4IDIzLjcyMTUgMjUuMDcwMVYyNC4xNTk3QzIzLjcyMTUgMjQuMDE1IDIzLjgzODggMjMuODk3NyAyMy45ODM1IDIzLjg5NzdIMjQuODkzOVpNMTkuMTY0MSAyMy4yNTQ5QzE5LjMwODggMjMuMjU0OSAxOS40MjYxIDIzLjM3MjIgMTkuNDI2MSAyMy41MTY5VjI0LjQzMjJDMTkuNDI2MSAyNC41NzY5IDE5LjMwODggMjQuNjk0MiAxOS4xNjQxIDI0LjY5NDJIMTguMjUzN0MxOC4xMDkgMjQuNjk0MiAxNy45OTE3IDI0LjU3NjkgMTcuOTkxNyAyNC40MzIyTDE3Ljk5MTcgMjMuNTE2OUMxNy45OTE3IDIzLjM3MjIgMTguMTA5IDIzLjI1NDkgMTguMjUzNyAyMy4yNTQ5SDE5LjE2NDFaTTIwLjk2NDQgMjkuNzM2MkMyMC45NjQ0IDI5LjU5MTUgMjAuODQ3MSAyOS40NzQyIDIwLjcwMjQgMjkuNDc0MkgxOS43OTIxQzE5LjY0NzQgMjkuNDc0MiAxOS41MzAxIDI5LjU5MTUgMTkuNTMwMSAyOS43MzYyVjMwLjY1MTVDMTkuNTMwMSAzMC43OTYyIDE5LjY0NzQgMzAuOTEzNSAxOS43OTIxIDMwLjkxMzVIMjAuNzAyNEMyMC44NDcxIDMwLjkxMzUgMjAuOTY0NCAzMC43OTYyIDIwLjk2NDQgMzAuNjUxNVYyOS43MzYyWiIgY2xpcC1ydWxlPSJldmVub2RkIiBmaWxsLXJ1bGU9ImV2ZW5vZGQiLz4mI3hhOzxwYXRoIGZpbGw9InVybCgjcGFpbnQzX2xpbmVhcl8zMjMyXzQ2MDIpIiBkPSJNMTMuMzEwNiAzMC44NjA4QzEzLjk2MyAzMC44NjA4IDE0LjQ5MTkgMzEuMzg5NyAxNC40OTE5IDMyLjA0MjFWMzMuMzcyOUMxNC40OTE5IDM0LjIxMTcgMTUuMTcxOSAzNC44OTE2IDE2LjAxMDYgMzQuODkxNkgzMS45ODk5QzMyLjgyODcgMzQuODkxNiAzMy41MDg2IDM0LjIxMTcgMzMuNTA4NiAzMy4zNzI5VjMyLjA0MjFDMzMuNTA4NiAzMS4zODk3IDM0LjAzNzUgMzAuODYwOCAzNC42ODk5IDMwLjg2MDhDMzUuMzQyMyAzMC44NjA4IDM1Ljg3MTIgMzEuMzg5NyAzNS44NzEyIDMyLjA0MjFWMzMuMzcyOUMzNS44NzEyIDM1LjUxNjQgMzQuMTMzNSAzNy4yNTQxIDMxLjk4OTkgMzcuMjU0MUgxNi4wMTA2QzEzLjg2NzEgMzcuMjU0MSAxMi4xMjk0IDM1LjUxNjQgMTIuMTI5NCAzMy4zNzI5VjMyLjA0MjFDMTIuMTI5NCAzMS4zODk3IDEyLjY1ODMgMzAuODYwOCAxMy4zMTA2IDMwLjg2MDhaTTMwLjgxNSAzMy4zMzIxQzMxLjM3NDIgMzMuMzMyMSAzMS44Mjc1IDMyLjg3ODggMzEuODI3NSAzMi4zMTk2QzMxLjgyNzUgMzEuNzYwNCAzMS4zNzQyIDMxLjMwNzEgMzAuODE1IDMxLjMwNzFDMzAuMjU1OCAzMS4zMDcxIDI5LjgwMjUgMzEuNzYwNCAyOS44MDI1IDMyLjMxOTZDMjkuODAyNSAzMi44Nzg4IDMwLjI1NTggMzMuMzMyMSAzMC44MTUgMzMuMzMyMVpNMjguNzI2MSAzMi4zMTk2QzI4LjcyNjEgMzIuODc4OCAyOC4yNzI3IDMzLjMzMjEgMjcuNzEzNiAzMy4zMzIxQzI3LjE1NDQgMzMuMzMyMSAyNi43MDExIDMyLjg3ODggMjYuNzAxMSAzMi4zMTk2QzI2LjcwMTEgMzEuNzYwNCAyNy4xNTQ0IDMxLjMwNzEgMjcuNzEzNiAzMS4zMDcxQzI4LjI3MjcgMzEuMzA3MSAyOC43MjYxIDMxLjc2MDQgMjguNzI2MSAzMi4zMTk2WiIgY2xpcC1ydWxlPSJldmVub2RkIiBmaWxsLXJ1bGU9ImV2ZW5vZGQiLz4mI3hhOzwvZz4mI3hhOzxkZWZzPiYjeGE7PGxpbmVhckdyYWRpZW50IGdyYWRpZW50VW5pdHM9InVzZXJTcGFjZU9uVXNlIiB5Mj0iNDQuMjQ0MyIgeDI9IjQxLjA2NDUiIHkxPSI2LjgxMjg0IiB4MT0iNC4zNTI4NyIgaWQ9InBhaW50MF9saW5lYXJfMzIzMl80NjAyIj4mI3hhOzxzdG9wIHN0b3AtY29sb3I9IndoaXRlIi8+JiN4YTs8c3RvcCBzdG9wLWNvbG9yPSIjRUFFQ0VFIiBvZmZzZXQ9IjEiLz4mI3hhOzwvbGluZWFyR3JhZGllbnQ+JiN4YTs8bGluZWFyR3JhZGllbnQgZ3JhZGllbnRVbml0cz0idXNlclNwYWNlT25Vc2UiIHkyPSIzMS4xODQiIHgyPSIyNy41MjMzIiB5MT0iMTMuMzkyMyIgeDE9IjE0LjYzOTkiIGlkPSJwYWludDFfbGluZWFyXzMyMzJfNDYwMiI+JiN4YTs8c3RvcCBzdG9wLWNvbG9yPSIjMDE5NUZGIi8+JiN4YTs8c3RvcCBzdG9wLWNvbG9yPSIjMTE0N0U5IiBvZmZzZXQ9IjAuOTkxMDI4Ii8+JiN4YTs8L2xpbmVhckdyYWRpZW50PiYjeGE7PGxpbmVhckdyYWRpZW50IGdyYWRpZW50VW5pdHM9InVzZXJTcGFjZU9uVXNlIiB5Mj0iMzAuMDY2NyIgeDI9IjI5LjgwNDQiIHkxPSIxOC45ODgzIiB4MT0iMTguNjM0NSIgaWQ9InBhaW50Ml9saW5lYXJfMzIzMl80NjAyIj4mI3hhOzxzdG9wIHN0b3AtY29sb3I9IiMxMzQ4RkYiLz4mI3hhOzxzdG9wIHN0b3AtY29sb3I9IiMwNjIzOEQiIG9mZnNldD0iMSIvPiYjeGE7PC9saW5lYXJHcmFkaWVudD4mI3hhOzxsaW5lYXJHcmFkaWVudCBncmFkaWVudFVuaXRzPSJ1c2VyU3BhY2VPblVzZSIgeTI9IjQwLjE0OTkiIHgyPSIxNy44Nzc5IiB5MT0iMzEuODAxNCIgeDE9IjE1LjYzOTUiIGlkPSJwYWludDNfbGluZWFyXzMyMzJfNDYwMiI+JiN4YTs8c3RvcCBzdG9wLWNvbG9yPSIjMTM0OEZGIi8+JiN4YTs8c3RvcCBzdG9wLWNvbG9yPSIjMDYyMzhEIiBvZmZzZXQ9IjEiLz4mI3hhOzwvbGluZWFyR3JhZGllbnQ+JiN4YTs8Y2xpcFBhdGggaWQ9ImNsaXAwXzMyMzJfNDYwMiI+JiN4YTs8cmVjdCB0cmFuc2Zvcm09InRyYW5zbGF0ZSgxMC41IDEwLjUpIiBmaWxsPSJ3aGl0ZSIgaGVpZ2h0PSIyNyIgd2lkdGg9IjI3Ii8+JiN4YTs8L2NsaXBQYXRoPiYjeGE7PC9kZWZzPiYjeGE7PC9zdmc+;points=[[0,0,0,0,0],[0,0.25,0,0,0],[0,0.5,0,0,0],[0,0.75,0,0,0],[0.25,0,0,0,0],[0.5,0,0,0,0],[0.75,0,0,0,0],[1,0,0,0,0],[1,0.25,0,0,0],[1,0.5,0,0,0],[1,0.75,0,0,0]];" parent="1" vertex="1">
          <mxGeometry x="386.26" y="559" width="48" height="48" as="geometry" />
        </mxCell>
        <mxCell id="L8tGwODf9pzZJjYV8ij8-87" value="&lt;font color=&quot;#1d2d3e&quot; size=&quot;1&quot; face=&quot;arial&quot; style=&quot;&quot;&gt;&lt;b style=&quot;font-size: 14px;&quot;&gt;Cloud Integration Flow&lt;br&gt;&lt;/b&gt;&lt;/font&gt;" style="text;html=1;align=center;verticalAlign=top;resizable=1;points=[[0,0.5,0,0,0],[0.21,1,0,0,0],[0.5,1,0,0,0],[0.85,1,0,0,0],[1,0.5,0,0,0]];autosize=0;strokeColor=none;fillColor=none;fontSize=12;fontColor=default;fontFamily=Helvetica;fixedWidth=1;imageWidth=24;whiteSpace=wrap;labelBackgroundColor=none;" parent="1" vertex="1">
          <mxGeometry x="349.26" y="607" width="122" height="46" as="geometry" />
        </mxCell>
        <mxCell id="L8tGwODf9pzZJjYV8ij8-88" value="&lt;font face=&quot;arial&quot; style=&quot;font-size: 18px;&quot;&gt;&lt;b style=&quot;&quot;&gt;Subaccount - Azure EU&lt;/b&gt;&lt;/font&gt;" style="text;html=1;align=left;verticalAlign=middle;resizable=0;points=[];autosize=1;strokeColor=none;fillColor=none;fontSize=12;fontColor=#1d2d3e;fontFamily=Helvetica;" parent="1" vertex="1">
          <mxGeometry x="298.01" y="475" width="216" height="34" as="geometry" />
        </mxCell>
        <mxCell id="L8tGwODf9pzZJjYV8ij8-89" value="&lt;font style=&quot;font-size: 9px;&quot;&gt;Secure Tunnel&lt;/font&gt;" style="rounded=1;whiteSpace=wrap;html=1;arcSize=12;fillColor=#595959;fontColor=#FFFFFF;strokeColor=#595959;fontFamily=Helvetica;fontSize=11;autosize=1;absoluteArcSize=1;strokeWidth=2;labelBackgroundColor=none;" parent="1" vertex="1">
          <mxGeometry x="560" y="365.07" width="70" height="10" as="geometry" />
        </mxCell>
        <mxCell id="L8tGwODf9pzZJjYV8ij8-92" style="edgeStyle=orthogonalEdgeStyle;rounded=0;orthogonalLoop=1;jettySize=auto;html=1;entryX=1.007;entryY=0.546;entryDx=0;entryDy=0;entryPerimeter=0;strokeColor=#107E3E;strokeWidth=2;align=center;verticalAlign=middle;fontFamily=Helvetica;fontSize=16;fontColor=#FFFFFF;labelBackgroundColor=default;endArrow=block;endFill=1;endSize=3;" parent="1" source="L8tGwODf9pzZJjYV8ij8-89" target="L8tGwODf9pzZJjYV8ij8-74" edge="1">
          <mxGeometry relative="1" as="geometry" />
        </mxCell>
        <mxCell id="10Ksj5gPtC8L9tZg1lb4-9" style="edgeStyle=orthogonalEdgeStyle;rounded=0;orthogonalLoop=1;jettySize=auto;html=1;fontColor=#FFFFFF;strokeColor=#107E3E;endArrow=block;endFill=1;strokeWidth=2;endSize=3;fontSize=16;exitX=0;exitY=0.5;exitDx=0;exitDy=0;" parent="1" source="L8tGwODf9pzZJjYV8ij8-94" edge="1">
          <mxGeometry relative="1" as="geometry">
            <mxPoint x="523" y="600" as="targetPoint" />
            <mxPoint x="720" y="466" as="sourcePoint" />
            <Array as="points" />
          </mxGeometry>
        </mxCell>
        <mxCell id="L8tGwODf9pzZJjYV8ij8-95" value="" style="edgeStyle=orthogonalEdgeStyle;rounded=0;orthogonalLoop=1;jettySize=auto;html=1;fontColor=#FFFFFF;strokeColor=#107E3E;endArrow=block;endFill=1;strokeWidth=2;endSize=3;fontSize=16;exitX=0;exitY=0.5;exitDx=0;exitDy=0;" parent="1" target="L8tGwODf9pzZJjYV8ij8-94" edge="1">
          <mxGeometry relative="1" as="geometry">
            <mxPoint x="525" y="600" as="targetPoint" />
            <mxPoint x="753.8614285714284" y="466.1428571428571" as="sourcePoint" />
            <Array as="points">
              <mxPoint x="640" y="466" />
              <mxPoint x="640" y="600" />
            </Array>
          </mxGeometry>
        </mxCell>
        <mxCell id="L8tGwODf9pzZJjYV8ij8-94" value="&lt;font style=&quot;font-size: 9px;&quot;&gt;Secure Tunnel&lt;/font&gt;" style="rounded=1;whiteSpace=wrap;html=1;arcSize=12;fillColor=#595959;fontColor=#FFFFFF;strokeColor=#595959;fontFamily=Helvetica;fontSize=11;autosize=1;absoluteArcSize=1;strokeWidth=2;labelBackgroundColor=none;" parent="1" vertex="1">
          <mxGeometry x="560" y="595" width="70" height="10" as="geometry" />
        </mxCell>
        <mxCell id="L8tGwODf9pzZJjYV8ij8-96" value="" style="rounded=1;whiteSpace=wrap;html=1;strokeColor=#0070F2;strokeWidth=1.5;arcSize=8;fillColor=#FFFFFF;perimeterSpacing=0;" parent="1" vertex="1">
          <mxGeometry x="706" y="375.07" width="202" height="153.88" as="geometry" />
        </mxCell>
        <mxCell id="L8tGwODf9pzZJjYV8ij8-97" value="&lt;font face=&quot;arial&quot; style=&quot;font-size: 16px;&quot;&gt;&lt;b style=&quot;font-size: 16px;&quot;&gt;SAP Solutions&lt;/b&gt;&lt;/font&gt;" style="text;html=1;align=left;verticalAlign=middle;resizable=0;points=[];autosize=1;strokeColor=none;fillColor=none;fontSize=12;fontColor=#1d2d3e;fontFamily=Helvetica;" parent="1" vertex="1">
          <mxGeometry x="756" y="399.21000000000004" width="128" height="31" as="geometry" />
        </mxCell>
        <mxCell id="L8tGwODf9pzZJjYV8ij8-98" value="" style="shape=image;verticalLabelPosition=bottom;labelBackgroundColor=default;verticalAlign=top;aspect=fixed;imageAspect=0;image=data:image/svg+xml,PHN2ZyB4bWxucz0iaHR0cDovL3d3dy53My5vcmcvMjAwMC9zdmciIGZpbGw9Im5vbmUiIHZpZXdCb3g9IjAgMCAxNiAxNyIgaGVpZ2h0PSIxNyIgd2lkdGg9IjE2Ij4mI3hhOzxwYXRoIGZpbGw9InVybCgjcGFpbnQwX2xpbmVhcl83MjRfMTIpIiBkPSJNMTQuMzMzNSA1LjgzNDk0QzE0LjU4MzUgNi4wODQ5NCAxNC43ODE0IDYuMzc2NjEgMTQuOTI3MiA2LjcwOTk0QzE1LjA5MzkgNy4wMjI0NCAxNS4xNzcyIDcuMzY2MTkgMTUuMTc3MiA3Ljc0MTE5VjE0LjQyODdDMTUuMTc3MiAxNS4xMzcgMTQuOTM3NiAxNS43MjA0IDE0LjQ1ODUgMTYuMTc4N0MxMy45NzkzIDE2LjY1NzkgMTMuMzg1NSAxNi44OTc1IDEyLjY3NzIgMTYuODk3NUgyLjc3MDk0QzIuMDgzNDQgMTYuODk3NSAxLjUwMDExIDE2LjY1NzkgMS4wMjA5NCAxNi4xNzg3QzAuNTQxNzY4IDE1LjcyMDQgMC4zMDIxODUgMTUuMTM3IDAuMzAyMTg1IDE0LjQyODdWNy43NDExOUMwLjMwMjE4NSA2Ljk0OTUyIDAuNTgzNDM1IDYuMzE0MTEgMS4xNDU5NCA1LjgzNDk0TDYuMDgzNDQgMS41NTM2OUM2LjU4MzQ0IDEuMTM3MDIgNy4xNDU5NCAwLjkyODY4OCA3Ljc3MDk0IDAuOTI4Njg4QzguMzk1OTQgMC45Mjg2ODggOC45Mzc2MSAxLjEzNzAyIDkuMzk1OTQgMS41NTM2OUwxNC4zMzM1IDUuODM0OTRaTTguOTg5NjkgMTAuMzAzN0g2LjQ4OTY5VjE1LjI3MjVIOC45ODk2OVYxMC4zMDM3Wk0xMy40MjcyIDcuNzQxMTlDMTMuNDI3MiA3LjQ3MDM2IDEzLjM0MzkgNy4yNTE2MSAxMy4xNzcyIDcuMDg0OTRMOC4yMzk2OSAyLjgwMzY5QzcuODg1NTIgMi41MzI4NiA3LjUyMDk0IDIuNTMyODYgNy4xNDU5NCAyLjgwMzY5TDIuMjA4NDQgNy4wODQ5NEMyLjA0MTc3IDcuMjUxNjEgMS45NTg0NCA3LjQ3MDM2IDEuOTU4NDQgNy43NDExOVYxNC40Mjg3QzEuOTU4NDQgMTQuNjc4NyAyLjAzMTM2IDE0Ljg4NyAyLjE3NzE5IDE1LjA1MzdDMi4zNDM4NiAxNS4xOTk1IDIuNTQxNzcgMTUuMjcyNSAyLjc3MDk0IDE1LjI3MjVINC44MzM0NFYxMC4zMDM3QzQuODMzNDQgOS44NDUzNiA0Ljk4OTY5IDkuNDU5OTQgNS4zMDIxOSA5LjE0NzQ0QzUuNjM1NTIgOC44MTQxMSA2LjAzMTM2IDguNjQ3NDQgNi40ODk2OSA4LjY0NzQ0SDguOTg5NjlDOS40NDgwMiA4LjY0NzQ0IDkuODMzNDkgOC44MTQxMSAxMC4xNDU5IDkuMTQ3NDRDMTAuNDU4NSA5LjQ1OTk0IDEwLjYxNDcgOS44NDUzNiAxMC42MTQ3IDEwLjMwMzdWMTUuMjcyNUgxMi42NzcyQzEyLjkyNzIgMTUuMjcyNSAxMy4xMjUxIDE1LjE5OTUgMTMuMjcwOSAxNS4wNTM3QzEzLjQzNzYgMTQuODg3IDEzLjUyMDkgMTQuNjc4NyAxMy41MjA5IDE0LjQyODdMMTMuNDI3MiA3Ljc0MTE5WiIvPiYjeGE7PGRlZnM+JiN4YTs8bGluZWFyR3JhZGllbnQgZ3JhZGllbnRVbml0cz0idXNlclNwYWNlT25Vc2UiIHkyPSI5Ljg1NDkiIHgyPSIxNS44MTkzIiB5MT0iMi40MzA4NCIgeDE9IjIuMjI0NjQiIGlkPSJwYWludDBfbGluZWFyXzcyNF8xMiI+JiN4YTs8c3RvcCBzdG9wLWNvbG9yPSIjMjM5NUZGIi8+JiN4YTs8c3RvcCBzdG9wLWNvbG9yPSIjMDA1N0QyIiBvZmZzZXQ9IjEiLz4mI3hhOzwvbGluZWFyR3JhZGllbnQ+JiN4YTs8L2RlZnM+JiN4YTs8L3N2Zz4=;strokeWidth=1.5;" parent="1" vertex="1">
          <mxGeometry x="723.14" y="397.6200000000001" width="28.24" height="30" as="geometry" />
        </mxCell>
        <mxCell id="L8tGwODf9pzZJjYV8ij8-99" value="" style="shape=image;verticalLabelPosition=bottom;labelBackgroundColor=default;verticalAlign=top;aspect=fixed;imageAspect=0;image=data:image/svg+xml,PHN2ZyB4bWxucz0iaHR0cDovL3d3dy53My5vcmcvMjAwMC9zdmciIGZpbGw9Im5vbmUiIHZpZXdCb3g9IjAgMCAxNyAxNyIgaGVpZ2h0PSIxNyIgd2lkdGg9IjE3Ij4mI3hhOzxwYXRoIGZpbGw9InVybCgjcGFpbnQwX2xpbmVhcl83MjNfMTEpIiBkPSJNMTUuODQ0NyAxNC45OTYyQzE2LjAxMTQgMTUuMTYyOSAxNi4wOTQ3IDE1LjM0IDE2LjA5NDcgMTUuNTI3NEMxNi4wOTQ3IDE1LjczNTggMTYuMDExNCAxNS45MjMzIDE1Ljg0NDcgMTYuMDlDMTUuNjc4IDE2LjI1NjYgMTUuNDkwNSAxNi4zNCAxNS4yODIyIDE2LjM0QzE1LjA3MzkgMTYuMzQgMTQuODg2NCAxNi4yNTY2IDE0LjcxOTcgMTYuMDlMMTEuNzgyMiAxMy4xNTI0QzExLjEzNjQgMTMuNjczMyAxMC40MDcyIDEzLjkxMjkgOS41OTQ2NyAxMy44NzEyQzguNzgyMTcgMTMuODI5NSA4LjA3Mzg0IDEzLjUwNjYgNy40Njk2NyAxMi45MDI0TDMuNjI1OTIgOS4wODk5N0MzLjMzNDI1IDguNzc3NDcgMy4xMDUwOSA4LjQ0NDE0IDIuOTM4NDIgOC4wODk5N0MyLjc3MTc1IDcuNzE0OTcgMi42NzggNy4zMzk5NyAyLjY1NzE3IDYuOTY0OTdDMi42NTcxNyA2LjU2OTE0IDIuNzA5MjUgNi4xODM3MiAyLjgxMzQyIDUuODA4NzJDMi45Mzg0MiA1LjQzMzcyIDMuMTM2MzQgNS4wODk5NyAzLjQwNzE3IDQuNzc3NDdMMC4zNDQ2NjYgMS43NDYyMkMwLjE3Nzk5OSAxLjU3OTU1IDAuMDk0NjY1NSAxLjM5MjA1IDAuMDk0NjY1NSAxLjE4MzcyQzAuMDk0NjY1NSAwLjk3NTM5IDAuMTc3OTk5IDAuNzg3ODkgMC4zNDQ2NjYgMC42MjEyMjNDMC41MTEzMzMgMC40NTQ1NTcgMC42OTg4MzMgMC4zNzEyMjMgMC45MDcxNjYgMC4zNzEyMjNDMS4xMTU1IDAuMzcxMjIzIDEuMzAzIDAuNDU0NTU3IDEuNDY5NjcgMC42MjEyMjNMNC41MDA5MiAzLjY1MjQ3QzUuMTQ2NzUgMy4xMzE2NCA1Ljg3NTkyIDIuODkyMDUgNi42ODg0MiAyLjkzMzcyQzcuNTAwOTIgMi45NzUzOSA4LjIwOTI1IDMuMjk4MyA4LjgxMzQyIDMuOTAyNDdMMTIuNjU3MiA3LjcxNDk3QzEyLjk0ODkgOC4wMjc0NyAxMy4xNzggOC4zNzEyMiAxMy4zNDQ3IDguNzQ2MjJDMTMuNTExNCA5LjEwMDM5IDEzLjYwNTEgOS40NzUzOSAxMy42MjU5IDkuODcxMjJDMTMuNjQ2OCAxMC4yNDYyIDEzLjU5NDcgMTAuNjIxMiAxMy40Njk3IDEwLjk5NjJDMTMuMzQ0NyAxMS4zNzEyIDEzLjE1NzIgMTEuNzE1IDEyLjkwNzIgMTIuMDI3NEwxNS44NDQ3IDE0Ljk5NjJaTTQuNzUwOTIgNS42NTI0N0M0LjQzODQyIDUuOTY0OTcgNC4yODIxNyA2LjMzOTk3IDQuMjgyMTcgNi43Nzc0N0M0LjI4MjE3IDcuMTk0MTQgNC40Mzg0MiA3LjU1ODcyIDQuNzUwOTIgNy44NzEyMkw2LjA5NDY3IDkuMjQ2MjJMOC45Njk2NyA2LjM3MTIyTDcuNjI1OTIgNC45OTYyMkM3LjMxMzQyIDQuNjgzNzIgNi45Mzg0MiA0LjUyNzQ3IDYuNTAwOTIgNC41Mjc0N0M2LjA4NDI1IDQuNTI3NDcgNS43MDkyNSA0LjY4MzcyIDUuMzc1OTIgNC45OTYyMkw0Ljc1MDkyIDUuNjUyNDdaTTguNTk0NjcgMTEuNzE1QzguOTA3MTcgMTIuMDI3NCA5LjI3MTc1IDEyLjE4MzcgOS42ODg0MiAxMi4xODM3QzEwLjEyNTkgMTIuMTgzNyAxMC41MDA5IDEyLjAyNzQgMTAuODEzNSAxMS43MTVMMTEuNDY5NyAxMS4wOUMxMS43ODIyIDEwLjc1NjYgMTEuOTM4NSAxMC4zODE2IDExLjkzODUgOS45NjQ5N0MxMS45Mzg1IDkuNTI3NDcgMTEuNzgyMiA5LjE1MjQ3IDExLjQ2OTcgOC44Mzk5N0wxMC4wOTQ3IDcuNDk2MjJMNy4yMTk2NyAxMC4zNzEyTDguNTk0NjcgMTEuNzE1WiIvPiYjeGE7PGRlZnM+JiN4YTs8bGluZWFyR3JhZGllbnQgZ3JhZGllbnRVbml0cz0idXNlclNwYWNlT25Vc2UiIHkyPSIxMC4xNjM5IiB4Mj0iMTYuMjc2NCIgeTE9IjEuODczMzgiIHgxPSIyLjE2MjUyIiBpZD0icGFpbnQwX2xpbmVhcl83MjNfMTEiPiYjeGE7PHN0b3Agc3RvcC1jb2xvcj0iIzIzOTVGRiIvPiYjeGE7PHN0b3Agc3RvcC1jb2xvcj0iIzAwNTdEMiIgb2Zmc2V0PSIxIi8+JiN4YTs8L2xpbmVhckdyYWRpZW50PiYjeGE7PC9kZWZzPiYjeGE7PC9zdmc+;" parent="1" vertex="1">
          <mxGeometry x="758" y="476.21000000000004" width="31" height="31" as="geometry" />
        </mxCell>
        <mxCell id="L8tGwODf9pzZJjYV8ij8-100" value="&lt;span style=&quot;font-family: Helvetica; font-style: normal; font-variant-ligatures: normal; font-variant-caps: normal; font-weight: 700; letter-spacing: normal; orphans: 2; text-indent: 0px; text-transform: none; widows: 2; word-spacing: 0px; -webkit-text-stroke-width: 0px; text-decoration-thickness: initial; text-decoration-style: initial; text-decoration-color: initial; float: none; display: inline !important;&quot;&gt;&lt;font style=&quot;font-size: 11px;&quot; color=&quot;#354a5f&quot;&gt;Cloud Connector&lt;/font&gt;&lt;/span&gt;" style="text;whiteSpace=wrap;html=1;align=left;" parent="1" vertex="1">
          <mxGeometry x="797" y="476.21000000000004" width="96" height="24.74" as="geometry" />
        </mxCell>
        <mxCell id="L8tGwODf9pzZJjYV8ij8-101" value="&lt;span style=&quot;font-family: Helvetica; font-style: normal; font-variant-ligatures: normal; font-variant-caps: normal; font-weight: 700; letter-spacing: normal; orphans: 2; text-indent: 0px; text-transform: none; widows: 2; word-spacing: 0px; -webkit-text-stroke-width: 0px; text-decoration-thickness: initial; text-decoration-style: initial; text-decoration-color: initial; float: none; font-size: 10px; display: inline !important;&quot;&gt;&lt;font style=&quot;font-size: 10px;&quot;&gt;SAP S/4HANA&lt;/font&gt;&lt;/span&gt;" style="text;whiteSpace=wrap;html=1;align=left;container=0;verticalAlign=middle;fontColor=#1D2D3E;fontSize=10;" parent="1" vertex="1">
          <mxGeometry x="753.9999999999999" y="435.45000000000005" width="160" height="22" as="geometry" />
        </mxCell>
        <mxCell id="L8tGwODf9pzZJjYV8ij8-102" value="&lt;span style=&quot;font-family: Helvetica; font-style: normal; font-variant-ligatures: normal; font-variant-caps: normal; font-weight: 700; letter-spacing: normal; orphans: 2; text-indent: 0px; text-transform: none; widows: 2; word-spacing: 0px; -webkit-text-stroke-width: 0px; text-decoration-thickness: initial; text-decoration-style: initial; text-decoration-color: initial; float: none; font-size: 10px; display: inline !important;&quot;&gt;&lt;font style=&quot;font-size: 10px;&quot;&gt;SAP S/4HANA PCE&lt;/font&gt;&lt;/span&gt;" style="text;whiteSpace=wrap;html=1;align=left;container=0;verticalAlign=middle;fontColor=#1D2D3E;fontSize=10;" parent="1" vertex="1">
          <mxGeometry x="753.9999999999999" y="454.45000000000005" width="160" height="22" as="geometry" />
        </mxCell>
        <mxCell id="L8tGwODf9pzZJjYV8ij8-103" value="" style="endArrow=none;html=1;strokeColor=#5B738B;bendable=1;rounded=1;endFill=0;endSize=3;strokeWidth=3;jumpStyle=gap;" parent="1" edge="1">
          <mxGeometry width="50" height="50" relative="1" as="geometry">
            <mxPoint x="683" y="134" as="sourcePoint" />
            <mxPoint x="683" y="729" as="targetPoint" />
            <Array as="points" />
          </mxGeometry>
        </mxCell>
        <mxCell id="yfkW_8alE399V2zAXhT9-7" value="" style="group;fillColor=default;" parent="1" vertex="1" connectable="0">
          <mxGeometry x="-161" y="636" width="90.72000000000003" height="90" as="geometry" />
        </mxCell>
        <mxCell id="yfkW_8alE399V2zAXhT9-8" value="" style="rounded=1;whiteSpace=wrap;html=1;strokeColor=#6c7075;strokeWidth=1.5;arcSize=8;fillColor=none;perimeterSpacing=0;" parent="yfkW_8alE399V2zAXhT9-7" vertex="1">
          <mxGeometry x="4.279999999999973" width="83.72" height="90" as="geometry" />
        </mxCell>
        <mxCell id="yfkW_8alE399V2zAXhT9-9" value="" style="shape=image;aspect=fixed;image=data:image/svg+xml,PHN2ZyB4bWxucz0iaHR0cDovL3d3dy53My5vcmcvMjAwMC9zdmciIHZpZXdCb3g9IjAgMCAxOCAxOCI+PGRlZnM+PGxpbmVhckdyYWRpZW50IGlkPSJhIiB4MT0iOSIgeTE9IjE3LjUiIHgyPSI5IiB5Mj0iLjUiIGdyYWRpZW50VW5pdHM9InVzZXJTcGFjZU9uVXNlIj48c3RvcCBvZmZzZXQ9Ii4xNiIgc3RvcC1jb2xvcj0iIzZmNGJiMiIvPjxzdG9wIG9mZnNldD0iLjMyIiBzdG9wLWNvbG9yPSIjNzQ1MGI1Ii8+PHN0b3Agb2Zmc2V0PSIuNTEiIHN0b3AtY29sb3I9IiM4MjVkYmYiLz48c3RvcCBvZmZzZXQ9Ii43MiIgc3RvcC1jb2xvcj0iIzlhNzJjZSIvPjxzdG9wIG9mZnNldD0iLjk0IiBzdG9wLWNvbG9yPSIjYmI5MGU0Ii8+PHN0b3Agb2Zmc2V0PSIxIiBzdG9wLWNvbG9yPSIjYzY5YWViIi8+PC9saW5lYXJHcmFkaWVudD48L2RlZnM+PHBhdGggZD0iTTEyLjI5LjVINS43MWEuNTYuNTYgMCAwMC0uNC4xN0wuNjcgNS4zMWEuNTYuNTYgMCAwMC0uMTcuNHY2LjU4YS41Ni41NiAwIDAwLjE3LjRsNC42NCA0LjY0YS41Ni41NiAwIDAwLjQuMTdoNi41OGEuNTYuNTYgMCAwMC40LS4xN2w0LjY0LTQuNjRhLjU2LjU2IDAgMDAuMTctLjRWNS43MWEuNTYuNTYgMCAwMC0uMTctLjRMMTIuNjkuNjdhLjU2LjU2IDAgMDAtLjQtLjE3eiIgZmlsbD0idXJsKCNhKSIvPjxwYXRoIGQ9Ik02IDcuNjRsLS4wNy4wNy0xIDFhLjE0LjE0IDAgMDAuMS4yM2gzLjhhLjE0LjE0IDAgMDAuMTQtLjE0VjUuMDVBLjE0LjE0IDAgMDA4LjY0IDVsLTEgMS0uMDcuMDdhLjE1LjE1IDAgMDEtLjIgMEw0LjggMy41NCAzLjQzIDQuOTIgNiA3LjQ0YS4xNS4xNSAwIDAxMCAuMnoiIGZpbGw9IiNmMmYyZjIiLz48cGF0aCBkPSJNMTYuMTggNS45MWwtNC4wOS00LjA5YS4yOC4yOCAwIDAwLS4yLS4wOEg2LjExYS4yOC4yOCAwIDAwLS4yLjA4TDEuODIgNS45MWEuMjguMjggMCAwMC0uMDguMnY1Ljc4YS4zLjMgMCAwMC4wOC4ybDQuMDkgNC4wOWEuMjguMjggMCAwMC4yLjA4aDUuNzhhLjI4LjI4IDAgMDAuMi0uMDhsNC4wOS00LjA5YS4zLjMgMCAwMC4wOC0uMlY2LjExYS4yOC4yOCAwIDAwLS4wOC0uMnptLS4zNiA1LjQ1bC0zLjE1LTMuMTUuNzYtLjc3YS4xNi4xNiAwIDAwMC0uMjQuMTYuMTYgMCAwMC0uMTEgMGwtMi43MS0uMDdhLjE3LjE3IDAgMDAtLjE3LjE2bC4wNyAyLjcxYS4xNi4xNiAwIDAwLjE3LjE2LjEzLjEzIDAgMDAuMTIgMGwuODUtLjg0IDMuMzUgMy4zLTIuNTQgMi41NEw5IDExLjcxbC44LS43MWEuMTYuMTYgMCAwMDAtLjI0LjE2LjE2IDAgMDAtLjExLS4wNUw3IDEwLjU5YS4xNy4xNyAwIDAwLS4xNy4xNmwuMDcgMi43MWEuMTYuMTYgMCAwMC4xNy4xNi4xNy4xNyAwIDAwLjEyLS4wNWwuODEtLjgzIDMuMDggMy4wOEg2LjE3bC00LTRWNi4xN2wxLjI2LTEuMjVMNC44IDMuNTRsMS4zNy0xLjM3aDUuNjZsNCA0eiIgZmlsbD0iI2YyZjJmMiIvPjwvc3ZnPg==;" parent="yfkW_8alE399V2zAXhT9-7" vertex="1">
          <mxGeometry x="28" y="8" width="35" height="35" as="geometry" />
        </mxCell>
        <mxCell id="yfkW_8alE399V2zAXhT9-10" value="&lt;font size=&quot;1&quot; style=&quot;&quot;&gt;&lt;b style=&quot;font-size: 11px;&quot;&gt;Azure Traffic Manager&lt;/b&gt;&lt;/font&gt;" style="text;html=1;strokeColor=none;fillColor=none;align=center;verticalAlign=middle;whiteSpace=wrap;rounded=0;fontSize=16;fontColor=#053B70;" parent="yfkW_8alE399V2zAXhT9-7" vertex="1">
          <mxGeometry y="56" width="90.72" height="9.07" as="geometry" />
        </mxCell>
      </root>
    </mxGraphModel>
  </diagram>
</mxfile>
